<mxfile host="65bd71144e">
    <diagram id="2u4s5m0thIHsbYaxaTeV" name="Page-1">
        <mxGraphModel dx="1953" dy="425" grid="1" gridSize="10" guides="1" tooltips="1" connect="1" arrows="1" fold="1" page="1" pageScale="1" pageWidth="850" pageHeight="1100" math="0" shadow="0">
            <root>
                <mxCell id="0"/>
                <mxCell id="1" parent="0"/>
                <mxCell id="2" value="VS Code&lt;br&gt;(Code Editor)&lt;br&gt;&lt;br&gt;Code Online!" style="whiteSpace=wrap;html=1;aspect=fixed;" vertex="1" parent="1">
                    <mxGeometry x="110" y="120" width="220" height="220" as="geometry"/>
                </mxCell>
                <mxCell id="3" value="GitHub&lt;br&gt;(Store Code)" style="whiteSpace=wrap;html=1;aspect=fixed;" vertex="1" parent="1">
                    <mxGeometry x="350" y="120" width="220" height="220" as="geometry"/>
                </mxCell>
                <mxCell id="4" value="Heroku&lt;br&gt;(Domain for Sharing on Web)" style="whiteSpace=wrap;html=1;aspect=fixed;" vertex="1" parent="1">
                    <mxGeometry x="590" y="120" width="220" height="220" as="geometry"/>
                </mxCell>
                <mxCell id="6" value="JavaScript" style="rounded=0;whiteSpace=wrap;html=1;" vertex="1" parent="1">
                    <mxGeometry x="110" y="360" width="80" height="50" as="geometry"/>
                </mxCell>
                <mxCell id="7" value="HTML" style="rounded=0;whiteSpace=wrap;html=1;" vertex="1" parent="1">
                    <mxGeometry x="210" y="360" width="50" height="50" as="geometry"/>
                </mxCell>
                <mxCell id="8" value="CSS" style="rounded=0;whiteSpace=wrap;html=1;" vertex="1" parent="1">
                    <mxGeometry x="280" y="360" width="50" height="50" as="geometry"/>
                </mxCell>
                <mxCell id="9" value="MLP Website" style="rounded=0;whiteSpace=wrap;html=1;" vertex="1" parent="1">
                    <mxGeometry x="350" y="360" width="220" height="50" as="geometry"/>
                </mxCell>
                <mxCell id="10" value="PPL Website" style="rounded=0;whiteSpace=wrap;html=1;" vertex="1" parent="1">
                    <mxGeometry x="350" y="430" width="220" height="50" as="geometry"/>
                </mxCell>
                <mxCell id="11" value="LiftKC Webiste" style="rounded=0;whiteSpace=wrap;html=1;" vertex="1" parent="1">
                    <mxGeometry x="350" y="500" width="220" height="50" as="geometry"/>
                </mxCell>
                <mxCell id="12" value="scores.majorleaguepickleball.com" style="rounded=0;whiteSpace=wrap;html=1;" vertex="1" parent="1">
                    <mxGeometry x="590" y="360" width="220" height="50" as="geometry"/>
                </mxCell>
                <mxCell id="13" value="https://ppl2024e1-4c67cc9998a9.herokuapp.com/" style="rounded=0;whiteSpace=wrap;html=1;" vertex="1" parent="1">
                    <mxGeometry x="590" y="430" width="220" height="50" as="geometry"/>
                </mxCell>
                <mxCell id="15" value="www.LiftKC.com" style="rounded=0;whiteSpace=wrap;html=1;" vertex="1" parent="1">
                    <mxGeometry x="590" y="500" width="220" height="50" as="geometry"/>
                </mxCell>
                <mxCell id="16" value="" style="verticalLabelPosition=bottom;html=1;verticalAlign=top;align=center;strokeColor=none;fillColor=#00BEF2;shape=mxgraph.azure.github_code;pointerEvents=1;" vertex="1" parent="1">
                    <mxGeometry x="435" y="265" width="50" height="50" as="geometry"/>
                </mxCell>
                <mxCell id="19" value="" style="shape=image;verticalLabelPosition=bottom;labelBackgroundColor=default;verticalAlign=top;aspect=fixed;imageAspect=0;image=https://cdn-icons-png.freepik.com/512/1049/1049443.png;" vertex="1" parent="1">
                    <mxGeometry x="197" y="267" width="46" height="46" as="geometry"/>
                </mxCell>
                <mxCell id="23" value="" style="shape=image;verticalLabelPosition=bottom;labelBackgroundColor=default;verticalAlign=top;aspect=fixed;imageAspect=0;image=data:image/png,iVBORw0KGgoAAAANSUhEUgAAASwAAACoCAMAAABt9SM9AAABJlBMVEUSIzf////vYi0ADCmVmqB5gIgAEioSIjkQIzb8//8AIjjzYi3tYS4TJDgAHTcAACIAACfh5eQAACPAUjAAAB8kJzYAHzcAGjAAABwLHzQAFS/3ZS0AFy/wYTAACykAECoAABi7vsTuVxfeXjBUXmlqcn3w8vLLz9KDipHd3uJVNDShpq3wlXb58OvtVBH//f8iMEHtUwAAAAB+QDMvPE13g4c7RVZCTVnjXi+yTjCOQzBmOTM4KjHMVisfJDRnbnq4TzSeSDOvs7g/SlQAGzt5PDcxKC8qNERrODfAxsbzelTyg1vzdEfMVTT5yrr52M70sZhSLzfyoob52cb1jXL1tqf0uJ363s74zcLycEv49ez45t72noRqPDKJQjZCLTEfJy8AJjJvavIpAAAQV0lEQVR4nO1da0PbuBJNwsNS5DgQgoMxDo2hAQoxpXBLoIUubGm7PNNuu7Sk2977///ElfwIeVgayWSf1fmwW8BynJPR6GhmNMnlNDQ0NDQ0NDQ0NDQ0NDQ0NDQ0NDQ0NDQ0NDQ0NDTGCgReYWS/udxQJH4GehNDBdkfF4ZTW5oWYbHGey+GJRw4vWgkI4FXED8gUsQ4yRlArTKzt/p4SoT/PF5KHbpUmXkuHDg19TT+lB3guprwGe2iGizLsu2iM26qliqrjWYeQrOcMnS6/hgc2lwKP2VU24deQGANJXuXmEpor8wdHL54ads2Ko2Pq/L+BsgUxezCyEhnYWoWHrgWszy9Lr6uURE8ZMk6IEooEJP+13VX5nbnLXtcXM1MylBFyaoOPX5ueW9NZuDmRDSg0hBft74seErDXvFIQQEevZxSZrrELRztHttj8fhV4C30sLEwYM2lXH0VnrsMryJnh6qAAa+KfBaaL3gqXA3AdAsHL+2Hui+EyrJcDZOVm3glOfBp9JSoJL6sWRK8G6P4ws3MVYF4Jin89NJGxoMWyYrkHGRkVXP9bNX2sdy4Zjx9awC5G2kLSA/24QPIYvBcclIsPmQuOnvSXA2R5VQkXHuIxG9PAJ/L6YzoSa0jJY81CrNQcFeeWNktqyTtsCjWBhx8ZVN2XOy3SxVgNVifFjypYZkP4yoEcQ9tIytdzp7kVArJ6p8m1lvpcZHfLuUWgeVgX+Tfi98fOAtDmMSds4oZyVqW91hDZM1IGxaO/bv1s/iDwXXRk9q74yCLghzNZ2PLqErppBiNPrIcJKcaKDZil7U4BVxXTX/ImKyDB7qsHlnuyryViawl6bc8RFZd2rB6fnvmVHzdptCyrKPxcFWgIqKNihkcF7RZG3rX97sRZ3Fbeth6RAIqA5L0sTDocNwek2VRuFdFpC4hoJkxiL6tW13B1+3XogerA9ftiSZH8cmYXFaB7YPcg9fqlgXNjEGc9uYJgha2PjRjg6mtCi/DTbF/P3THIR1imO6ZrWxa0GZtEPdOZRkIH/RjrVySGrMm8u/ImhvfLGRskTdFRdtyFhVUVj9ZCwrrQjKq+ovs3VPJWhknV3RNnFNdEdX8+/3bUXJ1SXx1AtgdceKw8cc6P1bDonBfqIW40KLCbKKYjMlCM7K7Qoa3kSQF9wp7ogBK8Z2sf/dk4zgr4hj2CFlQMG6YrDiGN/1YYVASi14CBs0Kd9H2iYxlsegokTRBz32nJOTBYByHLKVhid+GVOwvopCyjCQl/k5gnl9cXJKdwJdgzL1Skg/OU3llyRBFDxAUlhrE5HS0RpeBjdWkUDkg8eQixDe3rrsY06mOceumc+774HR036t4rSWx8hklK1RMaEHJHl9FrsFYBhbQVZF/L74Xm0pw/pmSRKnCOP5f94MPTUj3QIUshf1diKmQLEBcDgFHKUNkQwuvI/DvJfsb3797heDy13y0erQ655cfr9kPON/64BeIUMi2VdTDgkrIgZEVBueUAhX52Xq0ZZ0AFt7mI4GiNor8kAMp+B0cL7Rdl5qTu7MV/Yhvzn0RV6b7XsHFV1VCDvlYCSlqs0alFJIFLbyNimj7Ya8UUm3EJB4xb/OxXeFPgeeZnrlzE90T461AYFukcCK/51EJv4dg7sdQNMf15WizAzm6yWV+0hg585y3TEz3snV/k5bJ/JTv9X5F6ROYlntlS6+HkPIZASULWYoM78eSFFp4V2uCDLvNk6SEtFt9Whe3vrqB+/Gu9zPGHT5bpumVpCM1E4r+ncXSkUqCgyGRpGK5sY1FKUNkcSWp2Rq51+BGAX8QaAj3ifR6CCVbRkDJUkpwUGw8il4LivVviCXpFYcs/wZ8HHzO5argnsl6eKQUUmagU6qiFAC7D65CkvRUSJZtppLl+R8ilSAAVVw+n6wTWbIUl7U8C3k6T9UMK5ZmOTALJiwJcV6muyxymcfXX77cYv5DMYn6G5ctIi1LofqfUTx35BOryZBIvzvP82IHL0wZ8rJg/jW+DgijjHNXfL11Tf/W5pJ1JSlLVUMO4TtX3Ezmm3H4HQqAbYv2OrwsGGXpjmUxgi6PrF93yM5XnP/E9fFHkpaluMVj2CurpGQZ1mZCsowy4OrEKcNiesjB/4Rvdzzm5Xm3/ejSvdBNHnPn4Yqkz3JKiu4nj/eUl4TNiVA9gbGg0wnRox6baQ7eC+7w5zAWMyofYpwzKunmZ4uzmBJZslRDDpQsQ9WwklCxMwFcN7UokNLFJ27amyXn+fxNUDApG7yPfYtaVoFe9pljWtJkqSRoIuCaqmElVWzAB4Pp0sF/UINTmOV36NAvgX95N3CrMEIT//Q5oBvAcyrsefNQliz5gr8ETWV6Z2P9DknSprCWtJieBQs+05F3nc79JKQsdb9enn+4S8jCFz4JfqM/XXLm4YrkTrqqknSI3pKyYSUpbGjhBVKG6Uu/300MKQHGnwNqQ3672/vV1/ZXJls/8siSkw7OU9V3ngGJ1FwGPhhxyvANR2WN+PVYrFPlhROJgyOJz9sgHsmRpRZIz4i4+tiB6t6EKUP7d07IYXQR7PjxDB3cMmLcSSeLzFlSpwlUQ8pZEIcS0CL0wQhThvaJNFkX8WyjCmzwQTg7HnJgSfksteBwNmzEp0ugIsGmUGXZR5zI3yhZWzEn/vWQmEhMbgjuNzkFr1AGkxmNmYgsKOQgTBmiEmevMuqz8tdRpM8Mhv6Ev3LIeiEVKq09HyMpPCT+vQzsKCcn+I9c4hZm+bfD98FUKrBTGDudwa31dm9+Dk/D71JnLpaVqtgyIg4lgLGgVcGaxJOkbK6xsYOenC57QVDo91jsnxhzdJYpd1oM2tmOA82l6HMD9wqiI4GGxcuC+R/CwUOu/O7m5l6T4i7VrDjPif+Z5EiuJl495KCOtSRK2hBf13wkeFBkrfB2wZds8LDjijL40T/zncAPLlhYK5UsuhjK1eGWVUMOGZBITajwtlEWTAY0z4tFmUEX462d9jVvH42vd5gBtrZxusvy3DOpxZC6kT+erbj6GAxFC0PKgsIsOg+7Ox4JOjyyovpmOjU56TDyRs6/rwNh3nEgqmIrgXsF4SlDriRlBe13LabMwx11CrqMIxbA6fipSo2svJbhSjlJkwXJgWfoLJjwlGHO5mXBKIJPeaoVCuQ83bRuA5PuE1u4RdJPwLoHcjvDyp/i36NT5FB6UpwytEXHV/27rk8oI5w7X+wEX7pMTqQWPJiSKdY/JeQQ1wmiOrBXEKYMxWfB6By7MQP/kuO0tq+ZjLhN91im25Y7qPmnhBzig9EOtFdYF+h38VkwsxBc47tPHV52J6xqa3Is03RPalJkqRwmyYy3oYZB4F7heXlmFHFtJV+SJrZ1g/MDev2ue9PPHebIBgr3u1yYFNrZ5iV22dAls0l7AmgtmU1DfPKFSlJPVLxHCuR2gKsO8QN/q+9XH33e0CNLrnfBBPROgcMQDA1APSXn7RQromNEnSCQMy+0q4LpFcivvQdhG2lqR+ZOFFZmNpcEbVIMS7IoBIxc5uFpiqHZlUjNWiZBFzs8G25PQPzfemx93gl/006esSWok1yRPIcPFEvRmQHHJE6hSGsSclBOT4Z46jCHZ1h8SXqP4GOyQbzdIYQEl4nT+kQIz7sX3F3JMgcwpHwKJ732gNmFF+OQQ6a1ZHYi+thtqbNghHRa0Qb6ZutiK4rc4Lyw/Ja0ZYuNQP8+Bb7DtWfABRtxkx/18pPw9jNh2S6qtaVO4hCffOji+8wYxnfX56La24L7uy3VAM0AZWLeALMZq5B6SqQmdBYsHXGnH14WLAV+cPn1uttqte5a3ZvOhS88kELYUihlV4YDRS6bz6DlvvkM8mpRzTwcckhHnBsr8rJgo6DLou+zFGvB9aGjO/Sv32WPZi5BHqnxrAFcsf4I9O9xlUO2vUJc+0D9u+xZX1LoI8hMr5rvwT2UL7yF7GbqEeDUmjWoGr4Z+3fliuhodCxo7Ye2n+EQK5mIZpiBZOJbiIrNigW4vaS5yKNMkjQajXLHYzxD3oNJ2i+lDcspAW90owxFcPaWIP++Ga/91UySdDM8qIlYFmz8dJnuO/lOR6BMPK3WxUtYo1yDDmc8XgrJcn5WIqk3OgpIP7hjVircQ4UeWmBm6tUScDZwvwbJ2u23TpiEUGuy0UMUkB53e4IIsvUNEcADJSVH7JHWFkqQU9uoRG3JMvr3ajRN7DG3J2Dw5pQO3T+CXFYVEEd0kkCH7xpxdVo5E1lrkfpHY29PYBIy9zqn0LPHAboUUt8sPqAzW3fAe0zGIYdshU2x+n9QR8R0uD+p9WUDZeJqTRwJXq/L3CN6sWzb6PgMi1x7AgUQ90Sx4x+UmcKGI67kqBqgK8LJgecsAh4n6l8u5KAA71DFt+ckMlNrVbG42JxBuRkgkjqb9EgG52sKcNOOVodi+lmwrHC9J6q9EcFmTpN1JDziuufkENR2oJF0/0DqNdG9ghJnLB0RE3ju3H+Ve5SCmSnqbqYF6oitc+Dh6l71AsoitCL/juxv4+uY5bnm4Wv13srQ07P6fZFsZa4b9ET79wl5qKo7BVNRfAbKgkkTFfbbfJOlPSkUcmBJGcEaFh7jBQ9M9L2eyEo5iOMznLNg6mR57sq715m6bUKZKTaDuIvdNhWkBlydttafkF8ALh4Bjl0WkAWTgUlMOgPbu5Z6z7rokwbCAKwkfYJrfdFhHKg6bbO/VNtZVIzSxGcPx9ERkdAJeLRrZ2ycX4JCyuG2jG85YSsiBwGED/TQNJaQGltxW9MxSFLiunNPitm/YwDqxcYWfYO71cZhhBGM8bwdLLhy1KrB4rOH1tVDmSJXuzk7ax9lBvrcwk0y22kY3KjyZlhyBcV4mjOD6w4yyo8V1sQ4O/sAScq+uKI9d/bGeuBXC1QAObnHFlhuKXN41rJUBvT7WnVkkV6svlqTPNKxHfdjAbJgppf6JR+u6xLz6ODsTdEqIgR96xEAZ1KI9Roja3Gd89ewuQ7i/TnBq7Qa0VrVWJ0CBkYvEmfBzlxRftUszI3g4KeDk8OzJ29s2yo+ZPbdY3mCj3p92YgCnOl/T3T5Yr0uukt6PS1yapzbDgyeCPONiBVmCfX71WtrBJQl26YGhf7Yb776uwEZRXEWzD2xB7847K9+4r8QyDkWFzmwWgVNVgxIkpL5P+5r0/5p4J8Fi7mSLUX7EWBYc2LDmlOMef6bYQBNut1v8t36/vVA82KX5b53tGUlALNgx9qwegBCDp5kp48fA9aRWGZJnuf6EVDKIaByb3dsX4T5jweCJCn173/1M/59IGrSzWDqpbAHBGTBqCTVi2EPtjgLRnfR2rQSGOIsGNsYastKAPh32d5EPwYE7Qkiw9J2dQ/R98Z41GPp8EwfaiJJ6h7opfAehvNdkNhhX6WgDesexTOuyzLJ1f80Vf2gkpRnWe6cqNfWDwjEkaQmcb1D7a8GwfneGOKaJ/M6mDwEmzXpHiphKJhHB++KFkIlzdYA0PH8CI5ty5ZrVvvDwYgOxvctew6riPmrHudvD8PQuXlpaLI0NDQ0NDQ0NDQ0NDQ0NDQ0NDQ0NDQ0NH5o/B/cvtfTxmemSwAAAABJRU5ErkJggg==;" vertex="1" parent="1">
                    <mxGeometry x="500" y="365.4" width="70" height="39.2" as="geometry"/>
                </mxCell>
                <mxCell id="27" value="" style="shape=image;verticalLabelPosition=bottom;labelBackgroundColor=default;verticalAlign=top;aspect=fixed;imageAspect=0;image=data:image/png,iVBORw0KGgoAAAANSUhEUgAAAN8AAABMCAYAAADtC2LBAAAAAXNSR0IArs4c6QAAAARnQU1BAACxjwv8YQUAAAAJcEhZcwAADsMAAA7DAcdvqGQAAFKYSURBVHhe7b0Jc1xXlud3cs/EDoIACZIgRVIbRe2i9mqpurpqqto9U+Eej8PT4QiPIxxePoY/icMOOxzjaVdNT097mekeV1XXqr20kCIpUtxBgsS+5Z7p/+/cdzMTICRCIgRV2zzkwX3vvvvucu7Z7vJupsysLXwAf0CQStEtOwvt9oNu/kODdBI+gAfwAHYZHgjfA3gA3xI8EL4H8AC+JfgHPOaL46JvovpfZ8x1dz22ymVbtdWYj39bQ298zO3euYYh33ZK/9q1/gIgv/t5P8Lmem2V5xfRDPiiOsR3Yj170/U+i9D7/Ivy3B7EEncRehsiSG0qvre9PPLH3AiTpJty2FEIRagEL6SnJC7TGQ988gJstbpJdB8uCeN193EKJyOVtmZb7yQxzKu09F7SLEUplZA4hzZv9+YUrwMopf6CnRzuCVGoe0rtgc3lkSYgbfqycjY+2UQB7+OWZTIZta1l7abuiU6TTteRJEAmLTKkA42VLp3JenSr0fQwlRYd9ajd5r7lNCR9KpVRZDrQ0+lGmQBhoJGS6VkP/dWfno3Xlf4h44byolYkJj48Syv/tOpL/VstXgrlh/xDql4I9+EvKbaiN0/vjv3GIFYxhiqay14B9HuhGgrxQ+0C49JWkqZ1LXL7v6aoJ3KQaEfAi6MjxSgOMAFIL/fGtYhXuVz7W+ouXQe2ixggNEnvqrMb6jhSB2FMOtNjiFS7xHytJvl6xCbUOw5cA2KUDhN8OUSh20r4PC5mCQMnN7SBlBuFvPveBtAr4UlseQypc6hjNi/hk8JqNZSXHqWzQRgDLZUEUFxKdHYZqTctncsrqVpZqylC9BENgVarrr8NZ5N0OitS5pSHlJuKarnQkAFAWeqbdAhbrUYoC4FN5xLhU556P5sRVVpVdWldqDoov1B/CZ6eZ+gbvd9WuSENdUj6WX8iG/u9h1IiCunfPxDhi1VLgBrfXWvRImvtugjlNBT50TwKwYyInctmXQgrtarVGnTMzgA1yajD03l1jISpgSA0qYdC79QEJDjOJDxLBHAr4YtvhBgY21uja+IUqzYEa5jQwCG+uTXyLwCcsz3h2wpcicmSBGsixhQGWQj5x1oG4eN6cz27EEkTWg3ThboG1Hvi8kRunK7kkoZ+/KPQDc1XfVCA0J4QQBGTF0ID7VPUBSuFqkBQEGzV2CuCwAChztmsUmSD4NUb6q/4SG8itGkJYTZTEE/xfs1qtTUjWRuh3IAhvxy8KcFrNMohjmrpKrkM1w6h7kG9eoEbgHR3x35jsLFqDr3CB8Qk0oDi/A39TTKEj3/YPlHORO8NMnG/QFHOEOHWywgVEriG7jwJz5L7lMKQMuRA2POmmhEYkqcwPe9R75yEvFaviTG6DUW7O4PxthLFMIDukuuWGK8NE/bS7wsAl4+qNmUagtskiGU4IASEQcUBsS1g73XALvgdVfS8elueoIQLAeZJVoyLdaceQDqj56oH95QfXG7VwBWC3hLNo27KyAXlnjqnZaUs1VB6WaEWbirpqXdASiaLtGjTtrqnA+gyyE9+TgaKk5CkDGUOLRsqh0iVpfwaDd6Pwke9VLrybElIWy0pfQpKIHZDiOJvENjwj0ZsBFIkr+wGUFxPbQFqvJl5SAKBuvwYmiLKpZ0ZBTAgnabL5qYs7w9wURICq6NBIJQaEWJ6EOoi6BI+po9hgMB6ITYjrkD7wwilvpKtl9d139S92ifsjCmVHkHzPDzslOb5oHhaKhhS3At84V4vddw83bqAY/kIeQ7ocRO30EujFIBwq+suxDpg3T3zDtKVYl/aJW5H8KBvA4+BeN2rcN0Hd7ybdahXmz5QnCgjfZyTkAYnPeVupISPClNdFzyYHbWcUb54SKQjdV1GFEuFMApJKoAU6PiMLF+rkbJas+Y1ZnRBHRG6ep2+xu2UN6QMuWvKgjbd5UysaA90WZlCQkFB8MCNQFmd5N88xA5JiuSSaw+3AMXDE9CPRqEkaU58DUo21DOhG3cGyDubdFxTrg4KGjnweijOJwOUBgGJgtnl/hDGuy4ENo6I8NEZ5NnXL+FbX3Mmo0weJXzp+XSFemMIRMWDEH4dgLmDoukKIGOgBu7+Xa1IKtIDHtOTLFg8gLB7Tb+VNExoyMK7i6lGNV25hD4lqcs7l8lrkeaEpET4MhI+d1mJk5VqRuYnQY/VY1gShIr3UGqMz1oufIW86lI0KxYKls8VrL9vUGkLVq81bWVlySrVNQ1l6hI60VZ1wvlKpWQV04WE35qKZ56BsmmLggjUoxNSl2D5guAlDewBXo2v7AJQXE+RXTWxsREJMNFFE6g342SuYw4Ab8P3TvcdBKqFBxKBcmAENGLiMXrH4Lb0tEDXvbWL9wKYmjD54wzvYdvyhaxVK2JK5Rff1uNuW5MCPCdde5iAlLU1qE9yf08g3yQDvFx0B23pQJJ/SBL+dgUqJkzakkhJ9/lm6MbnVOhgsWDNatUtXphkCik8lf7EubVs0nCYHuHxoTZRimPmM4xTNb5TB5Xr1VAX/iSMgCLxNCJcRmnSKVlUNZR2FyV0+/cN2uT+cds3PmGjI3tsdHiPyslbtVy3uYVZm7553a5cu2Izt5dtdU3lK+usWzwND6SJ3T4rM29B7LRe8LpwQUOYqeUGNUlOG4FXPenuQG9NVezmim+6l7J0IUAbw4QaDwdh1HVsCuFOup1khaX1cgTcQyAwQrzfOk7M6YyZMKnnICQAkFhdu1ZW4+g/DYMcYRDaKgPhDUve7Ly6OUT3uv6NEdsAZ2IaxzuqoAthJKZgc1Yb28jT0L4NbdsSkjf1OKMC8mpQZMVYHNXgvhdjbn6tG1cQIcqhIGUFlGWdW1KGKF4mXFI+7tO9SzHOr1xcpXNvQuHQgNkjDx+0Z585acePHbbxsXFZv6LlZE0hYL3Wkvu/ZstrK3bx0kX79OxFO3/+st2ZrZo8T68D43ZojSj5WDtCb6Vj2MbqRcv3ByF8QFJkrPBm6KmRM6jqnBe9R4aKNrlvwvrlM0DMZqMeZp1cC21v3LMdQMghWUpS0ZTvUZG2XltblxZck3vYkksStDKkjIQjjPfUI4zvqCWVEnbqFlOqG2EK0kp6pg6O2MTeEesriUUbtcS9JpdQH389hvobrKFcIGXSlJZvubB/OYQJDJUnQWDChbFTrVazSqViq6urcrm4Fl0THqEILyYJO4jpV9lREGOtAsQ3gO51XiqiJKKeOH7U+gf6FKNnakQ+l1E9wqRJWiavIb8Q99CtF5MrSgYdoQQKoqmIYrFki4tLduHKVVupKr2qk2FGlNlOxoNC6MNbWNGCZOvA/iF79OEpO/HYcXv80WO2d8+QytY4DwGWsDJG1IgydIhwfnHBLl2eto9Pn7OPPj5nN2UF1xni6XFb7k8dGiLpsekxjE0m/IMUvljRLwF4CcJhBWDEkaGsiHfMnnnqSRFuRHFivFpFHVEQMzCcvbthXxtEDfJPqaMbEvD19bItLy/bwsKCzc7NO84vLNvKKto3EA8MIiVUfQmD8AldMEClClyB5nD3lbYxCff6q0/YE48/Im08rPuaGCa4TSTvsHmiXfwvBeqqpUwQvmBpvxwQPsZLMHhD2gMBrEu5rK+v2/z8gt28Oa02Lsr1WrXZ+S6rUFRE2ka7Qo1oSAy9QknYex3CUrppY/05+8c//L4dPDgpwWJiCTcwp3Fg1cdQeV2Xy2VfdmFmNpvLW60uBtD4DWIx9q6p3ric5z+7YD/71W/tzlI1qYboJSn09UP1GzTDSypqfNcvqT/13BP22svP2pGpfbZ3lDGeOEaCh3INNJboseSAq4XGl+AvrVTs4sVr9svfvGsfn7lgM7PrbgHpNMJkeigAZAA6TVaEj4X+AQof7S8VUlarSDuq/ocP7bE/ev01+85rL9v+8THvuGp5XQPnvDquro6RFGwj3+0AnUFmdAhjBxgWC7Ei6zB7Z84uS+N+dvGiNONVuzlTEUPIEoquTl7VgTBYv14mFXApZK2rJaGmDdGN/uf/6Q/t1ZdfsKkDE+outDdMwQJ6FDwyCLXq9paeSuhc0LchfKQIs7dM6WsEI80PIyOMKyvLNj09bbdmZuzsZ1fsd+986haeeRcf26rMUA7FU6ZqLWsT1tTAWCnCLlJ/wqFC2x7aP2r/4i/+mR2XEi3kc9JJLQmfbKKUDetvKNLVtdUgfBKCbK5gZVUiJbcwncFpTVtVxEYZ/vo3v7O//Dd/Y/NSgF1QPWTFvEYqVvrLBkppeRRD9ifffcXe/KMXbahf0tiqSOjKvibbr0FgMS8Frk5r1uUJSLiX1M99g0OWzffb4lLZ3v3gtP3i1+/a2QtXbbnMJI9AAoi3BV0cKBSI904oBI/eJXJr4SPFfx8udwliRR10A+M4hgCmxCJQZ8ZDuJyHJsckfC/bxNiIFUVVsYwIXLdGdV3tqlimLVetVbO0BPF+Eab3cZlcC6wPgo0w5OXiju8dtaNHDtvhw1N2SBp8bGxADLEsdw0GYs1OgqjXCyW0qLQ6/mmnjbQXwZKLJaqjYPqKZpMTQ/bDH/yxt61VK4sh5Eo3pNHVppSYMiXOSFEfOIRriNK5Vl6iQ3pbbQ9pM3ovK2ZII9y8pziGUaODfXZw/147duyYPXHiMQkmbumaVasoNxWn2hcKTOEz3S9rVuqTwZG1cankqVCdF7pT9lHty3Cv+PHRfvuzH/yRPf7IlA1p+CDbYZXyklsgkPtqZUXjLzod+rN+pjoiRWpvS3XGv8nIHbp9e8ZOnz5tp8/edGXX4W/qofJKEqasKoEL2my0pbCfs+efPWn7xkdEsqrTNiXaZqmj0GkrxE0NmTCbimcg3ssVbWJiv83cnhPO2sq6+Ewak5laFzzK937tAeI9korFh0T6gw3wByB8yaUgVtdRdQXHx/J2Qi7ZS88/Kxci54JHBzGL1WpUxEga+6XEXDDUDqEvmKsDYSCYv+1CIFdGWqFUKEhoCjY0OGCjoyM2PDQk923d1tZXJIjqMAkgneNjJ0lY2EsY2kme9CrtQ8EMD6htGoO88NxTNjrUp7IRkKBYwjX1Qef7qEfxSaiODPZHaYTQZKt2bETSNTsYy+I6KyuEh4FiKxSKGpcN2vj4hA0PD6n+Vbszu+zKAouJdGWyskRuRdU2RQW24oKrWDeFqi/jukP7R+w7Lz9t+ycGRT9YToqztm65rAQqFYStSV9K+KirqKesWOyGaDC6+lp5MT68cPGCffrpGbs2vaJUAogZinXwW4RJF30Fszdef8mOHzsk3skqKykblU2ZeB1BABO6Ctv0jdrJbDRb1lA02WxBbviS3b4zb7dnl5xJ6VsvjsLAzdDxCOBooKeCPbC7wndXRRVBnOrlVU1uqbILn8JjR8bthWef0pjoYVU2dBTMmUlLQ6nDcNN8Stk7/P6RMh1gMklfqFNgJEdVLCcN7AI4NGgjEkCEivFhpbpqDVkFhBBmoRN9n2bSQNfkYloCrM1+aeOXTz1rxx+SRegvuCA0xZS0h3aF+iSIQqAeHYROEiTKUbi5HV8HyRfuY7w1eWDSBgb6vQ11WcCarHK1KgZVeTlZl2pNHgFtYbwFkRRPO31dTaGznbIbHizZww/tl/I8obF73md1EaxWq6pxPWUGZQrSp3EZhh0vWbnGEM5Tia4rq+v2wYcf2dnzn9nCcjLSj/ytNJTnJkkPKGdkuGhvfOcVOzg5IatKGxFKlI/oq/dctnlV7yB4+iuvhA3UGZEhpzv5CBq7rVcaNnNnwS5dmfbsEXqK8pc9g81AG3zgkjwmtb+xATpV/9ZAddpcf+4hDNpp/8S4BHBK/jvuhAiIVUD4pMHQYq7R1XFuJXYI3dXjWp2UU0UK0t4FmQYmgVJy4XAH89LSg6W87ZcrekqW643XX7Enn3gsYYCATXc7AUViJYS0i6WMvmJabRuzE488LFdTTCk16LPo7gpu0SZn6iCIsYBQx51rO2VmxZxF8Xy/6jexZ9CeffJx+/Gf/cgOy80uKc77KnHVsHQonqCkYDb6LigGFAz3I0P9NnVwn1z0QVlBXhb9hMHFrMkVrIjxq6JLsPgZhIPdK7RfbURh4YEg9HdmZ+3y5ctyPSWsgFcGwN1NbpQtl7lsxvr7+21oeNjHk8SRD/UkrafGUiN0aouPhYWs6WWVEGUX9+2O7RnzNUGlZlip92GEbnmbkSe0PYz6Az22AtLsLnxBTYimwxx1DaHk2dm+ib0+w1lnfAdTinOzaEjcB3WSuw2dRu4Ehvxgbnz/sO2LMulQdmswU1ax9dVlW16cs/WVRY0n9sh1fNpef/UljU9HfCwX28IEmlM5uWcMiwCOymoeOXhA7465+8MsJwJWlBS6koHx0NReH4Qt1K3Tw34f6dVb//tD6Altb12/pDH1qh3Yt8eeffoJ+94fv2FHDx/yiYxmXeMm6qcK0LSNVjmJE5KWGdzDUwfUlyXRUbRryi1Qu/KM3fXcy1RewQqpMW7JRTdZIHdzFZtOaRysAd61qzdsdnZRFjjwh4bVARAUJfVZUiZr9IAww+Da6YMbieKIQhpcZqyr71bxcpROz5hk4xmeDFveeI98Gd+GVAD5qALdiA6E9ie0TPCLgHZ+y0Dlepsl0K3kzPbvG/O1vb5S0crlNY9010SdBwMEn53k3a6/fwwk8S5Sx9TrNatWcLnKsmRVPcVloVwJgqwgTNQWQ2G5sA7f/+Pv2kOHJ3x9iZwQWMLQKWIY/cHX3zMyJItwwEqSRrGWsqo5FqSxM2qXu7gqKyoDsAPOQIpRGBa8dw4pF8vLxA+IspEvbCdPPGovnXrejj102Kf0vS2qhjOX6BSEhl2Qoa3g0GBGfTju3guMjXWBsXnGVykIWFYCgpBgPVlOUTbKKy0lVVA5umxKCIXlctMuX5q25WVZShVJv/Oul8Q7gmwmCBxChrtfl+fBTLV/mUI6CQxUdNdRfxoIoEJ/Xc/4vg9BZKKM/a18SVMolHzWdW1N5SqZo/54PcmzE6k7MMQ6LcBI2a0AGn6LsHWlvPL6M3XwoCzfuLt8CFu0Bib3hFkrZ1La70yopu4IUrpAFHaiyfK15H40mRJnCUDlU27OLbCYSCqbusEpY6PD9twzT9rjjx6XtS56Z7DjInRGF3G/sOaTYkyxljOxMnHh4z7tjKzOpw6xHptoFaf9Hbdsx9dDcmVsPVjKdtxgJrZGhwbs6SdP2FMnT/g4DrYntbtnCJ9b6aC6eJZT/cbH9tjB/RO2Z3TIaeiL4GpbmA3Fi5BVAfVWZ3zkwocrm1e+CF5ayq9p87Mrdv3abavIAYI3IAefEBEGDNYIwaAcBKhaqfrmiKpMZRCyYCHDK4F2QbWp1giyhC3s5yWl6sB2Ntb8lpZtaXk51I93AvH9OqBA91zR/oDkGhRSkuIuIN0fDMSm4I7IXbcjRw7L3x51YhMXpp6DMBDC3YGATFXsDCZsn9CWDsCVwfWAOeg8uEOpVCdmPxl3qUIuhAN9JQ3yB+3EY4/aQ6o7rpG8l9Am/ZG8OnMND2blbo5LADWO0LvkBROTT2hbZI2IIQ8HXcQYwp1tOwyI66XsMTvJ+Ba6s/Pm4IH9dvKJx2X9HlJ7lRZaRHokNSKkrVj+Q0p/YP8+eS59ogMuPDYJy4RLSSGkTpBFaYStFcJUm9nJnOiRsRVZu2tXb9md24u+9hhcw5Tn6WZMOQLMwDLOxpVs1Fu+Jjg3Ny9rueJWEMGCZlg0rJx/K4jC6aAUKesqAiZduGeH08ztO7awuKRyqb/SeXk96MzSjSFFRO47CTYBz79ViBVGriIUCymbOnTQGRiXs1arWp6FWXUyzIn1yTN4UqMgZlNEbO0gBisAK6Gh5QLl874Lnu1s6mEZKY0HhNSlXq3IRUqrnnourltdWVK9p2T9HrYBKRDahoUEE91hR48c8fXCISXwKW7lExSMmMo7H2IEEXPooU2MdcFTPcP2sq3b8VUROsKEKI3Z2zdlOdbVNkSFJQMpHzH1xNiYvfzSi94vKAmUEUzku4K8XmIqXfSV0nZk6pCUzF61XfUU88PQTN/DwCxqsw4ncrrAtdig20Ywc7rPWK2Kex+s39zssu+zXFvDeqo27bxC3kkK1FvkiZfBOJEoJkZWV5t25TKbpO/I+tU0hAgKwOvh40I2GqhPoaHeQY5B38CtNGx4v3F9Wnlctfn5RY8P9KfFQhSGK5HQ9vike03qnn7cBKTdXXBiReipVs9lsZS3o8eO2ITcspQYuiwmCJ/wB7eF6eBCseiEgv6RCXcKDQYR8dGWFY0Z2IbF0gEkJvQ6SJLyzKj1FZ05mYBZXJiV9Sv4eI6JogMas6IjEuPowDVMiRUp8X2LCMK4krxzrNI7IYIN2Qp7n8H2QWiodxCee2EQNN6LiBAHhI98Pa3RsOGhQS+hrrEua4D1yqruFS+Xk6l7FAwKB2eO8RweQgRqWZSynNg7ZiODfbL4YkD1VTaTFwbha2hMhZXBRfTJD3Um7lywimkpXLUurXGfLODi0ppdvXZTYzS9J6FTt3jbvcKgyu+efUPufH9HGrMrV6/bzIyEryZrqPdYPkhlChI+9ZswrWtLsaQgZxslIIFPKb6puGWN8z6/cs2uXr9hC3I9URSAj0/RUF8A9CCwgdW3gC/OYccBQkEwdVKiMWgEU7tYeCrqLrwelYby9thTj1h+QG5HRswurdsSo7ekqZrqwGaqYHVpv4ZxLcLpHSnIDdiUj9dIiXkknrV2w1EipHfuhXz3DDOrU7L9ejunsiSI0sx1MQqMhnzyORDfjIXZS72lcVG7UbaS6lrKp23f3hF7+OhhHzcxZwHzFXV95NCABG/CBmX1vHMkDA01mjJaKjOVH1S9S6pD0eopkOuC1Vp5Yc6RdsMkbWltDAZ046Nawqbqt0EYxWy4kzBrmGSQBZJC4wwUpvhTbcbSFbWhrHBdcaKSmDCb7ZMlz2nsxtcINcu21izfXrG+XM3GR/J27Mg+GxiQcKgJbXVgQ2WA3OdEuiNHDkn5jNhQSfRROYhcRhVMQ0PqoNS+xpfCLxem2SQt1zAFSrXI20jnCza3tGJXbty0aVkvPumhf8AgB+oIR7VZgofiiB8XOy/pya3bc3b60wv20ccXdL2qPGSx0yNKM6zrPmFJ+akvUurr7LC1ixO2lh61m8ttO315xt766JxdnZmztRqcpPGwOp0PdEVB5e6tTzDcoWPVKke1ysNQ17tB7LNbi+xoJJlzNI/+AVgzGIGvktUnLoR03NThPfanf/YDS2dpbMq/eYPGoYkwEZpT9y54IrwQoUXdEQZGDCjdqn/hmjx6n22N5C/tK4YvFPEbPWO3dkyT43piEXB90a7idVUEkqt9agBW2WfNxOhlDfg/PXtOWlw5qPiRQbMXnn/SHn/sEY1lR8TgaHnl6xpb5ei9bE4Cp+yC0Ej5KGyAKAAhyqadFitLMHjFWVH13jhxEoQNweY65K0au4/XtIIGZOwoYeIqCIGES8wve0Mr1KaCnqNYmHUUTdVuxNjX4pyp27a8umafX7thc8sSWNWnIW7Hcol6Nr5nwN58/SU7+egRG5bwMfBly1eK8sMUpqqDG0qoe2hIvkpDPuSXKw2IGUr2sQTnnQ8+sgsa87nQqX1gfGczBKeTdnqT5b62bWlxQbiivivZ0JC8kYLyVv/W6wit+FEWFivbSPVZ2frs+lzFzly4Zm+9/4m999EZW1hZC8Kt/HJSCuxFZebWC3HsQoxB4EhBuDFFF3ZV+LLS1AhfrB6NgCEQPKBPvD4+0W8PP/KwnXrhBdcyHNmGn86nH406M1FobcW5gEj4HMUaMGaCbREUwXSiZnAvSs7UXN8b1QkNGDVlpWIpCBu9KIZhfMZMJ9vNYgfEYx/cs5fwYAVwYyq1hg/Sz332mYSQBXKz0dGinTz5pNr3mK7HlG/Wqkia2siOCixUVeMg2sOcI21opYIAEmLpPE7PQICjDVKKT6Xksm7CGOeHBElYWS9j3BK2TUmAVXdcTGYDc7ovsC9StGqq/ciJL3Cr3bSVGUrMN+VquGZzYuZzn1+1mfkV0RwaeHWsr5CRdZ+w7735qu0dLlo+zfolbicqV/8kdF2UWnTU+44oDrVTWFf/1lSP9z48Y5+cOW/zcj1x9WBovRgkywuFshG6bE6S+ISjINbWVmxFQoRCxK0tFPtscFAKMB+GLzX119J63T757Kr9+p0P7Te/e0flnrV1pUeZUjbrfqz/4SZ/sUiFJ734RUD9vuz5DgJakRlDusJtkVBFRwopLElLjo4O2v59e+3w1EGlhO3C2hEiy5sZERw+YBwB7Wv6g2mH2pwDiTA45RPwhVpQALNtB5i1ZKLgocNMGOxx1zHdltXDBklbw/rMAoZDf4LgNcXkuIJYqVa6aMvlhn0m5vxXP/1ru3Tljq2Xla+Uy6OPPGoHJvcbG7XrfE6j8V5RloiZU0m1M7pvsfKq0pYQhiUQhY6h01SqaBIE28eDwfwn6aA1D2B5FEbYvdHfl5PVHfLv2sbHRmTZ2latyKWUhQuzyUrN+EtCmcEyqUWuZGTRsfc1K1m5kbdzl2/b//rTf2fvn7kq5hVzSqBJNzUxZK+dOmn//M9/aP3ZqhVSGq/TgxKm0BQ2TeNqYrGxejj79Cy9jeAVZf0KVq5rrLfStL/81/+3/fqt922lLLGXcqhrrMj41OvD1KdTIvRvgEChkCOUEOoxyznMEQ329/mM9N49ozauMenwoNwRpeUrmfnVqt1aKtv12ws2Pz/v3zrSv4xnCbszoeSsJrkQfn0I/bZL4MRPoFNopJDaIeXr33gxEcGO+Chs8CVuC4j7FtwX3DV5NGKWurtWXcHrFTIXvgS2I3wwdH8pbYcOjPlueLaMMWmQ19izwA78VtgRz7jFtSDZo7FlMcEqs3CyuGW5NFduzNhP/upv7My5z+WmqQ0aCw4MDlkhx4ye6q/3YXgED9bzHTUSPh/QK96VkwB2CtIIW4EBWJ5ACREPIZ3dRI8uUQHRQ2l4C5oWZZlGR/rtB9//rj3x2MM2OqyxTrJmSsi6np9fKVczCLaEQ/ViP2dD+dQlfNV20a7dWrb/8V/+W3v7w4uyfHJPCxqbSpE89eiU/eh7r9l3XjppudaqRqdryltWF/eOOiXCFwRP7UUIab36EFVrcv3qzZwtr7Xt3MVp++v/82f24enLbvGyhaJ/9oMSQABQEF1OiiEtjgLItVCP4BAmq7kmKdcD/TkJ4pAb0aoEbWm9ZmuytmvSDQgWZTDZ1gvEwUc8/4clfNBeYdJ+B3ffIXyiVUjh7KX/pIWAEK5r/TYCzQfJr5cUvBvDeL0diOn3jbEj/jn7o9dfsX17R32/Y56xab3sjMpCeF3CE9eMUnLXLFuUVWDSg8mRrE3fnrefSvg+/OScxg1qn547o/lanjS58mFcxVf5kmUH2hfb2EsnoPcaIF2sb3y2OU0EaBeBDwv+k3/6fXv51HN2cHJc9VBdlFm9VpbQVZLFdQkiPkVbwiGhK8gtqUvT+ESQBHBmoWL/w//yU/vt++d92FCQi46Qv/bik/bjH71pk3v7rC9bk+UTvSR4GdxfauqCh+VD8NRoIZYvCB+zzBK+Rs7uKP//5xdv2y9/+4FdmV50nZLK5n3Sy5UREhN5xhWQgDQJBXqFjyiWelA8pPWZVmRfj5hwJkSOK2qH5+hb1BhupP0D36jAuSc+Ct79Cl/s510B1T1+mNwDusFyMT5p00El0ZWZQBiVqWy5c+7wsZXah/1KC2HC7vO8fHb891xW4zv9g0wgZAEhJpqSrhB9t4Weh15mWxkX1Nu1na4b6iW2K4VjBBibKd5RSRPrFNqE29e9Z5zE1w61mmxJMyvXSuM9YbmRlrVkq3GobzqnvPQ6156n0EHZMJzUkM09BDb8U6/Y1s1hLxIHHSJqCCqmqvp4hrEpdWM8mckx5lM/OCQlq1yO6mirsDg2c8anWcqdSzyTivzqkaE+eQz7/LvHWrWsZ6I675KXp4+5EkdECOmbiP41gfp3XfX77OLntrgYdpZEK4TH4JBULwheQHLqBQQ2PqWNK+WmrVfVd2pDpqDUot+a+mRViOB5zrzjAhrGwr2eE8Lm29X07H4FD1Dxuwe4aDQFAYSJEEJnXqaR4DgJWVrjpUxGWlTCl5UQ5jKDcvkGLZce8DgmWGrKpKrMqjIX5ZoYSEJSk8sksko0U0qbkXZne1TOkd0YuHLE3wvlGZqGRDZ1aEzIhmC5nHmOCg896Qu0yi/LwrusQSppCDN97KBwkuqeLUoM7telOX1vIY3NyToyg5pB3eo91VZK2NsE4yHEzL+EuIQZBOTqLjbPpB3whGpC4rFS90KWQ2BgtrWN78nJ3dxnh6YmbXhkUIJM3XEtlbGq6LPP7pvpHTGp7wQRet+hJHXNzF9ZNMfNRElRUXpv6uB+jWc5mChjfSUmddJh+MBDr23IN0AUwCh4YZLJJ6uqdbt567bdvDkjhSWq6H3o6W8psxSz5Ei95xfz7M0b4LnKUJDTmLrUV5TrzMSVeKfRltJpyzsJypY4iuYcGSqLwPkapAQMGiD44E5DbMHugEqj/3BxXOik8cNJw+IOnyxw0XHCMugPn3eE8RDT/JwQjONDb5MaWg0NFeS7F30Co1gsWl9fn8KSCwwEQ3ExnQ9Bt0NAbNhgKWUHJkZ8UmLq0KTGoKqfym/ILfMtV6qF10uC53sBVUZLlrudZt1RYaZoy+sNO3fhkv3lT/6NXb4+Y0tV1UVKxAWvqTZobIeIQQsmb8IUPGwYgIXtvlLG1wNLEvKC/KM8KKEHmYXNdZYHElfMaxbQid0DnJnJ0sbwUL/vKeVMnPG9I/65VKMuV1P5URe+dE9Lqfl4lFkK/W+Ifrh8TPE35I1grc9fuG7/6if/h3105had6WOoP/3Rd+2PXn3Ojk+NS3FWLK/xXcZEs6b6VVY+pT5ud8Z6qrOQIwDDbC5upzyfTL9dn16Qy/k7+3d/9xtbg+SqQ1WKB+UUlAFeRTtx37vsu3lMzy0xKEsmaEgbz6/hNfgszPryCIFTXVyboIACEh+tH2GMi/f3A9Tt/nL4KkBpMFtCFBZzw6K7eq4zogvsB3nRmoyLmObn48uUOi4nt6ykAVi/BG5woGiHJvfYxNiAGLRgg4ODihu0vn4JoAbnTMPTukhAn5b3kr8YYGQm8/nGjtlANnUj/ExG8FkTQhe+bJcCkPAxzY+lYh0OAQxjv5LNLZXto0/O2v/2v//UZubWbJVDNjWecbNPB4NivLzyQ6D5koAvIPrUNnaODA322Z7RUY039/oX83ybViwVOwqG82syKblFzRXVmUkL2hUEL7hbG9vJmBqLVpT23zMyHL5PFOmZOKpL+PhAmKpkJSAZIb8KlMFUyhLWpV1aKDLVnc0Hq/LRfv/xOfu3f/O3dvb8vLude8cK9k//4x/bC888bmPDeXkeolGLhfuKhBnlJQF04ZMUMc5TXYLwMe+N8EF11gsLdvrTy/aTv/q/7Oxnt9xdROirEFmC58wapIVGdVpJ/N3CF+5dRnTtJ05LqTs/EKU2sbzCPZaOL+XpF9/DmWDv2C7GRX4C7weo3f3l8FWA0nqplVg7BI9Tg31vnhLQHaKsMz2zjwEbYrqcjU8Muzt47PhhCd64TY4P2Uh/mKpnFzra3TUd2lGEAgKNtkcsfwOrqysO+mF/IxYqbKBWHYoFdYaYncG+j1XZ/SIXhvXHlNzTvNxjCd/M3LK9+/5H9i//8ie2tNoypi+aeu7+G40X09E+n70VDvanbXJizI4+NGXH2Vq3d4+EZMQ3lpckdDSFrVhsGqZtuMG5dM0RpRSF7YuEjw0NTOzAsAOckr224u1BP6FwEEyep5ppKYSiBFLOcEHj6KzGpirXz65065e3ZQ2U3n7nQ/vbv/2FXbi4JEVn9sxTD9uf/vD79ujRg1bM6V1mNSV8GdUvK4tmjWj5sHjB8vloA+FLBK/J3Gi5bb9752P7n/7nv7JVSK924u7WJHzUh0mu8BUFFaLuPZD0dwQXFFJEPkhcVxFDUaoL/BD7g2GK+psvV7D6CBzPg/dEGqVKwi5fhfuvC+Ryfzl8BWCfpuscp4G0CDs11ANhZ0SwStgZPAu0MkcXsIo3IKGbOrzPTpw4bseOHbLJAxM2MixLkJeAiPHyfjZHIIrThdCb1gte8j3B32PdSugnFaujsXTe4QpxVdCMYXcOmlrjB/lEdVnxtISu2D9sFfH4Z59ft1/+5i3793/3q3ASmLKVfFKAu8tUBsHDoz3x2CE7+fijLnR79wy7cPhHtSJC3hVJbAttoBW0kxESbh0ftsKMoSOD8EHnBJJXnS5iFiw2iso3qKPlXcGROig8a9EnUjrVhvUPD/s2r6W1dWvJXW4LUTKz88v2d//h7+0DKZfp6YrJSNuP//E/spdPPW/7pQwzsnbWYgdNRcLHGTvyQtp6H+8awVN9Zfuke1Up6iKB9k0ESnfx8i375a/f77icarzimbBqy+0uSAglfFgo6qz/kTK9ENquJ/6QP1wLI1GcGBETiLfqY9/sfp+CtR2ADXYN/JMSCVwmx66TZOpZwEgPdw6vn3m/lFzMdnPdhgdz9ujxSXv1lafsu2++YC+eetwee+yAHTgwYMMjLBjz5XdNLk5N2rqqTuZAJWGb6e31TVj2+Hsh6TgNzV05OoI6YZrUc/xzjei1Dlq1rsE7PylGe1iDYscKCnZxadmuXLkmVyb0OZMeHOiDc80JCqMsuB8dtjdefdy++/rz9vILT9iJRw5prDlkY0M5G+pLWX9eiiUtl9DWEywLdZ9SXb2dYu5mVSgh1Hg4oO4dw3042Yw0SZzaZpx9067r/bpCKRQhIefBUD8+Us3lxOi1hpXLSt+z+6asuOXVsl38/JItLqou4qA9IyW32gNMssii+QlwQuhGD8PIwQpxLXTml9iLH9hJhApIabxclY9589Ydu+ETLYFunoYLctJ7bnV4HdwCPGkELzBcOvi7rqbvRtwFrKAquBuCB+yi8NE4xC2njpUm1PjBz9AXdWDMXEZjDLkqDNQLubqNDGbs4YfG7ZUXn7DvvXnKXnvpKTv+0D4blUBKL8uMcJA+4wkmCGR15NLsDKIKqC0dkFgDXXdsScJExDLrxzUHDiGAHPLjDCtTNzs7bzduTEtYXbn7x6UFUbsEsw6YPXxkr7166kn7R9973V587gk7cnCvDRZTPkmRY69lW8IiQQnWDcse0K+x9I4SfI2nMq28pZuqA6jrTFMKTvGMtQIGa8ZCd5q0CaY0vgLTHqpPmnJvlY7hAD82UpcwsBSBE45lB9fWa3ZrZlZtu2Or8lzZNXJwctLG5R5jrbEc7pJTN1ktmD0e08DEF+BHMGDRdI2i4qe4EPCllXW7dv2W3Zi+7bO+cCeUh4beA56N/ngH8efLIJQZQmF8d0M89YlxCRLsEqh5uwUQi+KC7++f6auhTEfzrZgv6mpcxUeY+/f22wvPPmqvy+K9cuqEXLIpO7R/yIb75WZmOGSHU8vQ3jCkBFhaK9PSWG8HEEGmXuhj7xwYBkSLJx1O/6AkSYHQBcdN1pvBu8Lbd2btugRvfrHuWpuJNhkEkzzZ2KDZU49N2OtSJq+/9LQ9+8Rx2z82YMWMLFBj3YVPoyzsjAQQIQzWqlcIw7XooDwRro7QueAhWBK0BDMeSujaiQA6BmHtFcIgeBzdkLGyBIzzOn0/aLYgN7ol91qKU27n4vKanf70nG+XQyhGR/rskWNHbd/eMfWN+hGXUAoRiviRDsmYiXG8WxSREOFj1jKMekmJa5mxmdvzdunKdYUrilPbcHUVzzWWKRxXqDuXQo+9B/Sm4b0k3ID0YoLbzndnYBeFDxABJXR82Aj3srueHR4cZsrGaTYgHD44aq+/+qz9+Y9/IFfspE2OD4ox1m11ccbKy3OS0VUxWF1Dc1lMCUNWtHJrJYHeGRST4YLQEa6pwaRDkL1o+fS8qTrzzd96uaL7lA0ODtuqBiq///Aj+/zSZZ+IAFibY9b+4D6zN1573H70J2/I6j1jU5PjYv6q1daWrVFeUTvqVmKspzJ9yl+uL1u8HLlXfQK7JthpuxSaBCx8/S0FAkqRcB3Hr6FtupfY+gwzDqYEEgzWTqHGZfz8MS4nO3cyEjw2pGOVsvk+uzO3ZL//6LT99ne/9zaxvLBndI8dfeiIDQ1w7qhoxbg4cTfZa+tWTjTzIyScci59CnlOGRJ+5V/RGPOS3PTZufC1uqdUHQKLBjb1vZWJ9aSo7QE59WBHwL4Idw92Xfgi+LoVMw9iOAbQfXk2HY9r0H7STj17QpZu1PYMFa1P/lpO44estGlOhMuI4WUkhBI8LFWyRhgc2PvHSBK3ZYnVC3sj9URME6yfmEn9xOI5yHt8K7e0vGJnz523M2fOyjW77WmZUyjkU3b82Lh99zuv2KsvnrKHjx71Db0pMVOjyvd0bd8IwCI/pXsJyj/8PoOX3EW1tYP+Jhgsr7OPyuQ6fhwbWaqbJjxz8fVQIiMBYVKDa2Zv+bFIfpOO49lZ5OZLj/VK3c6cu2CfnDmndgaFMqJx96EDB23/xITGiXrXJ6WUXvnyZbsXLKAFzNJ66dwoxIIhXOyooS7zC0tSWFfkLSy7XEG74JLygr8kuaE//DJGbYD4qBf8be8/b7ljx5vZjF7yVrl8M0AP7i6IGskkl/pKPdiqW39JY6DjE/bqS8/YqRee8NO/3PXSmI5JAob7fdmMlZgOVpWz6uOshC/n7lSv0Nw/kpd3mHeCMNGUME3Q5OEJLhcCGMZ7OVtZXbOzZ8/be+//3q5evW4rK01/PjQ84Eewv/D88/bqyy9p3HrEBvvUYHFvvVKWoWA2UGM9lklw0cRxuKgqyWsRJIhr6hfDxIJ14oRer6RuSR393l/vhuEZ9zEMbUbw4jUCiPBhHdlVs7ZetQufX/V1yyvXbnpxLLvt27ffDh+aspGhIcySj/XIlb5FAP0gWiqiWN+7G6pJxUK8ymOdlHHy9M0ZuyZXfZVdzdRV7WMM3TnrBeH2DEIQOsSz6uBmIFkMk9Y6htZuhVvl8s0BLdo9cGqETqlU1+V+ln28x7mOf/zm6/ad116UVZjyL8H5HQbOx0xJQGGDvDqpkM5LEPNyNTWWaYaxDEzKuhFT2DuBcQ1KLKweTcYpdJo62wUCplIUP+hB2Nc/4IJ45cpV+/tf/tI++vCMLIPy0jN2VRw7eszeeONNe+WVV2zq4JQV80Xj4J+GGE4FiVGlQGB2ukKKhLxgPH7gH+ZnssNRFr6ldnfuhWGdTGWl6wqFhEI2LrcJ0zW/bikMzxUmaQI2rJkg162UkH+qBIcU9fX1uxBeunxNbfuNnT1/0VZX9YyqCSb3T9qBAwd8oZrvAv0rC9GHd1ke8R0jEEIQZzydfgpCLBax7d/Z8QM0c4nL6Wtrepa8qneUHwNntHbSB73HVmwFpOyF4EncjSz3RPS4JP1uwK4Kn7ttIqsvUgvZFvbIw8fstddekmV42ib2jqpCYoZa2fo0HuQMS8Y5TY0Ra2sVa1Y07mlmNdYrOaaaMKk6KTLPDmEQPrQknaECHOiZcOeogutiuJmZGQnch/bW22/b6TOf+0+HoaSHh/I2NTVlz8vivXDqlB2YPGh1CRynahU0jhocGHbkXBOMAlPuWJy0FExH6CRwjlI5AcNidMBE+FyIJFQZjZvTYLhu+n24RghbGQQPVHxy3fSwe09e0mi+hkkj2dT82YWL9ru33rEPP/rEFhalEBWPNWQddnzvhI1pzOe9qgfxKEA6hTjfFKDELngiik+0wANChIm8GP/Pzs/70kWFnQhqk7vAbvG6gFLyFxLvI+462Qyhz7aG+AyE8cHeOHA3gfJ3CZxlpV2C380PaLCo/NKLz9kpCd6o3LPK+opcsTVfK2L/I+t+fMOHjmvLzwGZjeQTFWbv+BF7Jj58t0QaC7Az6DNzKtP7m7LpbBhC6K4Z1yJduVq33/zubfvZL35pn5z+zH9cUt6j88jk5IS98Z3X7cknT1q/3Ey+PfNJB7lS0cpxehcuFxvLaWU4OEh1cFcaQUssXAcToRNynAQuZFP1bSZWLGDvtRBrtjlecbzHdXg/hmwWqNvK2rr/OMjPf/4r+9d/9Tf20UdnfOwHv6MokM19+0ZsfHzct7oFiyeBZIuaLqKVC6cU4DqK0RC+juvItXpXzyqSOIT8ltxO90z9cU9akAwo3FmI/BXE+x4gdQy3QmCr+M24WwBfb3mMxJdXqPdJIJIfwaYw/CNWQkJ8gtiMPLtC5CblMw07uH/MXj71tD339GM2dWCviFuxWnlZ7zTcFW1rLOSfpGgAwSxZjePUWUfSfVPCJhviW0LlpQgVz9Yt9lYK4zEKmxHrYdtAPoptZXJWk+vXYLN0pmTNbL+u+2ylmrabc2W7NL1gZy/eML43++zSrC3J4omnJBgciJu2Z55+XGO8Z218rGRFWZ+srQtZTqmJecU1uLftuoZ+apfe413/oU9xFko/Cn0qxzEZEkoJbh2mzsrdxs2DH5WGmUg2dLdTqjNtTBf8GrQYaqScSvGJVl48rPYwu6k4U1wqXfRrPnOqNtJ2e6Fqn3x2wz767Jr94q0P7OPzsxqHBWvYlrJQta1Prz/52DF79uSjtn/vsNoji2k1GW4JNIpQ/9i9wonQKCqsOWek4Er7VjJZePqCIz9WV2t27dotO336nK2rHJ/3oJ0ImC43AnyUCCVru/4vxCSxrgRcgLlJQqcv98oweqvkTdreMriOuBuwLeEDYrjxSWwyOyJyutK1ag5BmLdjROYnlKHpRNUiM5fqoIFSxp5/9oS9cuoZ/+09ptubNSxew7db+SSoNDDshfAxA1Hhl2j7Sz5LXmvKDdXzfJ/GTyqpLsZxwULIsIiMj1poVkIh98ImZz56/Bcjhyc1xdA1KZOyOrisdzh7q9zM21LZ7PL0or1/+nP79duf2K/e+r1dubHknzhh8dDItP/U8w/biy+ctIOTIzIVSzZQbGkcyx6RuqxdRcwgpeIYGANL679Bp6ZmCxIOZcOXBC2m4gsSNNFxrVq1isaKfF3AF93lWt13hBgH/6jNDdqnsIMSMNDPuGRrlwSv0charY51xc3FjcXlzciCt2x+ad3uzK3Ymc9v2b//1fv2i7c/tOk7614XGLdVV31VHGI7KLl97dSz9sixKd+FhODFYyGCF0LPSYCkwBwlfBnVk8+g+Oodaw6dM5miBLsq133Opq/P2LIIjEsbxtn4FoG7gvIOgueiJiaAv0DSkKMjrCKMwrbhXunI1teUdYdC97VGRVIakHTfroHXKVx2gciId1es9ykIMACG+9Q70nbhCcwGAdgtgY/Oli1pzT6++5qwN994zZ575gkbHx3wRWS2lHGCFr+Sg1PHLKhv9MXH0Yv8RDAfzXKGB9u4MBW5Qr+eD8hVyvnHl+tra37uhp+zidZVeX5cA1QXujujuC8DxlEcOSgjoMrnJPRNm5tfsRvTd/x3uq/fuC23rKKxitw06qdSwpftYZ3ykaN77DuvPm/PPPmw/wQYFp3+zok+MAt16x370DjVTEIQXLSUVDO/yqpb3zcaXNyUrVdqYtR1dwmrfpao6CQLkue4t3u2SuXzBa6SQRdmHjkMqLxelsu3YDdv3bKrV67Y7NycLcuyNzJ9Nsf4TsLtSlT1ZOsZ9go1NzZSsP/8L/7cTp44aqO6TqWgA7OU+CFdPkEkREQpXoUgxIXhSa1+LPUPupt98dJV+w8/+3t7+91PbHEleDPkIRJ42MUgZuQdcg4xEmn/24FAVo/rxOsCNnBBdI0XaM5+0fijKEmyjXl9g0A17yorqfuGh91K9T5N0JkIYgh1DUGYUOHeNRSuo4SJxh86MGgvSWu+9sqLdvCAxgx5PWvwM738SIiyYt1PackDojiTiiEj4dk7yWCcM0M477LSzNniat1uzdyR+3LVbt++7b+hXkPNOoQ1JcLA7F8OnlIVpzsxLIx1yhXGQTVbXqnY2jrtwJWS+0fTsVhN7G/b9gxn7E9/8IY9L1f60OSo9RXUdjEkv3XAkgint4XFeSkGhf5hLkIhGsKMMADClsvLHZTFYGvX3MKiXZ++5b+MemduweYX+ZUejYddmCQoPqHhVf9SiIcAuVLCqlIPvcvX2mtSWkuyfOvr4YvutjwUyIdd8f6jri58jDo13hvvt//qv/wLjdknbbCfZQkUK30lyxeKE0Br9RnEFI34hV/qwKI6wseHxizgc78on/30p+ft408+tfMXLqmdQZhc+JRN6D2QPIOyYhMBnz6xMd9wexF80oYkIX0M9YcQzuQkO9rGWLNe5+eoS6SQ91R3hUa63QKqeld5Sf03PCQM171PhQiHmAALExdXGYD7L4sqRZjhFKgD2Dr29JPH7fvfe8OeOvm4f7vGoa1t/43smhX5jFwupXcU1lIdjnZnZoyjBVj05fMdGBMrOL+8Zuc+v2GfXQ3Mye+Kz83PiZmk2WEe+l2Vjqhqbg9UYeSVaW+MLNddLYwrnVXeLBEoaUsdxsxtKW3HH5q0/+yf/RM7zoGyRbVb1pwvL/gIl4kWWBlacRQBeeIt5OVCinRqVzI5QXvFkFg6NhmfPX9BDPm53Z6dt6WVVQm/aKB6IXvUR3IYGO5eoMRef4SLC+ruD8I9lpZ6aFgnt5s4WDX5pwdBRfDNvfn5LP/tf/1f2FG1s7+P/k+ED5vFYM1LUu4Int7nA+gm+3DlarMuyuJ6ucqvB8lrYJFd6ZbUlzN35uzKles2O7+od4Ky9WWXzrUEzztRdfP9q2yP03MXPilFF8DE/aUW4j3eC0s0GpLI9eUUgCtXbtm169fFJxpHwJ8Jr6HUdhOgP/XcAERGjA8jSTc+FVL5HuGDIeXX8Mdyiqf5NIzog9KY33nlWfuT773pR45zQhYH9sCkzG4WfI8nwtd0axl+JSZo+PgLoQiha0/FXbh03f76b39ub3/4qZ6F4xW8klRLgWS2w1QAwrgtSNJH4LYrgN1ppMAasghyU/mo9+VTT9k/+Y++Z2PDRTGF3DZZdH6OmN/eYy+r9I9bu4oYj2qyfQvhq8nEet5iSrZayROTK3bF3v/gY3v7vQ9s+mbZjzwA4D3axPteLzV0O8LnAgcCCX16IT5CXvA0KEPN8kIQuDwFyytBoe4bLdp/99/8Czt+dL8N9EEHCZ8LoJjfc0JMKIHK6T0NJ9IZlIYEUH3K1+P0yarcXkLOjkGZ6spdbV92ceoG4YkYah0tX7KPVeO/cCBTInRMZKk80vjstPJkDMx5QCmNMadvztvPfv5re/ud92RxV/yYjyRb90iUcNeAFt0nMGCNPYvFY6xFr4lcapDk0Z8ADx0+oEH6YTGnxmoSPF9El9XwIxl8eisIsP/umjot44P1MIHCGf2cpJzLD6iDsnLF5uyDj87a5WszJo/JJz3gEik3yxT1bklioWxgB2QShIG3g2h/mBVh5aeJcxJ2tlxRAELHwnhBDNPPQaNqazGf9V/jOXniMevnV1DZSiWuYqwkv9BdU9y2wErKV9FsOuYkLCxM6HMpFTGHpfM2fWvWPvj9p/bOex/btRtlq+o5INl0QctwshbegDKjrttB1CHfE2LV1ABL5WRh+Uqf8yqY4WLzqefPaF0gAsTJCO67gsAjpZHVcoHeAN1UvqUL1DXD9pLoQj9LIzkWNcYYKOVd4TLDnWaowUywBNyPpxfm1Gt84ZF3rDryRQthoV1RGJF4Pr0i5F3yYHMG3peEEV6TAuQ7xvm523bjxnW7pXHu2vqaaC+PQ/UEVdldBbriPkAV9t4I3YPLEeofeoWuQxApZKCUkqY8bEcO7jOO4XOLJ2Lzu9wc2No5xkBM6TOnaC0YU1zDN3O4WvzABcd7z82v2geydm+/+5FNzyz4V9Z1acuasNLQeEKSti5p5Bqmg9lgMBj3nqjkTPLA4MzIYU3BsBYHo7B5WUysyFpFbVD7RoeH7PChSTt88IALGcskTMIUKFPXzVpVzBo+0nTmFIMzdY8A0ue+hUqSxRhzYWnN3nv/Y/v4zHm5mivOEBwrwRflNUlOrZkxTnJGAYlyEkAGyttA0qFAdM1x+/z2BPmEvORZKF8/Jl91wUUOoMId8TyCSgVxkZdXVmWxUW1JGr3n//SqI+1U6OeKypqxo8d/BJN+VadCP9LlpOHyQujVrMl9kZD4t4US0IwEMitkiyEhmGO7IfcaruRaZcUlKGH07xv5FEvPwydXyfEcYkD4i7XW69eu2YKGJq7wVH6pr+R9TY39fBias0twn8IHqAW0QiGKHu8EoA0+uFcjOXflwOQ+Ozy13/bskdWTdsJVyeCOyFXAXfHf4cZOydchD/xwNi3z1QBjAxiTH/5Yq9Tt2s3b9vuPP7WrNzS+KyPgegHCOYNBSN2THQhje208UyGV/HLEXeEIdHgQdzO0DuAvlh23RnWlcxUzMT5i/O746DALzpJUOl5iz6/X+qFPYpqwdCJVoLi4zAD3seGYTMiZo/yu3bhpZ86dt2vT0sx444rnYGD/LQQlxBNAiDhCkTq6+fP23QuTdJ5eiBkVrdhbGQSUSgidZqoNFYQeeod/tDrSgZ09t27f8eMHg50jT8StWx7/AP+LoFdIxZcPfRKCvNUryrMuYdfYLdWWVeS0ujYoL0MuJVsIHVvyPIRZKRs20kfMqSJSIxraSBjBaO3kgrJk5cOBpHboXvbQzt6escuXLtnCwkKol/4wcRUW9EP7dhModQcgdEuYPg8xWLHYWfwg/bFjD9nExB65aNKgjTW5ANJIGblnYtSmxkYyEc6gTWFc86rLWvhP94pKzHBylMCCNC6/WnP+4uVwopWXB6PIFRMhGQ8yIeNCCIOBPKciLnxJ3Jcg4xC0O3YKbehLAxSjTCQuuubDX41pZbH1hlzOMT98lo+C2R7HMgkHPrWaLKonmwUYQPk1wqdiJIDk1ZCGx9KyW4VlhM+vXJFLPaNrV0XuTq/IwlZRZGpjivNJWV5Q+yLTB5N9D4RQURmRjwQ4kxGjC8O4OhHAJM8NZ+CEGP1jvIvwNcMmaI3ZAntL8PzdHgHUS37Fy1jWut5vy01vyXup56xRlWg0NBZrqB119Z3Gb/l0nwSp5AIYMZcIYU4eTxclfMo2JyHDzXT3VELn6ALIGTKhj3wZSJUpy8W8dOmiXb16xTfBx2qi/Hwpigq7B7d7AMXuH5JOImB7ET4+kx3EwmicujU1ddD6+0T4Juc9Svj4BaIMM3xVq9bWFdbUqaxfVRWKefWPn7Ni8pcJADJkfW9+adluz82ZvDPLadzAj6kEadE7shxNMWqbuWTiVKGUXAo/5kHoZmw7yHsqD+ZDOBpSDIkKEMHUoRIcLDVCmBPPTkyM2N6xIRkMWXN+0kxCxunP1eqa8pD7qXpmZf1dcPUuSGc3pWQaQoQPmVgVg/BbcKtqAxaPVLBDcFZVFzFJRS5suSr3THRmPBoASt8DCfgDo7GkUZfSUz4NYUt5SgOGtnupUgy4z7zid/SjxrkFjmTktxTMZ5fXyxpLYWOksAKLR6S+4Zoy2ZzNLwSpx6xRVzukUdiJlM/3i47iCRVdlUcTJ6VQFC4HjCudAEq/CX1Sj/GjaI5SQ+Fxz5H7MWQSkHbQ9Fq1JsG75stQlAdLoWDK60yM6d2Eh3cT7kP4ko4ScwWlF64ZGcD3TNHTnmIp6ydwTcrtLPID+5m2iK7xTUMMJsuQFhMHl1uaSgyakjVhlwT5cJ2WcKWEmYJcFRHy2vS0XRGD4n1xngjrXM5QsT6OqgC9BvHlIvFb5/wgiacj/suQd9GG6kAEzr1ZtY9f1OEZ9aINCCDddezYXpuU5RsYyPt3e/z6TkaKJc3vHZBWbeBA2porlSqG1aq6rkg4sew+zS26cfjvrdk7cqc/8oODmBzpGCtKdvom9RM2mjArbdI9DHcvhFkJk/fvajfYKQ2mJz33IYaJiYqUWljuMT9n5cKlK3ZT7iddgAAyNkc9MYuLO8sxFMxSh7U9xpnqUxGUGV4/8xQhEhWZ1YaaPsHjfRmBa4Qn1q2LCBXtD30jflM/N6CnnvpbKousWBZibHrr5i177933bXWV9UjeQcCVl/NE8tKGsr95uA/h64IvGEt703BvhS4gCow7NDhgRx46bPv3j1tBwufMKevAWKiFxtI9jKru1TMRAwFG+ITB6mD9dC1iL6+t2a07t2X5Zp050cDQCz3bmV3bgOo4mEiang9XA5PphXuhd3AIYSfqiChFIBv6De155PB+KZcBaXbqrY7VOBbhZFznwiKMQoyl5iDaTE60YiCiNOyFxOotra7Y9MxNuz0v4XRmDgLIMKzteSUYr91Nh9mCRd4pjAIX6EBZqoSeQAH6IBnt+nj0/MVLdvHyVVeChdKA2sbOHDYMQC1ZQwmk32PByEPCRsgp37ixbH7gPpShNqtM/5f0A/+og4dJXAepq9M3uab+yseRt4gmVhdrcjNvy1LPzKzKIwnxnWyA0MRdhx0QPloh6+VumhorriSEMYGh4UE7evQhGx4Z9vUdNCDaMYQMi8N9/GrAP/bElEpjIVys+/h0ucI7c/O+2Ly8uu7aV6/52NJpJ0reC2msp90GBiang1AUoZeoFu3yWz3j16WmDh+ywaFBZ5CaXF+m6qXqJTBZtYWJbml4jVH4qeFcoc/bxLpWRu4baZhMod2zCwu+k4VmRYtHiGCGClFoYDKUQbzeLDz3j5shiACVgIIRqQHnrXx6/nObmV1QO9SXaX4gRq5cDWWpNmfUxpRGZIyfUUJSTmD4xjC5VgiGry56Ucq5E8pz6Xz2FFFKixlp0bghZDN8Olf0DfHhtwwZx6psaYr5hRW7fWfOr2kL+iXomA5xA8BMuwhfUfi2qpyao2gsH8dwy/q7VZCL7Y1lsmV8Yq+7BT6DLYYDfYp803UM2Txc7Ou3kjAnF4VdEWwmnr4148K3Lq0LE2M94HXkhIbcC6n9VvG92Glh4LjQWUIseV7DRvamFgpmw8Nmxx9+yB5+5JgUy5AEsiV3ksVzJ4a3hQkS2XlnRGYr2Rg9z8JutW41EcN/hVVpmMnl54uv3Jh2YXPh61QkAbd8cEyCEkCExR/tMDp4+2Pr+ev+hUpMlKXiZubKdvrsZ/bOBx/b6XMXbW55jekOCUVRQwSFGfptwPIiWpvZbM7/CMcQJNeE3KstMS6Jbyfp2qDiwJauIyp7PZfygsYImpRZWsoNweOnvFnwTWuc2ZD7cPvOgl27MeMKO6GeK1RsJJNpoYm4v4nF2CWA374idLpHEDoG2Oyvk2piot+PUDhy5LANyP1kVs0tgTB8lxYsg3+fhhVEewpxWxaX162mkI3NK+sV337EVquZO7M+xnAmhXmTsnYU9UfK1DFGYu1Y76tUNHiXYimVOMj3kI2MjqpdYTKIzd8IEl8bVOvhFGvW5ioNWQsxQ740KKNYkn4pyvqVxJj9Vuwfsjvzy3b5+rQEcEV0CMyxoUIbgBYH9HrqaicRiGEoJ0AQvo0eC3W9Nbtkb7/3of36rXc1Hr8tRZO10uCo/6wzv1vBLzBVRZswguYfSlhI2MHwl6/y+Vws/C674uK9BHczyl4ae2qqsrQ11YeFhorKYn2XMhFC+GpxuWw3bt3x4w67rQmtdXaNkW4Ouyl2A76G8AE9tZbm8N8s05gq8c46sH//Pjt48IAflgRjskDespLelIZSGK4J5S6AKZBv0Nhw26cx4rAs36CELSOhwy27IyGUC0I54jw/cDURwO0gsFV8LwKha8IYNjI4D7HocaZsz569dvzYI9bfN6g00vK4WWyvUf2bbaG3Rxo/1a+wJAbM+ha4WjMrQZW1a8IcBcfLV27Z9RuzxvHo7mb2QqwU0HPtwz6FoGvyHcII3vbeshWz0fKhODX2K5tdv7Xgv0H4wcdn7cxnn9u1m2pLRaNErE++JAtF/0aFi1uYFyahXNWITWY+CaGhnn0pKm0rI8sm17ah9HXFhb0tcjml4Pi9jGojJZd40XcMzS+uhn50CEqENsW+BTvHye8SfE3hEyS9E8ZBDKxFbDUA90xDHgmO2aFDh2xycr8SMh6SbmuhMbtCFwUv/BYfKMETWlpWIS8rkeuXYPe5C3v5yk1bXFr3jcQUigXxjzPFrRt45EtgO+lCP6hxdIb6wpvZ7TWHfrme+/ZN2tTUEbnEqq8Ykd03WdU3lUHg2CbWJws3ICZQXFYKpJW3clV1lSBy3WjlRJOMra417fzFa3aTnTqJRQ8cQR3ongS7D4IH6ldeTdFw55BiuiWFsrp3oS7R+jE2ly6yNSmVq9NL9t6Hp+2Xv33Xfvv2+3bu4lWbFcPze3jspnGhk3D4l/mJ4LWFUQD9I2AECsHCdfRQdNKzrbAperfz/f6hc13vBcFTPngWedFdnkVZ3sctKW2OPETx+SSX6h3a4U6nE9DbKPSxvbd3d4Ca3PUxbSR+JHkXemI7D8MuDRjVx0Vyt0ulrP9A4muvvmqPP/6Y9ZVKihfh1bg2HSGmQmjcahEK+fQkxKtDcSUkZOvrde+86Zk5+81b79v1m3f8dxGYyu7rH5b7p66XxMMO3bp9EW6frsHF0jvKOwqe56IMWFrbN7HHHnv0UXvixAmVTd1VB1k/jsHDCvLrS8z2YQnDmSw5uaasa5Wsv39EQllyL2BN1uH23LL9/O9/Z1ev31KbVYAXSLdEJukRPB6HK0faEx/tGBLEsPO3tz6A4vjvs10t9ZlPKNviYs1uqo9u3LhsC/OLfnI3XwowCcdab9s9FSnM+IFz50NnCaOHvYhiVag0zS2Qd/hBmuDay0VVH7Q11uaLECa0eJetemfPfW4XL123+YU18Y2EVnzqfdNpHSFqZ/eBkunDDUBkxPjQO7o3loAYFnuz8rll2egLlAuPiuK5Z58+6et7YV+jGBQB5VVJKrqwizgwSUmuhrAk/AgJGRZsbnHNB/XLEkaIjZXhQ1o+zTHWCllovSfEWbt7g+/xU2P8N+poEJpF/2kXLDi+t+T7VB85fszKa6tyRdm5IiMnD6CzfhRBhfI1Pxt7/ZhAZm2YkVNOjFFWKw179/cf2+zCsqig91kTc786vBv+CKmDwrBBG0yWIvwK3AlQOaJ/sAu6o1jdtcXoKBC1UAiQTn2WbopWbA1sWo7lFb2r4Zx3Ib9LMdBXtNGhERsbHRIOKifaoP6DRlwRqqBQ+86FP4vg7dsinnfZk8lWt0aydS/LjgclZg8pSnxlpWJnz160O3eW3XvK4YrKvQjCxyKSeoF+bktBiK4x/95yvkmgWXeVRWTE3gptJXyEMCi73GFAjxaN2Si/d6xoRRbH6xx/LhshbeQnKTvz9CIzd6EE0Ds8FQiI8Ln7INcB5rRk578/8+RVKV+Er4fhvwBIHv9+GfgMmBqCEIVLhSgPHur1of6MDQ3yK0k5q9cqEhb8RVVLBHBNiulwa662KB6hhPFSTToZDY3bxV7+jE8YLKys+5HsCKQX6FWEklyoXWTidYBWYcQFveqUE8vbMWh6O710FbtR+ECBF6c2pyRpLoBifCH2HsGL6/rkwwfSfFTcVyj4M17mH5cobg89utsGt+aESTq/7j52YB0Yq8vkje8cUuYYAaxsAFnIZtrm58u+tsdie0Z8w0+N6c5zRvw49AnhY1sj7eVpLPObBpq0ZVk82PwwXEcqJE96iILwOegR12wz45p1blxS6AWQLCbtvY5AzpEIEZWFwnTY1yjCcvalZ4qqFfE257EVQO6vCvCEo5euHFSxfC7lWh7DSxM3Q9LsTmncs7MemvCtHvG0LyKHIpE7Bg/XPFAE7M1FKcUd1CMiKmtnBQ9AsLulcxXPEN3QWpckNcY7NekdvYSjQEife+MEvBXz/CLgWWxphN77u4QP1J8Yj86CHZA94olm7oGlLxLzUTZCF3bVyBAoAWu4CCxb0cJPYwdlSYrdgK3a3IEvfdgDm/t/062DxyWZbX6+VfpYbjcUE3hBgfU6ALViL+8g4NYE6K1BF+J1qNH24O4cQ66b2xV2ePiV3wfovrUxn+2Wvl3oLTMCZUQRiqB0fkt6bwU3Dr2puI74VWCrWmwAZXjPNAk4OT1xrEUMYw4h3G5+OwXU4r7L7DLq7kPv2uJOwnbb9E20ves6/WHDV2n7t80j3xSf3A/0+BEP4AE8gN2EB8L3AB7AtwT4Ag/czi3g/4tt2mn4Nmn0VeAPlZ4PLN8DeADfEjywfF8A223TPxQr9U3AV+n3/z/TaWsw+38BBYop3d6YRzoAAAAASUVORK5CYII=;" vertex="1" parent="1">
                    <mxGeometry x="498.5" y="442.82" width="71.5" height="24.37" as="geometry"/>
                </mxCell>
                <mxCell id="28" value="" style="shape=image;verticalLabelPosition=bottom;labelBackgroundColor=default;verticalAlign=top;aspect=fixed;imageAspect=0;image=data:image/png,iVBORw0KGgoAAAANSUhEUgAAAPcAAAEtCAYAAADUXvauAAAAAXNSR0IArs4c6QAAAARnQU1BAACxjwv8YQUAAAAJcEhZcwAADsMAAA7DAcdvqGQAAOU1SURBVHhe7F0HgFxV2T3TZ7b3ze6m995JJ/TeexUQEVBRFET8RQRBRKWJIoiCCkjvvQcIJCG99152N9v77vT5z7lvJgmYQDZsSNk9yduZefW+e7/zlVttMQId6EAHDjrY458d6EAHDjJ0kLsDHThI0UHuDnTgIEUHuTvQgYMUHeTuQAcOUnSQuwMdOEjRQe4OdOAgRUc7936KSCQCm80GFY8+hS9/DwQCaGpqMucKOpaUlGS2xO9oNAq73dLhic8OtA90kHs/RYLcImfic+3atdi8eTNWrFiB8vJylJWVYf369WhpaTFkd7lc6Nq1K/r27YtRo0Zh0qRJ8Pl85nptHeRuX+gg934KkVlFU1NTg+effx4vvviiIbcsdUNDA/x+vyHsziCSp6WloXv37rjyyitx7rnnGmuu/R1oP+gg915EKBY2n6Kg3eakLx3lZv3WZ4z/7DY7SRwlWQNobm5EKBxBMBTi92a88soruOeee1BZVW0u0HVulwMOGmCXwwmX041kkjY5KRkOh8Nc09DYgCa668FgEBE9jwpgwMCBuPnmm9GrZ194vR5zjcfj5eZCamoqnCS97i1RsMWlweiNDkt/QKOD3HsRsbj11SaX2CIQ0NDUaKxwRUWFcbGrqqrM93V0sevr61FfV4fa6hqUV5SbezidTmRnZdIapyIjLQVJdLVTkpPg5X6jJOIWXPT3k9irNm7Bxk2bDMGNdY+XcJRkl/Xu1KkTCgoKkJubi/79+6NTYSEGDx6Mfn36GrdeiVQ6Hc4Och/I6CD3XkQsYmWt4uNZs2fi889nYvbsWdhSXGxIHKKFriOREySknSWoCEhSFgy8bjc6FxWhW+cCEjrJkNzOsxLuuM14BjZzRYAWf+PGTdi8pRh1wQAi4bC5j3UeN7vNWHIZc+3WLaLxkne4PEhPS0d6ejr69euHs888C6eedipycrKsEzpwQKKD3G0AxcdCIitFWFV8vfXWO3jl1VewYOF8BGlRE7DzNHLNkFXutJ2bi9+jtO5NdKtd/N05vwB9+/SGj260I077hMtsfYlxL6nOr410x+fMnY9AMMR78Z4uu3HbVZmWlZmFlJRk+OiGwx6lIqHLz3i9oaER1fQOGhob+Tu0Le1SHAoX5OqffsZp+MEPfoD8/HxzL6/Xa2L5RMWcrjHnxz87Kuz2L3SQuw2QqNluJFHefPNNvPTSS3jvvfdQTwLJdoouLrq4qSSZYt70pBS4PW7+TmXc6zGk0YkLFi/hfYBe3bsjh264rv0quvCp5jNMq13fQKXgcsPr85LYtPw6xv9y65U2wU6lEIspNTbUidw1NQwJqlFcVs570AsQUc2Z/GuusRkFJHLLjdc2kPG7tgkTJhgXXvfedv8Ocu9X6CB3G0DEWLhwIX7xi19g3rx5huSy5l6SLZ9xbWGnPKQmJ8PjolWlyXa5rVprZb0Ioc8tW7YgSJIW0Q13Ox0kjJxtnUNXWpVxX0CchLHINvLrHiKZ9jtENn6RGy53XPvMfpl5HbPRjQ9FjBWP8rog96sSryXgN2mvp/fQUM+tqVm3NvdNNMkJqoQT4Y8//nj87Gc/MyQ3dQrx4x3YP9BB7tYgEaSSMKFwyJAkzM8pH36MH159FYpLthiyqbKra5cu6NW5cKfNTzSe213sRPbvETFIOP6Vmx9jWiKkcEz+fthy47+pJQ2GwmgmwZubmkj4JlTV1aKhuQnNwbCpL5DGyMzMxC2/+Q2+c/FFSMvKsgjOfFK4sWN+deDbRwe5WwMJa1xQZcmCoSAe/de/cevNv0FNdTXdaxdd6m7o2rnIuN8Ok7OJ7N0u4IlvOqLsb25ppjvto8VtLRktcttitP78J0pra6yvY5ydSi+B9/sG1jShhCQhdt5H9YPNtO41dfUoKy9HeXkF/IEgnAwtTjzxRNx8yy0YTJddMOQWdsizDny76CD3HkK9wh555BHceuutqK+pRXpaMoYNGYSsjHQ4SDQ5w7RfPFPs4McOJBPpo/xtiEhir1mzGv369UWSm7F3q6A7JJrY+Dwqhw0bN6KooBPcbrfFym9A7ij/WeomcQ++FR+pW0ZJ2vrmFqxYvRrFpVvpMdhNc9rf/vY3jBs3bju5O7DP0EHuViAcCRuiql36zjvvxN///nfTjJWZ5MOI4cOQTRfVNFVpY7ZGbDsXcDuJIXJHSMaVq1ZxTxR9+vSCaxfn7xJ8homH+VUGUnG7arXzcrKt498YjPf1IROuD8XdfEMnLbH26x0Ur69asxZr1683zXE9e/bEQw89hIkTJ5rKQqWvo6Jt36Aj11sBG4V06bJluPzyy/HXv/7VVKRlpmdg5NAhyCGxjQWVdRO9v8LFFlfU8aSp2Y+Skq3Iy80jYVpfFHqeiK3Yv7yiwvRQy8jI1J42gYgsEZFVrmfcvX7TZvMZU6274XvM1Mz3690DQwb0Nc1t69etwwUXXGCU3+Ytmy3l0IF9gg5ytwKyjD+59id4//33JddI8noxdOhQ5GRl8HeEm0RZ5Jb9/nIN93bIYRe5V9MdT0pONgrCJtPbalhNXrV1tVixcgXy8zvB5WzD/uPUHOFQGKvoei9asgzJaelIYiwflrdgFBRTQD9dHdm6dy7E6NGjkZaaZvrD33XXXTj3vPPx4ZQP4zfrwLeNDnJ/DdSGLQtdXV1tBmFMnfqp+e1mzvXv3hWdUj2GqCYQNVXgsqWy3dYwzJ3BHrOjpq4OWyvL0LNHN6u+SVsroUuaGBbMWbIE6ZnZyMxIYxKC1sFWwLLCFtT0pjtHmfyt9fWYOW++6fByyKgRyM/OgMseMbXzelWrxl/qxU7X24mC9BRM5Hmd83LpwocxZ85sHH/CCfjhNT/GWlp01bArPxODYjqwd9FB7q+BhFBtvzfccAPef/ddCrfDtCPn5+ehc+ciynbrWSnaq0uqz+tDTna2iUv36D6RmNWH3B9Av7594vqh9fexG6JZZIsx7q+ne79kxQosW7wYRYWFGDFsGDxmcIn+fRViSE72YtTI4Rg2aCCy01JhI5n/+fDfcc7ZZ+Oxxx4zY9BFbm0d2LvoqFD7GsjSPPnkk7jmmmvgb25Ct65dkZ6aik65uUj2uZWBrSZmiz9EizgX3bp1QY/OXWjsI5aL20pi+ltCmD5nFrLzsjG43wAGAnT39yA9DoYUqtxTPUFVbR0WLFpk6hfGDB2GFIYNdrkW6hDDc7WpIm3niFt9vQlPUZ3ChvXrsWLDRqM7klJScPLJp+C+++5DNpWaer91YO+hw3LvBAnLIqKoZlwWR9Y71edDv1490bNbZxLbY1GxFURK6NHa+kZT+ZWdmUXlQCrwHomRXa1BXWOTGWHWubDINL8JphNLK6H4WSF/eWU1Zs2eS4/CizEmfk6xiM17m8Es5o2/7v5WjYNc9hSvB0MGDsDECROQkZGOFirH5559Ftdee60JcxL53GHF9w46yL0LiIgSunWMFWfNmmWac/rT9U2m4Nu532ryEqF2j0y6n8VfutJbtiAjKwsejzsevyZqn1uH4q1lSE1Lh09NTmaPRfDWQm9TWV2LhQuXIDU5BUMGDECKRxVzup91T6MA4tuusJ382lTvwE++WzgUNOFHbk4u98TMOPW7777HeEWCCUs60OboIPdOIGHTptFd1113nemwojHQhZ0KLEtrBNcS+t2lkyXANlOptLWinFYx1Yz+ErWMmdsDVFRVIiM9HW6Xk3e20rUnd2oJhrB81WpKgx3DGV+nk+BuU7GW2Pie4ml82xVsPJgguJwUnRsigZcsWogNG9ajtrbGuOLKg7888ADeeecdky8Jj6YDbYsOcu8EtkgMTU3NuOban2LGzM9NW27/nl3hMGZWQiu7rS6fEuVdC6ZOt2C5qZLhyroGsycjJZkxctTEuurs4thd15Q3EX1k9RqaGuBxu61uqzErTV/BPaYncTRBWitGX7lxC8OOBhwydBAyfPQmuN/qgCPxsEQkUTv+VXpIVj1xOGGNReac7E6M4V3whyPcwnymzVQC/ubWW1DJsGcbFBvsUZNgB3aGDnLvBMFIGE8+9STeeP01Q5a87Bzjrn4zWKTU/Gfq86241miKPYDEXzG7CCRyG62xG/jyWbL1ldU12LR+g1VRmJ5m9ksHWKltG4yg0hg1dAgK83JMS4PxMpjm1avX0EV/eXvMvQf1BR3YNTrIvRNs3LIJf77/z2hqbISTwpjHeNHzDTuHJGx8fV09vV+H6fu9R060sYi0rLTcquxqTR/ubYabxW6jZRapVpFgbqfdkNuqPGt7uGxRFHXKwehhQzF6+BAkeekdcF8z8/fVV1414c82dBC8zdBB7jjknmpTX/E/3HEnVq9cCRcFLYvWLDUlBZH4MMpvAllazVrqcNjNBA1WfNpKMI26zu1yWell/Nqavtt6ojYRu6KqGjX19eje2ar914EdXeu2gvSRavN9dNG7FRZg3CGjkJ2Rblz2KVOmmNg7THfddHAxsX4H2gId5I5Dwq7t3XffxZNPPmXi5X59emP0yBFmokJ/cPs0SXsCWWmR0bK4dthJcP3eE+gqX1IS3egM0ykkknBrvwaJp1lxsw21tXUIMcbt3rWLFU+bM9qeXIm2BfMMPk8Kc/TIochMTzfTT6mD0NKlS5WAjpC7DdFB7h2gWvE//vGPiIbCyMnKQueiAuOqhiOhNnEXE3eQBTcVTntyS+OWW/fo27cPGjTRIr2N3cIXasP0XlGkZ2QiyTSlkX7xe7c1otsq5/RXJI8ihcpp4MBB8Hq8KNtahptuugkBM1GkOa0DbYAOcschwf7kk0/MVMNR5kpnTY1EoQ/QXWzyB0zs3VpE7LJXtFuaTIGb6QXmoH2M0v3UEdVyE6aXmymKxEYry8dZo69kSa3N/DZ3dPBeLhRkpiPZ40ZdQxOfJdrETG8z80xtvK1VY69n6ahlm/nB9+W5/ExL9VmxONOiWuztIrGjIvgiEm3d2+9vpVfhws7/qT1bw1yta01fdH7JS/agV9dCQ+hpMz/HO/SavqB/OvCNkCjJdg9ZbbnkGtHkJanzctXhAmaaIcWGdjFhjxC/TkLNze10GTda84t/lVduEYc04Kb+3ioqKQE7wnAiCHeshWlyo3uPPgwbqkkd0dnJezIW54NE7+1IkF0qhTfWp+7F0MDjZqzdSlgqgtv/MHG7IvriZpE/AXM1f8sr0pxxyUle1DPf1Xutjp5IB9oGHeSOQ90hp02bZuLg3OxMpKQkGSHU9L/WjKK7Xyu9I7Y1KYkIvHdGagrj7jD8VCb/6wxsJ4NOtzYRXCnRvRzG2lsTPdj4K4yMNC969yjiOSFDfJtNXgGtsAjO+4tE5jFGMVh23+xgyat7qdvR+v7dCXKbfzu8g9Vm/7+b9UBdZX0mvusuyUk+dO/SBTGGCG+9+aYZutqBtgEVeFxy2iG2ta8SH3zwgZkHTNlx+MRxyE1Xu7YN0+bOR3pqGgb36cmfe64L5farskh91T+ftwBDhwxCl4J8Q+CdQenQvGWGASRuIBxDUzCCarrgFZWVZtmgkL95Wy2zmsRcbk1t7EMG49ksxtIpaSm0zC6jmOQxCCK4iK1ZT+t5Ly1VpHnfWgMpCKMmeKsQnx8IhNDQUI/ymjo0NjVZlXxMk1oE1IOuU06WWcJIk0Wqlt+8k4EUjQ0hEnvKx5+gMRDEaWeciaefesq8jyoe91Y9QHtAB7kJCdCll16KJ554AhkZGThq0li4lC3c//5n09EpLx9DSG71TPvG4H0/X7DYtPUO7Nf3CzOwyJYlLL2xujSLGrBSXlGG8soaVJA8mpHUEJT3kRVPWFFdLadbCsijUV4m/bSMKcmmA05aSirSuaWS8CmpSXDSJY+SVGr6U9/01kGVcREUb92KUm5V1bVURHb4aIUT87A7zfTMiuNjCAdaTBNXalKKmQbKR09I+aw06G2lJDTLy/yly2BjmPD+O+/g0EMPNU/qmKJpz9FBbkK9xrQipjpTaML9AT06G3KLLO98/CnjwgIM69PbuMOtg87fnr3mat63uiWI1atWYMiAftZKIHEoLjZRMZ+jOcRXrVmHkrKtaPKHmVaL9ikeJ4b1742Bvbuje2EnhhBZxjo3+wMoLavApi0lWLqlGivXrDHTEMtFF4XUBKVZWlwuB7xuB3KyM9C5oMBY1tYSSLOgavKFFavXwkOL3Ltnb2RnZcPnsJr5tg/ltPIrxHxWXkvUoqb7qeZ6t9rnU6kQZKWbWgL4bM5cVDc24fhjjsHLL79sOvp0kHvP0a7JrThPhH3llVdx9llnwOO00yWfiNR0L9wRLeLjwLszPkVmWjpG9x8Im3NX5JaS0DHreML6umhBlbmKS02MGf/UCl8lJaVmFZK8vDxo2IfIF4yF0eJvMbOJrl6zCYGQbLQHOZkODGRcffbxk3HiYWORk+ozkyAwQeY5X4YUhD8YxrK1GzBj0Qp8NGs+1hZvRW1zAI0NjSSWzlAFnQ0ptOpdCjNQWNAJyV5aXpd6zjl4bymFkFnVRBV6ar5STbzi/JLGIBYtmI9uXbqiZ7duPM94+sbbaA2UF1Jo8j6kvFas3Yilq9YiIzcbTzz+OI4lyS1ym1zk1kH01qBdk1uL5dloNS697DL8l8KUl5WBcaNGwuNzwhUx9cuYuWSRcY0njRgNt3dXlU+JLJR0J6jN+5OYlrOcEE5+Z3Y7qQtov1BaUY5MxqOaVbW+vgE1ZfXYUlmFmuZmPjmMLjkpOPbQsTj+0PEYOWQg0jSoI2roxn92Va+Z53wZtqgq/9R0JmJKmdjpQpdj3aatWEZru3TteixZvwmrNm1Bi8xwzM5Y2I201GQU5mYxRs5EJr+L3kq9whZTG8+06+2Wr1wRH8KZw718Hl/YevPW4Qvk5u+6Bj+mz5qNplAQl3znEtx///1mdRMLunsrtUc7RzsndwQ1dbWYfNhhWLlsKfp074Yh/fvCTgvtiNJqUmo3MKZcuHARDp8wybQJfz0swlliaFkdfVcNeYCutrqftvhBV7sFNfV1qGtsMF1INQwyGFElVRQeewznnXg0rjrrBAwoyqVScfG21thnaiMqDavWXFZ0Zwjxej3TEMe0e5NE3BGOOc219S0h1DcFsX7LVnww5WO88tEMUxkWpCXXooQ+lw25meno0bMPvYY02HUPPi/C42pTV9WcYnmxWu3lewqlUspP/onVEu7AsuUrsWL9erPi6PsffIiRI0daJ3eg1Wjf5KZrO236dJx73rmoLi/DsIED0KtbV0OMBDTx/tQZM0xc2a97FyPQX4Z2KReVlcpMtWMHggHU0gXWXGmVNTWob2g2sSrPjt/DXEDBttEtZyytWm6GAxNHDMLVF52Fgd07w2naoy27zy8qLOPaCxZ9zZH/Qcwuv0AwdtV8SzSr6aeOme/xs+r9Ubz/2Uw89eq7WLqhBFUNLaYG2+awoxNd5L49utCSJ1lt9FRSTke8Ao63UL25BSm1PXWb+V4mUTazftkHUz8zvdXOZrn85/EnzJBWU2/A9HRg99Guya1Knof/8TBu+PkNjL9DGD9qhLFYtpgso5UtIVr3hcuWY2tlJY4aP9bU9FrssEgjGNJR+GR9yuhWF5dsNRMpNPitbqGip86RaKqyKTcjCdkMATQNUef8fPQoLETvHt0wtHc39OpaADcCvChKC+zk5mL8r+t1J/4xX/Q0fiaY/iW4NScbn2baxA0tBMXMhkbcT0rSuhti8n5OhSD0CJrpOcxeshofzpiLz2bOx6I160xNNmjNc+mGdy3qRLJnwevymvvokNVUlQgPvgn5dDflFbB6w2YsZp7bPW68/c57OHTSJHoPfI8962rQbtGuya1eaT+/4edm5ZC0JC+OnDQBXvVEk/tKoTfcoXSXVdXg8wUL0SUzFSOGj4BWzpSbug1UEmqiWrx8BUq0flZIEx46kGwLoX/vHph0yEiMHtwHnejipjBu9noz4HY7aQFjSGYcL5Irfg5ReEXKGJWLiOikO+yMhRHm86zuo3Jgt3PasfOQm8e3nyvyGrea91eHEkvRMP08aK1lxnxwuuGMBsyzRC8/SV5e04AP5i3Hw48/h2Ubt/KeLnLchlSvG727dkLXLl3h1Aww9C62o7XkVgLiLyPIU+G+Rn8EM+bMRm1zE4444mi89urrVCguknuHczvwtWjX5C4tLsEZ55yLmZ/PQM+iAhwyfBj3SsC/KKTKolWrVmH95jJ06tYZvXv1RKpcRZIh6ozS5Y5i0dIFKKmuRszhRc+cDFxw9AScc8IEs9pnwnYao3sAIUpr2RwI45V3P8BjL72JlWV1qPVTOdCbyUhzo3/fLsjXXHCuFJ5MojtCllLhdVoLXL6MqvMi9EVaA3lUq9atx7JVa5Gek43HVXN+7HFmoocO7D7aNbmXL12BSYdPRg1d6PEjRqBLYT5zhM41hTMBiZMySDXrxaUV2FpVbtbY7tqpAFl0VSsbG7B02RpU1NQi1WPHRSdOxiVnnoye3XvAC7+5h+6gqqMDjdxhZQOtvAhb0xjAlGlz8O6UT/H+/IVobtYSxm7kZGWiS1Eeigrorqt9W16BCG5CAl5LQspzaB1iqGtsxvRZc8z8bpdcdhnuufce01OwA7uPdk3ul198BWefdw5NRRgnH3MMfC76xdYSnPEzCGVP4if3h8JBBAN+I3S1LQGsWLcBTY1NSPd5cOuPv4cLjx6DVJ8TAbrlGvxhLj1Ac5ihOEN/Re0ESatv9U3NjMWL8ZcnnsWH85chQkXo4pEsrws9+/VDUac8uvdUZiS1auZVA6728tZAIqkwZOnylcaCZ+fl4/0P3sfQwUPiZ3Rgd/BF/7MdQIKT2D788AOz7E1meip8jIHl9XH3F2FcQWtTs486eSQlp9LZtGHN2rVobmhEfpoXv7vmYlx2wiQkeX0IMWZ3xkKWpT5AiS04Ior9HXpz8+42exhpdMcnD++Hx+/+Nf7122txSM9sJLlsqGgMYsa8RficW3VTC8JUCg6GLS7G8q2F+tTrqb17dmd+O1FVXo6HH37YtG4kerp14OvR7iz3jq87aeKhmPH5NPTq1gWjBw/mHlkMZYp1/H8hl92JrZU1mLNkMYItTSjISMNvrrkMpx01Acm0+mFVjSkeV7yZqPkiDsRMVquBMkNp17hy842vJCfbTaI5o3ZU0T1//uPpePaDjzF/3nJTY+HxJdFVL0TvzoVIT/LGR4a1FnqaDctXr+G2Fkmp6ZgxfRr60TtQrzWrlr4DX4V26ZbrlWUFMjOz6VLXY/SIIehVVERR0pS+u46NY7YQqiqbMHvRStQHmlGY4cM9N92Ik0b1RFhtv4zX3THG2bw+ZPPFa58tJG4pvu9aeexf0OQQYnMivZZ7rv9yuUk+vkvMTtc7GkN1VTVembEYD/zrv9hY2cCTHUhP9mF4/76m+ax1EHFVC29DXVMTpk6fCX84hh9cfSX+/Oc/G3J39Dn/erS7HEoMFikpKUFjc4MRo7SkZEM+VQBJkBMG15owYTsZ/Y0B031TAzIKU334/bXfw0mHdKOgReEiqR10xcPqQaZmIxJbzUQai63r7XJvafUdEUaoVCCmaUubSYG16bu1qRlr+3fTgq6aeYYQfsb7zf4WBEJB7lUDmoqQ1/M5inDlMbQVEk1mCSjn5NmI9OrxpmZnZzRiYm6tAHrlyWPx4oN34MzDD0FOkochSwNmzJ6NTZs3mV7qWvpXlW1mZhqT7l1DOaIquSSPCwV5uSb2f+a55/Hue+9vK8MOfDXarVs+c+ZMjJ8wHhoLctShk8wkCgnIBbWpOYen6myRUD2mFixciI0V9Uj3uXA7Y+zzTzwSDpeLcaWagHSeudwIpkgRdJiGa0PBxEolmg3FOo/CrYsMrAtN2vgs6wCJwK+VlZVYsrnWjFjTHOWawUVDKpNTUpDCGDgcCiE1JRn5JIDGSns1bbC5276AaB5FIBLF6x9Pw1/++yIWrStBEq14vwF90b1LETxqa+frGQ+J5+4MUmpW9Z28Axuq65owa+581Da34JijjzJrtxUUFMTP7sCu0C7JrW3q1Kk44qgj4XHYcdSkiUhNToqfwXMMuSVglvUMhiNm5csNWyt5PnDbtd/HFadOpqCSwDYvySv328rGOE2VsbRqLrPX6hGmTiT6pc2yzDpbwivIknmizbRwdmwur8XMhepjXYyM3HwcO6gH0tNSzWQHTppMM1aa1wT4J0rLqamSNSbbmsfcTq9hHxVpxGGmgLLbwmim9zJ7TSl+fvvdWLKuAm6PHUMH9jXhj7JAnsuuyK1jpm+dyoq/I/R6iktKGQ5p9VEHbv/d7/CLX/zCOrkDu0S7JbemVJp82GQzN/nRtNxpGgixDXJtSUDmjAZLrNEytKtWIWj34qpTJ+GWH1yMZNMN1c64Wu6mZSstmsafIeLxHrpPhJasoaEJoWDEfA/SJdB4bfWQq29oRE1tLapralHaxJjf34xunbIwZmhf9O9RZGxhxG51AkmQIfGpOdMSMHrD/CF2aKf/NiElZ4USVrigTjCbi0tw7s//gLVbthhnZfzoQxiD55jM0pk7g/LOehXzUvENmDFvHopLy8xSwHPnL0SvHt15hIrYvqvReu0b7dYt1+qdvfv2MVbu8AnjkJOZYfZbsMgjIS0tL8f8RUvgZ4x7+MghuOeXV6N3fjoJrXHPsrZ+0wfcuoCixk3WWLGp2oSXr1yJ5hY/ArT+6tih6YSzk1LMjCWqFHK6HGYKouzsLGQnq01Y99heJBJrdf3cEWYft13F15ZX8O1D6VEfdaPUmA9SfPZoGJ+uKsWv/nQvFq4tRlJSKg4ZOgS5Wam7TGdi7/ZcsL7VNDbg89nzUd/sx4UXXYx/PvywmdFGlXcd+F+0O3Krltx0sOBn565dUFVWhqH9+6Jvr57xMwTFxzY0NLVg2uez0Mg4N48x3rv3/wqdCwtho8BKhBOutenVJtBSUZxRQ2s8i1bGATcG8N5JHjdSaOk9bqfE3hJ+Xq1KKVWUWXeJUWFYJDbjp1ks+qdjGtttQe48L+FxYcemNiFRSWUq4PYBYjGNX9focaaXoYjeLEoF5gjH8ObcpfjJ7fejsqYZhdkZGDdiEFw7zEKzI6RwjQfA17OE07w1wtyvyRxWrtuE3NxcM9fakYcfymd1kHtnsKShHSEx8Z7i16MPP4IiZMeWsgoT65pJjki2cMyLaDCARYsXoTYAZKWl4JFfXUF3OQ8OEjtOTf61yBXVOK6IHY3BMFbTI9iyaSOOmjARxx02Fl3zM5GTkQwvg3V1BFFNs2YotZl2Y1Wu8bnctKqmcTG5IT7Qw4rMJehWT6+EMpHLut1t3b6J1PuK2ILNptFsst5KvbwQeiZ8najLjpNGD8Uvzz8NPu4oqa3Dyk1beYV5CYvEZlP+qG6C128jtqD3Zplxf5dOnZDicqK6sgIvPP8cmpqbrVM68D9od+TeEWeedRZzwMZ4tya+GJ1FWFssiNVbylBW04BkVxRXnHsqRg4aaK7ZGSTKESqDxvo6dOtShGGDB8FNge5AHFErCr/4vNNxzglHmibDNevWo6q6xiIw/1jKShCRdwGek5GehsLCTmYuttdeew0rV66OH+zAl9GuJXDk6NHoO6A/LY4d69ZviO+1oaW5ESs3bEGQbvaYAd3xvTOPQ5LzK7IqFkUS3e78nGz4XG4KqmVjO2DBtDrQI0p2hPDjS87F4B5dTAuEJlgMR+SZWMy2woyvyjke46n9evcxk0KWlpTgb3/7W/xYB76Mdk3uvPw8HH300cwFu1kE3izLQ+FZuXoNmv1+ZCe7cfsNP0JeilvBevyq/4U11VDCjaYfStfSbB0wMGGEmulosXvnpeHcE4+Gz+1g/F2H8kotvi9CK78sku8KUhKqp/C6nejTq4dRoppIcd68eWb+dm0d2I52TW4tgH/C8ScgIzPDrAlWUlaG4rJybCypQLI9jJ9dfr6Z5lhCZP+KlTms+PuLW6JyqwNWBZn6l6tuwUOld8Kh41GYk2ZaECqoVDVvXMJmf7mS8MuwzouZaZnT0rR6SwS33367mZuuA19E+5bAaBSTDz0UYw4ZY5qoNm3ZjEXLliIMF0YP7IvTjxrPWJEWwaY64F1bFVPtRaE0nzt878B2JJYWUq+/rgW5GNyvF/PIbtYG0+SQu5tbylkJrcKgwoJCUzn62Wefma2jv/kX0a5zw26PwOXz4f9+c6tZ77qpsQX+QARagOPUYyagS2aSWY3SZnPC/RUTDqgBTHOSqkeVrJQ2fU8s5Ceo9lerfkb4zNbCcvVVk0xFYkIAa1P9/g4qZdumZ5naZlpJm021+yG6s0HewpoTxkqbwgg13O392vUIfWlN9qgZWURjTyyA/t27MiFRhM2srjt6OrtWoso/Oe/aNCtL54I8JHnp3ldV4/nnX0BzR835F9CuyR2D1e48dvRIXHbppSSDWmjt6FeUi2MOm2S1Q4tU/LDapncONWOZjadYJBYR6YoaMqu5SwTVdMkObl/skLI70L1FW0NIElPQ36DdSa+CvoXZ5PaqCUlPUrKVXk1l7DEj1EJIYjqkJhJp1bUuHmt9evYEVt96fiqdzMv6JsuNNvvMt6/HlyvcUlNS0LmwyJTMm2+8jiVLllgHOmCwa4ltBzBtsRQ69QA/88yzEJNbR/JcfMqx6JyTJV6bzZxLYuwKIpyJyw3xREBrM5bU7E/8FnZXlL8MmyFlWV0z3v5sNl79ZDZmzpiN1avWormxid6C0mHFt2ZiRdJZFViaLMEd9ZtNbeCy1MYTMOphz1PTGiTyUPmhv4q9NcOpmsi0ZJAIv3vp2H6WOvlI+apiTb3Uqqoq8cc//DF+tAMCZc9IZLtEiG/ujIYpKRFc8t0r8eR/n0C3/CxMe+pBpNDd0wSIgoRRSAjpl+Fm7G5cYQqfnEwJq7I1EqHwOvWd/gCPW50zaIF1cisgMoZI1xkLl+OuBx+FJyOX93EhEAmahQ407ZOek5eTg04FnTC6Z6FZuTMrPRlJLjuSfR6kcKPfYJSXXkRKJ5GK6C6WJWo7qKuQ6i5cfPcYKhtacPxVv8SaLaXo16sn4+++fDvL29meqv+FlFci6+LRjsHajZuxaMlShLnz1Vdfx0knHm95Xe28W2r7Jjc3F8m9dOlyjBk/GbHmWvz2p1fgqrOOlzwaIsiJ5Bf+27WTI6sp1zhI8qxYvwEr16xHbV2jacPNyUjCoWNHIi8zhQLHexlutdJhovJZXVqD3//tMdhSsuhh0E3nPmslUh0XJVSMMbPAXm1LBOFgC7xOh5koITMt2UxkWMg0dO/aBX26dyHpNYWSNSI84VPsTVjk1nJINny+aBm+8+v7zIorwwYNQo8uRUyHRW4TVuxCIs04cCZVo+ys33r9mOkePGveQpRX1eKQcePw3FNPo0vnQthd307Isb+inZM7alzYK6+8Bo/86wkMKsrEU/fdjB75mYja3cbIqaJMJJDQ7cqqNASjeO+TqXjvs8/RFGUc701FiCY8RML7YgE4mirx62t/gJ6F+ZYQx6/bXUiUn3jtQ0yZvxo2bwq9DRIXAQRs1kg205RkvAumkYnWSDJB6dVAFk3qKC/CTrLH+D3mb0SPwlwcOXEcRg0bhFTX3hcBVeqFbR5D7n8/9wpufOg5Mw/62FEjkZOZvvvk5mfUniC3Qp4Y8xnYsGUrFixZAa39dsP11+E3v/4V3L7tw3jbI1ppQg4uuEK02mvX4733p9C1DmLS+GEoSk81FtYRC5IwEbrSdgTptppBEBDh5UDaUdcSwNJNpWZCgrOuvx1PTpmLsC8XXlpWj8OFFLc2DzxuL5xpnXDz/f/GxmrGxtumO959REjImvpGcjcCb6wRDqavyZ5mUqRNc/Vb1VRURDxmQgQxhOfb7SGmAXTNbcaS+7w+JNGtL2mK4r6nXsM5P7sVt/7jSUxbvgnFVU1UBCSOjeGIPYAQpUOWUlMTO6hARL6gHqb78llOhiNmySM+O/oVrQCipCEtfZtoOIYVNQ1UMgHTRTcjNcmk3Yx55xnqi74rmHO4mVfjpvNVPqpn6NIpFwU56dSoAfzzn//A9Nksj3DYtINra49o1+SOUMt/8sFHKK8sR0a6D4ePHgWXz01L4KEgyW2l8JL0ZhZPUTrmR1l1JV547xPc89jLuO3h5/Hp6kq6gJ2RmZ5BUdtudUgBI7T6bacb7fal4oNPpiEQa72r2Bh0oKzWj7A9hWmjNTKzq6pjiFZG+d/NuP0xOtwxNynopWLyUUHtOBkF08egNC8vF12KOmN1WS3u/c+T+MM/H8PDz72BKdOXor7RDY+W+iWxwwzJQ4w9ZCWTQlaHlJCdSs9BZ5v5JP9G00ftClbQIFFzoLGpBes2bFLOICnJZwbwfPPJDq0JLAYNHIjk5CRUV1fjZz+5Flu2bDGeTHtFuyZ3VX09PnpvCvx0U7sWZOLQ4UOMSTCEpFCI3MZC2F2oDwB/f3UKbrzvEbw+fRHWl9eb5WUzfBROWhtlZKKSysSCZrPsvZrYHB4fVq7bjPK6FvPs1oDURKqb9IgEzDOkNLx0zd2mJvx/t4g9TEsaZrrpgsc3aMQWIWJL3C2ZF8ttSKXSyM4oRFPMg5lrt+A/VF5X3X4X/vHKm9jaQA8m4oEzojngaCnpEjvoGugdZUXlIehWifb8nUG5Isstj0JLLdXU03KT6OkZGfzkv29IQN1fVXYaVjt08EA4qbSXLFmMn//851YHmW+sPA5MtDtyS5ASmxbAnz7tM7gppGccd4QhqnqXySVXJVaIVrC8JYo3ps7DFTfchg9nL4E9LRuOpFS4PS5aT7q8JJkackRmEUUfEuIYLaMlVIqD+WF3mjWyG/2tm6Bf8PocKMzP4E2DtMA2+KlsWmyKrBWpqkqMn0yrZj7Rd3vMS0XghiPsoPWlciChvAG6xBaVmB4qLd5HqRNJjWJSymmJnVRCTl8KkjJz8P78dfjhzffgwadfx6riGio4K0xxMn7f7pJTidBNDzt2p1+3Wg7oBTAckqNsmsHi/74R4u+iji05mZno0bUz8yqKjz/+GO+//74p6/aIdm25333tNWylS56b7MWZxxxBUoYo7BRAutENETvem7kIdz/6NJ5880OkdOqK7BS6kZEgXHTV1W4dJmFbHEkWYShYceqIKcaiGWE2/Jbw8bcsebT15A7bvRh7yGjkZSSjprwUZaWlqK6qhL+ZMTyViJfxvRbK83o8Jv6urqvE1qoylNfXoMrfgkYH07ltYgSTIOtvXOZbXGGSUz3sony3qFlVVFuqLxMZnTrj42Wr8Ou/PYy/PP4CPpy2ELWMm0N2N6LUYg6+oO5l+Sw7R6Liy1o08ItE25Zn3wiJFFDhUKK7demCJF8SampqzLBQTWfVHtEua8v1yqpkGdK3H1Zu2YRLjz8S9914FePQIJxhL8r8Tfj7Y89gdUkVYq5ky8JQMOWeq+3bToutkWCykmoD30YSvx/1DfVm6mFZJ1W+KV7XYQ08OfKQIbjmolPoIcTXt95N2FQhRKGtrG9CTZMfEXLExYc6eM9EzKpN76VpfyNBPxoDIZTV1GPxqvVYuX4LNhWXooUXar2tDLrDTqY7AbnXVrOSRT2tNqp1wtxREsbUzqlKLIZgRBMUR+AO1eHsE47DUWNHI4mHDa34fBh7/L9QeGO6jvKZNRUBXHDL7zFrwTr06l6AEXSj1fatJYX1kmpWjOhWrYC8F9OVls+R+giznBYtXYHV69eZRQzeeust9OjRwzq5HaHdkTsx5/V7772HU048ATZPOt6991ocMrQfWijEc1eX455HHoOHrreXm0THVKZFRVK6vRQ8zWIq8tpJFtId9f4aMwH/0H69MLRPD3QryOFvL9xax5rZq9lf3O7thJaw7wtsqm7C4mUrsGDpSqzZXGpmj/EkWVM6R6lAnFQWtvjMqhIKLeIvKJ42/yw3BH6StK68BEWZSbj8gjPQp3MnpHqlyFTZRiVjU2hgLuV35R2VoGrT6b43tITwy7sewX/fm4mMVA+OHj8OHiqSMFltufzydlonklIIJr1Mnj4VfqxavRoLV22Q04Q333gDJ5xwgjm3PaFdkluvfOmll+Lpp5/EyIED8czvf4Kk9Ey8+fEMvP7OJ/Ck59PdFZUjMlqmRlhdP510R5sbas3aWJ3zstG7eyG6dS7CYMZ4mYz1jC0kcU2lF4UqlJBwAxHDgtzHfQFHLGAUlEik7ivlldUo3lqGFSXlqK6pQ0l5lfEOquoa4HJ7kZGcGScN/zL5Io2QFAkgSOvoD9vQTNd/ZO/OOOmI8RjUvzfdeXk2tO/MDEXk1mIM/E7Lrf57YXozj778AX7z18eoKCOYOGIEOuVkMk26Oy03M9wKaXYf2xXJDuRetQoLV5Pc/P3DH/4QDzzwgDmnPaFdknvTpk049thjzUJ+1553Im66+mK8MX0hnn3zI2SkaZlY2moKm0gowVYG1dbXg8zGKccchUkjhiEn3YfUZLnEau/V4jqyWKrQkgsrkdIMYgkSbye2hX1DbtpG/pUFtkiQqEUWOdS8XdvE+DwYQUVtPRYuWY5PuZXQnU9NTqXyyqHCUzOblJbVr01uuBRamF5MC8OFw8b0xfdOOxmp9hACjjDPYNgQcZu8lLdjlCXJPnfVZnzvF7/FRiqUgb16YWCf3qYyzKSFrpEG3rQGOj1BbL2TZo/VyizvfTINQabttNNPx0svvWSd3I7Q7sitWPvtt9/GZZddZvplP/Dzy9GjWzfcdO/DyOsxgESVKxqkgLkpGCSCOlsE6nHUuBF044+i1VYtuayziG+RX23LEi1TaUbIcguqbNoZ9lWGh2htlUalL/EpvaOa73jKlXjzzfyNOs0qHzMXL8NHM+dgAy27i258TE1j9F7k3ViQK29HY305jh89DBefegzsLik8xdDKG5FbZ1AhML722324+sbf4OXPFiIzIw3jRo1Ems9rkVRn7zzbdgmdnkhJAsr6RctXUIFvQFZOLlatXWfNTa+yayd9zh23EvHv7QLSZS+88ALeeecd5Gel4YKTj8a/nn8byZlqc5VVsyx2c10NOmel4IiRg/C9c0/F+GH94WPcKOtjREkkoMAqDlUNu+JSB2U3MZ5bW2LAyf4CdbW1+pPrPUx1oHmfgMNFZca3JrsshWVt6qnm9jjQnaHHEePH4shxY9CL4Uiyg8ovGEBxWaUhsNdlt1oQ3KlYt2Uj+tI9z0tN5/OoTHlPUx0Xzwuzdjf/5eTm4IV3P0FL0I/0tHRkpqaZPFQY1BYQ4dVcWVyyFQ1NzTjkkLHo178f9/P5+1m57C20j7fcAY2NjVi6dKkheWFuNjZuLkFjVE1IdjOVQCwSQvnWalxw4jG46bun4aKjh6AgXd0cKexqJiOhVZMsIkgRiDDqVmnTtSS/hDlEoqj31v4Gi2aqP3CS0tZY7pDNDS99co9p/rLBGXGaNnI7rXMspg461uL6rqgfuTR844d0xyXnnIrrLj8Xt/7wQgzukkXXvRj1MY06U9OgCy+89yEfpsUQt7vYsqTmDy23lMvoYQMxZvQhDJNAq7qGz1L6pBDN6W0CD72slGQmmmWr9m6hDW+/36PdkVuzdWzcuNGQu2/3LlhZUgOnLUSB96CZMac6pTz66ytw6qRhyEjXyiKa5IBuqISPkiFL7aQE2in0Iosq2ySu+i7yWwsIyorvWoxkJWW/1LXN6i8tD2Dvu4pW/29abBLK1IBzk3cRZnrkNm+bL5xeibXxhz1eh5B4TyoGdyxsJo8c3L0AN37/Itz9i6vQCTWM1+sYtqRi7owlqGypp5ILIymo65Qf8ogYwjj0W73uovj5d04yffDrGsPYXLKZx8NMU9uN5PIwtNLCiFGmd82qlXxnvduuy+VgQ7sjdzAYNCtnitxdiopQsrUMTrcHweYG9CzIxs3X/Qg5OTmmYmZvVUdIyOT6CxI1Cb3pw7qX4ZbLwacFyW71KFMPu+SQvA4rFPny5o4FzTly3fXbSq3ILlgkUd/zXl0747c33YgzDhsDR7gZ9qx0fDj1c9NltcW16/ca2Ksrxo8cyjvFsHbDFvhDfC69obaCw+mEz+eTS4Da2hruUcqt1LcHtDtyq7dSaWmp+Z6WkoKK6hq6hhobHcDVF52JwmSHmWhPxN5bOt6hziFGpC2KSKDVLLS3ETRDriz32xWRxXaiyeXkZ2znG600VYBx4zWQRimmff+C9VPaNeOLh2eefsQoXHTCUTwexUez5/JTsfyu3ysnxYMTJo+l9VZNfTNKKqq5t+3yQeWoPgZCM8s9HN77ebw/oV1abrnmssyazthOoS2nS/jT71+CggwfiUfhFbGNAO8deivT1QtL9tC48tbuvQ4pE/UkawrSDa6oxZyla/Hv59/A3X9/Eb//y9P4wwPP4o77n8JdD72ABx9/Gx98vghrSmtQ2aieaXRveb3asAWrRxpVFD9lyxXF2xwRHE1LfOqhE1BWW4WyulqGObt+Oy0PdNzE0ehdmG2It2lrOUJtOfe4PC+TTqvcGxsbzPf2gnbXFDZ//nyMHDnSfL/6onOwYuVqHH7IUFx78anWiCpam70NxevLNq9HfqdOyPRQodD6hdXJg0TfmwiRN4tWLscGei5uPjc7NRN9u/dCThbj4LgYGC7wqyzdqk0kaHmFWY8r2evF6OGDkZWewsOy4Nb56jNuQdYe8IbsaHA48dK77+LIUaNQkKNWiJ3DXMpr/v3Ku7jh7kcRc3oxadRg5DMsagsoPxevWYWlq9agR/cemPrxJyjqUsh3bB9NYe3OclsW2cKmkhJ4PW4ce/gkE1/qSNBmrYW9NyGrV1ZdjQ3FxfylSrhdW7e2xOszZqGmOYjDx0zESZMmYvzwfsjO1ARIcr1d/HQgFLNmRXUnpWFEnwIcO/kQHElLXNi5M1587W2sL67kncRKpZmRuC1e4cb3cEa98DOe99r8uPjoI9ApKwea+21XUF99Lax41onHoF+vbmaa4zVr18ePthHiWRuhZ9Dc1GT9aCdod+RWDJYg+JaSWgzomo/CTBcCjD8DDje8sZa42Aq0TzzXEl792vGfOWo2TZ6gmFS14NqUrWr73hVEjeE9e+LDufPgiLhp8eSKtp01kfIwqTAcdKCJMf5b0z9Hv845OGzsCGSleSAqR8M2bK2MYOnqLXjxvY9x97/+izsf/Bf+8sQLePnTOVhaHkBtQwvyPFGM7JaNc08/Ca++8yGWrC9FNOJk2kVuq/lK4XzMzCLH91Z+qCmQ76WofVfQoJoguZ/BuP+6S86Hl/F5VUUdissrzTtYsCrYEmXQGij2d1H5KGcjVBwNzU173Tvan9DuyG1iRE1hTNQ2VKN3z25IT0o2wql+KYkQ0bJNMRJEHT2s2uOIXRMhqPdaEGFHiKSMGHfaiRbTiUPDJVVZpmvVt3pXUBrS0tIQaGxGc0j9vYk2jI4MqQm9S5D3L92yGUP79sHAnn3giWjiBoYnmyvw95dfx33//DN+95d7Se53sXT9RqwvK8OCpcvxt3/8B/988S18urIEb89fhwZ7ClJSkvGDS87CxjVrsG7zRkQciY47GollPbM1MC59TMNyYpg4sj9GD+5Dz8mBtWvXMN0hK1/ipG49tZWlMTNqzk6Fq27H4baM5w8AtDtyy3KrwIVIxI/uXYrMLKISUAmQPGRZCUuYJF7Wpv3OqIObBjfQamkiRHXyoJUK0eqbhQNUOWZcbFkzy+LsDJosQQZ+SO++JibU0zRJRFtBbdh6G7VVB0ItZsRa55xsYynlJj/3zhTccu9fMH3xEtSSRMlpqajXIoh0XZM8NqT4YujdLQeltQ048TtXIGvgWPzl6VdR7w8hiWw+csIE0xOturGB91QPvT0jt+n+yvxTfheke3DyYWPhdLtQW9eAiopKk+fbaa1yaD0c9u2tH+1tLrV2R24VdGIMtJpiBvTpQeGME1HSRIJaQhUnNYVCLqKag9STbXNVM9aWVmPW4jX4+PP5mL14NVaWVGFTVSMaQhRyOoGWxf8KK6EOIvw3iJZ01RaNXOK/bW5o2yKFXkkuY18RsIlW+7nP5uLBF9+Bz+tEiitKS+nClLmbMGNJFQ4/6RJc+bP/Q8TrhTcrE8HGalMnMeHIo3Hpj67DO5/NRk3QjiSfD70YVixfuZL+jIizZ9RTPltKVbXtYRw/aRy6d8pAMBJFcWkZLe2uFeTuIlHWQmK4b3tBuyS3Jl8QTpw8ERk+NfGonZk7uMk131FSRexgzIGFy1fj3alTMXPRIqzdsoUxJS1cVpqRzq1birFw4UJM+exTzF28yDRxfVXMbZQG/2X5aDEDLYYc2y3UN4c1r5kUDJWGOmvTeqkn3TuzlqKg/2ik53dBaloyvC66rbTEAVpg5cK/H34IT//n78hMolJw8i347k66GJqYonuf/hh1xAl4ddoi3iuCboWd4XN5sWbzJnouFklbi7AUrQbq8H6aYKF7fidceMJEHrGhorISDQ0NcUW7Z1D6TR0L/3W45e0ACXLLIg/v25fCT1eNZk3tztLryhBZEqv7JRCg9XjjnfewZWsVJg4ejFMnH4pjDxmJ8f16Y1zvnpjQrxeOGj0IJxw5AYeMHm7uM2v+QkTown8VJLPFjHGzCvJhY5r4yDZDot5AhDMDT6loXn37HaR3HYHjjjsJKV4XPKlpcKcmIyvdgd79O0MzpVTX1aLB38LrnWgJADlFfWB3adZU0oMkGTb2UPQaNh5vvv8O7x3DsEGDUVxRjsZgwMyr1lqou6tLs9ow5+VByMW/7MzjkUeSa6jmuvVtUHMez4sOcrcDyE3TrKXS6vWBENwxTTyQbAitRh1DDJJBvbNaWoJ4/v2ZSMvOwcmHHoKs3CwG3pokUINESBqb3VScaSilqFyQ7sOYwf2QluLD+vKtupH592VoVJI94sKbyxbhqCH9KXmMC23B+NFvDq0xoDFfIb5jU7AFb8+Yj6SBR+GUs88xXW0PPfRwxrQN9FKccEZjmDSsG7572jicedQgpHiCCDATlm+qwTXfv5SE09TOVICqJ3DaMPnow7G0xo1lGzfDbQ9heP/+KCkuQ2APBspoqGmLgzE306ElmWK8XybDiJ+ecySibi82Me4OUOGo373qKVoLKXDF3ILIHQhYM8C2F7Q7cstNE7lV8HWNTWSarGbMcsfjCNPlDje24NWPp6NvYQqOHn2IWpSQFPHDFw1SKOmy8hqt5qGY06u5zY398TJHfRhIFzYpHDI1vnIJvwyJaQ1dzhQqmvSUNCO48hLaCiEqH1BZLFm7AU9NmYvcQaNw6pknblMzF1/8HQSDYTQ387wYQxS+vNPlpNJxIhpyo6qsEWeffB5GHnos/DYvWsIObNlSgk8+eB8vPPFv9Mz2IdLcYAjjZfydpeGy4bZb/P64wyaiV2EOooy9V6zbaPLrG9VJ8FJZ7XpNuNGG+by/o92N51bX0xdffNFMWD+8b09MHjEAUbtqvilCFCCVvaYGmrZoMboWdceE/l3UIsx9TjQ7fChvDGDq3EX44PP5mLVkBdZvLUfElYq0tHTTv9oVtQidrCmQqTckkyLVjiTXcrtz6Lr37dMH+VnpPE+K4YvnfBME6H2+8+5UbFy1FqP69Mbw0RNgz+1sEhOhVdbEikm0kK++/Bqa6X9vqarHVlry+sYg/EGmwZ4CpyMVcz5+FZ+9+xrmTnkLxUtno9AXRZ+8FBwysA8KmG4ttkCtAB/dfDfdeoqTlYBviGSfCxtLKzFvyWozmCQvNxtJHjWZtT5/Wvx8v5JSKk8bQ5LjMGzoMOrztsnn/R3trvtpWVkZzjvvPEydOhUXn3gkHvi/79O1dtMaByk86oJBi17fgLlrN2MSXWYXiRCm676+zI+n3nobs+fOgsvrQSotLr1U+FtqUdUQQbLTjnNOOg6Hjh6J/GzNLsqD8X7YX7Y6zdw95dPpGDd0CHKytFIJ1QcJb5qG2gAbKhrx+mtvYQzv72Taq8M2bGxxoLpiM1qampGS5DNj2XMykkmcTHTPTkFacgrJKvrQixCJqMwSsbuldqTg4iPG1KLAb9a64SS0TZM/WLO9tgX0jI/mrsCVt9yHsvpmDKcy6dO9K/e3HlV19Zg+e45Sj3vvvRc/uOpqKq89udOBh3bnljudTqSnpxu3vKKqhhpdTTlmNHZceGzYXFmJAQX5cDhjqKWr+um81bjqltuwavkCFBZkIT0tCbV1NfD7m5GTnYkeRSmIkfAfryrDrNIA3p29FA2MdcVpEfvLcXdtTR38jHUzGZvLH9ek/lr+p62QnZWMYcP7YEP1VpTQimfmpOHscV3x8wuOx2+uOBPXnX8CLjz6EBw3uh9GdstFSgpdYCo4DQ4J0//QRA6qcVelmdrtlTua51UL+YXopiuEsGaZUasAic3z1JWnrSAiju7fG32K8vnsKGqqK0y/+D2B3aTTcstV+75HGuIARbsjt9frRX5+vvneQBddk+kZFhLGLabkNjSGUdAplYLtQOnmLZi2uQpuTzLS0tMo1E4sWbURc5asR5+Rh+E7P7rJNCflZKWaWV4uuOz76DP6CPzt+SlYu25d4tZfwMYNG5HbqRO8tPY6LPq0Zf/yXFJ00qhROOuEY3DahMEY26cr0pJyLUUic0yLq4kKwyRzUF6LrYX2V91utdiCSC3SSiVJPNSVln/NfmsySFU2ymor5ZqqyXqDtiN3mM9MT3LjtOOPYb5EUFlZQfe69Ys5SLGqdcT4HdGoGRnGhLYbtDtyezweZGdnm++NLdbKIS5TGywbEUOEbuwYksEWo5WKRPD69HmYdORx6JTtNStlJntsqK9rYmzqwxtvTcG///0QUunSpiQnUZBocxgbjpg4GTf/6S9Y1pyNWx57AQ+/8BrmLF7B6xjT8nmfLViEcQP7m66WZh0vEk1L3LYV/A7Npk5bGrVmIBUR7baAKWx5pMa1pmWWc63uo8adjmnhBYugVh2/XG5B5LU2/Tb91g3ZrX2qP9D+r+y000o47SHmDXDWUaOR47GjMexBTVWxUTJWrzY9kR885yt1opSRaaen8lH50lvSW4joie1gRrsjtwo60WspEAyRpEHLehtQ4NXE5Uul+2nHRwtWYuJxpyM1NQlRpxt2XwrcJHHX7oW05CFUlG1EVUU53dgk1NUFMHzoKJKF1iIShY9K5OyrzseNV/4ERxUNxNJ1G/H+jOmYPWc5hg3sS2tJax3vomoGp3DrgAVli+ytprkaM2o490RRUlYuraQCtDZ9TRTbrsDj6leu01WuVVVVpjlMRG8PVU3tktyJ2Tm0akhjojlsB3K5aOVcdFPnLlmOyUcfg95dO9GF9zOzZOWDGN6vAKcdMxynHDECPbNTKUMh1DfV4PgTj8Lnc2fgkccfxf/99mb830+uxe/vvwdPffoh1lVUobDvAHy0cAkmjxtNFzdkYlrB/D34ZW23IdKauegYAhw1aRz3RFFeU4MwPakv1198HcFFapWtrPR/n/gvfvrTn1IR18WPHtxod+RWYSfIHaab1hIIWppcOygEorh+1TUFkJpTQKYzRu/aB6MPOwmbt9bDH3KZoZIeh90sZh/2h1FSEaTz68WLj/wDqz98BaMzQ7juhBG45dzTcceV5+PXv7wKd136HSQ11OHIIT14rTI+IZV64nbF0gFTDMbdtpO5g/v3Ms1soXAM9aoQ+xK+Luc0j5o9rrjr6mrxyCOPYPLkyZgyZYqJwROL8x+MLnq7I7epGVclCwvckNtPNy1e85uAaoyXb65CqLkJr/33Mbz87PPoXViAgF/zhSWhIKsrhvQdjNHDRuGUE0/FXT/8Lp6642bcesXFOPPQ8eibm49kWp5Gj+p9RWIbGmiFVlZvRbc+fY3gqilJ8asalwy+1sdsP1C+qEZAcX1+ejK6dspnhtlRWy+Lq8yz8ko593XZpnLWFv9hPlasWIGLL74Y6uJRUlJi9nWQ+yCBmsNMbE1yh8Nqn40fiMMTaUFRdiYuots9Ir0F/ZMCOKzAjnt+eQ1uuORc/IQW+fsnH4uLjh6HIwd3R15hFmzqlooAohrvze9BewSZ/pA1BTIlcEtLvfqvoXNSjhHc7ZslcB3c3g5lhRSgcsbrsCEvm/nLvJI7bSlG69jX5pm5h/7obCA5OdnUt4jImgH3vvvuw1lnnYXp06eb4wcb2gW5rZrS6DYXTDCxGMWEkS9dai13o+V55ZA7EbE7UZSbjvzcHBTmZKNHdjI65eSgGwmfl50CT5L8alldTUnkoDVXBxRLkNSkpWVvHTEHLRDQ7KL1DjtRsqEM2bl5cLmDpoY6LsIm7ta12zuMdEC14mpy8zucSHUzLMrwmvypbVYIpaEwsuzWhBhfmW8xF1xUuTF7El37GCadfB5O+uUjyCzqg6jTh2goiEVzZuPsc87EE08/x1Cs3szYElOjerxm3VqA+cBEuyC3iJ0g+Pr16/Hpp5/GSU7bKbdtWwG2bUFq8TsnhTEQi2DmnJkY1n8g93WwuDXQvONFRYWyv2Zxv9bVclvlLmuvbrctwTAOO/oYXHXPfzH+mFNh5701vVZlRQN+fNXl+L/rb8C6NasVARhmSIlozMCBinZB7oRArFmzBuecc45Zm1vQypJOM5pp72hnxY5yy6fNmYNBQwcixWFZ8w58NURGC/Rs6JYn+bxGAWummCCt7e6Wl3HtzaZ8t6GZFjnInbk9BuC0G/+I8372RzgYJkUdVPwtYfznkUdx9VVXY+36dcZqS26+YkKd/R4HLbkTNaBhE1PHMG3aNJxyyilYvHgxQqGQOeZ0UnC8HrrFlrDIPW5LmsvJD4RjmD1nPiaNH0sXnN5Ch+XebSinVCaaDUa1E9FYFAG/hm3uXh5SHZhPp5PkZnlrjHiY14acdrh8+Rh25hW47sFn0L3PIQi6nAhREX/0yVQce9xxmDVrJsJUJDG65wcqDmrLbTQvyfT666/jBz/4AdaZ7qB0w+ObLLfHow4tKsC2L0Rl7hI+c8zw0XBHKJwaORVXJB34KnyRvBnpaXC7HIZoiTqT3QLLVwpW5aAtHAwgFglSYbjM2HEVR37/Cbjwtr9gzHHnIOz0cL8HmzdswYXnXoDnn38BfuMpHJg4aMltVZgBjz32mCG2mj8E1ZZmZGSY7066yT6v1/DN8LuNoYqhzeWl6NerL9wUJM12Yk1e2IGvxA5loWLMzsqiEnYbolq9CXevsKyzpOAtggf8zVQQJHUsDIdmyuF+hy2A/K59ceKN9+GCK66Cw5PE3TYUb9qMn177U/z36afMXQ5EHFTkVrs1yw5Rxmb+QAP+8chDuOG661FeUccYKoq0lFQccdmvMObU71ixFN21FJ/Wm3Tyn6Yt1l1aTz6zfpa5TjW5+sZ0MM4rqaML6Q8iI9ODkEMTPPDoHnFbCdt+odU6fgAHg18D9Tuw2YK0rHxLMjSHLrPDJXLz2A5ushSyFOiuoPyO2txq02AJ0VML+uHQPBbKPWanKG9aPOxOxvUpGHTZb3DW1T+HJzXVTPtUUVOPq6++HH++926zFFFUwhWTgGkMQvwh+zEOKnLbmfGKs0LM+Qce/Cdu/s3vUNfgN2OaM/P74KSf3oFjLv0Rie1EhIrb7XYhMSRwG/bIhIt4FvkUvyduUVpebiZx8Lk9jLetYxpK2Xromu3XGfWxR0riQITGAlgDWszAD8bOibz+WsRDIGuSRF3/1QoxlZpi1Dk/wJk/vwc5ebkaM8eLXPj1Lb/DnX+6B3WNfpYf08KbWX0c928cXOSm2IcjIdx622/x21tuRU15hSFUSkYOTr/+dxh94ncRiLhR469noQFeQ26WlYnNLOwJ9yynz7p2R7H7dNpnGD5sKJULrQYF0zxlj8m9HdYqKAdV0X0F+KbxEEt1KKoMbR1U4y4XXN++Ou/9Dh+cziQMP/FMfOf2B5FRNIAGI4KWpgbcf8/duPWWW+gdWlYfbTiKb2/hgJcQVbCEw3S7+NnkD+HOu+4yblSosZHxFJCSk4MLf/MQBh5xJqIOumjBBgTrq3ilHcletyHcti6gBntCPkK3kAAZ62zHuk3FyExLMQvotaULbdxJPYObUUr8/DqhPbBhjclOdDqKfI31/QKYP7pe+ZTIoq/KK1eE+evQmnEOFI04Bmf9+j5kdR7I33yuvwkP338frvvptaipk4u+/+f5QaH+VXgayveHP96Ne+69F4GQVut0IqfPCFz+2/vRY/KJjNUYx2kZoKgf4VrNyEGLrmYwFTYJIiEw9/qKwt8lzNraZqQwYnQFNMb5rSkf49RjjqaYKNrXUkQSLLqHXzPl8c5gKQeKpUliDM3+FjQ0NjHZVEsa0qjdBy3ilpeQWx2hIte+1iAWVwhfl1N2G2NyhmwBMytNDIOHj8O5v/0rioYdavbpqf9+5BH85ubfoK6+0bpoP8ZBQW65ajfffDPu/tMf0dhYZwohvaA7Lr7+NmSPOcksFxSjRnZr8oKIEw0sax8LPCsz07jtRrPHsedE4VOpMNRZYsOWEmTmdkJOcjLpHCGxqfl5YznmmmhxjxB356WH3G6vmbS/tHSrsdzfJNUHAkzMTMutN7WawnbzfU3esOxV/vr9NZdpZpoQn+OJROHlNZp2ufuQsbjkV3ej69DxxiPzt/jxLxL89t/u//OKHpDkDrB8YyrkSBChYAB33X03HnroAfhjYZI2huxOPXHpn/6DnFHHICPCOM3uMov0qaBbbC7Ygk2MmGLIy0hGUMM5bEHTLVTrgIXi81y3BtbKHpp3LAJb2I6FazfjiGEDDKklVIn1tGSBY5p2eBdQ33al0VTlm+p8jSqTMKvvujZV5NjgctjRu0d3VFQ3YtnWUrqqJDy1x9f2tT5AoHywWjC06KITaT4XPCoX5kFYRGVZqZ7bhFT8bkIVbnp1KyxSXugcBy0xMyWku6mlwokQCbsr6HrNpa6BPvK+rM6nNmT3HITzfnY7cnsNoiGIwh+M4r6/PIxf3/gLNDXUUxZVi67ONfQMTYnvHzggye0iieQEByn3f37gIdx93/1oCcbgDcWQ0W8ULrv9QXTrN5IxdxTNTr/hSwKakysaFrVZaJkZcautzUKit1proCss996ORr/fzLKSkp5qHWwFIhRgsxQwhUqLCsT4Xa68sLNU9e/TC1uLS1BeW0OlRDGkhO/Jsj77JVgkqjQUWdPT4p1Y+G5yzeN2eBu0dJOZAYe7XVLSEU0xrcUjoiQzyegMIaSA2sNzdVIrIRVb2HcYLvz139B58Dh4I5r8MoY/P/QP3P/QP9EYkELQElV20+y2v+CAJLfdWDYbHnjwIdxx22/RSOF2ai5uWuwLrr8DuUMnU9idNH5ho/mNhjevSomhlo2YZXNjSE1OMsdU3FY8K7S+8HWtZjCVpq9tbFZvCSSnJMeP7j4ST5a1ULqkaEzarN3bIAuuzetymsEo73zwwbYVPyzrf+Aj8d7KidSUJKQkacAsbSNjblUmJt5Sn46YCM+ipTJspMbfWFqOZWvWY936YlRXVMNJxa/27RRXEhW+tU5ca6CyCDh8yB10KC75v7tR0H8I98bQ3NSAP/7+d3juuedMt1YpZAb41kX7AQ4YcpvKFLri+gzQ1X7q2Rfw+9/dgWBjg8nWlKwcnH/H39B12KHMYrlTfqNdnWGLZMYKiIQhP5obag3ZteyP9LIRFGr/PYUqTm3yJmIOLFq1Bn26dTZNbK2FnW6dltnVpjXMJNgJGHH+n3tGkZ2cisycXCxZvdIKMa23OQhgvaxG7WkO+Oz0FJMHASrOMC2zvidaDOTHNYWCWLpuPd6a+hmmL1qChSvXYu7KZfj08zmormyECz44PUkIu1tfzurRpllhFCZk9D0EJ/z0bmR17g67ZLG+Fj/94ffx9pvvIEDPURW3+wsOGHInIHJPnzYdt912G2prrHnHM7oOxKU33YduwycyllasFRKVeTbdJBl5iQKFwFxPq91ChaBjsgaydOYI/8gaKpZrLSw7GzGx2KLVq9CvZzfrnq2E7qJEKEUxm4tvobW/PZZSUvp34K3uH3ZoquEYJo6fiGmfzzJ7FS8e+LByT/kgAqtMcrMzzT6/JjiMN0OppaCFYdDmikrMWrAQK5j30WALCtKTMW5QbwzuXQifz0aryxCO7nnJ5tWo2bTCuPqtUYLyCDTnnTpDhVkYPUdNxvnX3QFvfk/jGYb9Afz4Rz80C11YCnb/wAFluYXNmzfjqisux9pVq1k+drhSs3DqFdchb+ypSKbrZWNMpRrPaIzElRa10002sAQmGg6ipclqxtB0xAl8kzJR1YuIOXvOHAwZPhIuY7Zbf0cJkeJtTRyxrrgcz776Fh5/7jXMmzePXotlrQTrTfgufFcNfkin9a6vqzdWLnwQkFtvEFe58WyMoWvnQvNTcqDRYVpM0U9SLV60CLMXLEdFZS3zIoIzj56Mp+7/PR6740a8csdv8PR9f8RRh45lTB5A9dJ5eOZX15tZUFtDwqA9PuSU5aLFDz1RP7pPOBmX3HAnHBmFzHMbSkq24OabfoXSLVviV+177Nfk1sRFiKkLYBCaorZsawUu+84lWLN+My0ubbTXhcOu+BX6H38pUmx+E3eqVtllrLXVtqz2bhWMXKswkumWN7Bg6erxV24a3TSyQxVRqiVV7bauby1CDOhiMQ9mzl2OQw8ZxGdqFQ4Xn+ukUKkG1nK1VQMeZlimftMxfrdskmpvFUbw2REHSrY24df3PY5DLvoxfnD3I/jFnx/FqT/7E677wz9RXsd3lhknFFY4eLOAKwynwhWHG6GYE15Vrh/w0Fx18sFE4hACJFef3FSouTsWCMJJ9zfYFMTyVeuxsaoOIRZ0t3Qn/vLLq/CX316HYb3ykZOZhNVlpZj3+We4/PjJuPL8s+H0elCyaQ7e/8MVaAmp8lEz0Fpzu29Xmf8LN+XPOocpo3wEHTQcNCA9Jx6P4y65ynQvjkZCmD1rDn503c9QW1u7LYTcl9ivyW1G7mh4ns2N2sYW/O6Pd+LzeXOM1rV5knHEhT/GCedcSk3agpDNE79qJzBa2io8axlXyy6kprS+RntnsJOUtY2NyMzOUIUsM9WJRRs3Y9qyeWhkjNfs8tKbcBuiJ4VC1PTWWYbaFDA7FZgixwVrS/Gj392JR155BbEwbThfNMyENjAPXnz3I7z07vtUJKo7kPbSuhw8SLIbl53CJK9F7ekHOqzutXoR62X0q3uXIuaQHTXBCBYXl+GzxUuxvniLUfKDu2ThjzdcjVOPO4ayoJryIJ79cBYu/+V9eOyTpbj69/fh/ZnTkJaeyvx2Y+mCOVg74y3mvnLQLHbM+7ReK7qdYUw8/QoMOvNK3pdGhIbi9VffxC233GJWn7Hc/32H/ZrcqnlUQUvAn3nmGTz270cQDPiZahuGHHEajqR1Czk1RE9VKl8t1UZUeL+Av4WfcXJr8Tt++2LFVesh97+ytgpZuZlmaGc0asNjL7+KX/32ESyYuxbeYAhJ4QCfYkeLI9l4B5rZU5ZDC+iJkC28xz3/egqzV22EZk3Xel2MqPn+Dp4bRlqaD926dTHpk3suxWB54BT4+jrkZaTz/vQ+dniXAxdSWFYFqN7Gxvcf1Lc3ckwLRJSe2zqU11Sb5q5LTjkGj917E46eOAbJlGYXw5fFqzfjrn89i149svDfu2/AW3/9HUb36oWqyhpGchH4Gxqw4uOX0eyX1abXZOTMPLhVCMtN9yXjuB/ejj6HnwEv06P7/fvf/8bTTz+9zy33fr2Er5b2kX2aPm0Grrj4fISbWyjZdnTqNwTnXX8XkvO68SitlawiC2hXci3DpoNyaUvXLcL8915CEi3qz757Lo+J6GRJ/Jw9gUaWtYRDWL5mE4b168V72vDR3IV48/M1WLZiOQb2643c3CymU50rHFQAIjoFir9DDBtaYg689t7HOHLyWFx57lkMMei+h5qQ4XOhb14ezjpmLO74xbU4ZGAvQ3m161p6mWQm+T+Y+imG9O+H/JwsQ/gde9wdkIinPxGC6KfL6UCyLwUbVi9HstuBfl3ycfOPvocfnXcm8tMcDHeS4aW8qCnsD4+/hmUr1+DZO36EPl26oIAW+/gJo1FUkI9Vm8qoiOvgb6yhgSAh07PMA+R2GzloBWIsDQfDBpcjBT2HDMGGuZ+itroMIU28uGgRDj30UHTq1MlYcG2JATDfFmjE9rHv8BWIRP1YuHQ1Lr34YqxevAhROzVldldc9bv70Xn44VY8zYJXxw+ti62eSbsG7SYt6ux3H8czv7kKBRkpWPz6v0wThzS3SC7FYaxFK3MkSjJqAr4///1pXHvNxXDTpZ69ahMu/PXv0MiYcOzwQbjglBMwql8P9CjMZUpkmaw+6LX1jZjJWE0q5vQjtRwRbTLfp4lp0NrZGR6GDi5Smd6JPBRVmpmOLWZ21SA2l9fi7Y8/xvfPPpvH5FpSgFr7AvsZ9IbWG1jlaXHcZjotrd24BU3+IHp264asJDfUCzxCyx5gHOyKteCDeavxo1v/jGu/cwa+f9aZJJ/fWGsZAPXrL2G4NPHyG6gEQjj3xrsx9ozvU47sRkk6VS/SCqg/jDoPJamSlmlcNW0Knvr9D9BSVUZ5smHs2LGmDVwLT24f/PLtYb8mdwM17E+uuxGPP/6o6ZASTc3G9391F3ofdRE8MT/jTy+LlsSmxtYSs4pbdw5LSETuj178G97443Xo3ikHc198mFSQe8ssiFdwCa3lRshO7R114+lXp6L/kCKM7N0N4bAb64rrEGYYkZLsQZiCM2v+QmwoKUXfHl1gd3uweu06xm0OHDN5PHozpnQ43KbJRnbEHWZEyHSFTJJU4aYIUQmzPBCRuLahGlNnLcTgMaPROzmZJND7q46i9fHj/gS1GehNzRsbhR3faCX17lqp1PpHMI+0/DDVIf/ZceoPbjITL/zz5h8jN5uKUYss8mZ206FJlZ9OXHzj/fjgsxnoOvQQXPvPd/k0LU+sDqqtc6Nl7U29CJWHBpxEo1TUzz+Kl++70VhqEfxsKt1//etfZgHKxACYbwvfrirZDaiWMbG9/ObreO6pR01NOZw+HHHiOeg16QzTrTQsTUyLqwopkXLXxJZYSFjovjtYCE2VFAYPMrQqp7kmzmRabZF6T4yemxZB7cunnTwJH78/FSs21qEuYEf3runo3zsP3TqloldBJs476Uj85LvnoSfJ3Y3x+VXnnokff+d89NPC8k5Zcw1ukaLgO9kpjA7Zc5FZ3oUl4BIa9YPfWluDuctW4YgJY9E7le8iQjMNGrJ4oEMKW7Gr3tcqE8u7shZ4IAFZjiYyEd9JLHs0iCaHB8+8+CkWry/GhccciexMdXqxiC2I1AqJ1CpyyfHj+d2ODYsWorx4rUX+r5CfXUH1JVKkpsuvKjhpbMaf/yOMOvFiOGSpGYO/8eZbePqJfyG4D+Lv/Y7cEl5t8+fPx69+8Qu0RFgokSiKBo7C5PN+ALeHPuoewFCDhdBQX89vMSQnbW/j/qZQ2SrN6v984XlnY8Palfh8+idm1tMW+pKqN1BNr2yy2+XB8F5dMGJAT6Qna2hDwHgeHgqoM2INdFA/aWszdpibBEjzfkWozKjKKOhuvszh48bxPXx0z1W5o/ZxWo9Y67tXHigwnpVYHVfE+h2xuU3zYsWWUjz06hsY16c/jpo0lFbTqxO+AA3wUX1F/77dUZSXzzILYN6U92go1HLxpZO/AU69+pfoOmy8kbmmZj/u+tt/sGnVcuvgt4j9jtyKS+pJwF+Q2GWlZfR9qLGTMnHRz25BUud+RpBbDaPmRfAY/E0t5rvP+xVNZ62G6sElODHkZqbh6MMmYuKYEejXszvcFDwJjvrDy92Up4EYSUgyan3uoN2JkE309ZiYzxoR5TA1sao1r2oKo7olSvfca86L0vrIimWnpcBLV1PXRNVaIGk3adjvirTNYCpNTW6qjVphixVKRZinb344A6tLS3D9dy9AboYXNhqEHUXFUu6W0sxK9WBo396mnmXlpx+YTjHWeuNtA3deDxx9ybXwZeaY8lm5fAV+c9NN8aPfHvY7SdDY7CeeeAKzZs0yMY3HacdZV16P/EHj6I7THbPtQZJZsipcuV+B5iaG1xHGwepX3lawxEjENBtFLi0lCXkZKWYZGzmapoqIAmRqybnpuyG92SfILafyoTIrrW/CW9Pn4fa/P45f/+UR3PTnf+OOfzyNV6fOxdqttahtCZputpqkz3TPNDegYjCdZQ58t3xXUJNgcyiK8vpm+EPxCkbuKyuvwrMfz8Vpk8Zjwqje0Jh9J91ko+8IfQRJdjM8lD/SWTYj+nblOUB9yVqUbVyl4mgz2G0h9Bl/HEaecCFllp5XtBkvvPaWib3D8VmDvg3sd+TetGkTHn30UTQ3Nxsi95twLEYefx4tnDVriqn8aiXMFfwjngX9fnOftrXc25WHBMrUAdEDCdDSbm3wY9GGUny6cCVmrtiA5cXVqG3WyqKMBylpskCyxKpxX1VRjzenzcWDT76M1z+ZhZJaP/zwwc/7bK5qwDs8dv/jz+GRF9/G6yT64i3lqKNPKisvB19jjaMk+cEK9Qp4/eOZuObmu/Hie5+ZZkSJw5ufLmT+1OCq889kHki5yTNSbQUPEvpeUV2FcnU71cQPMQeG9C5EanIympqqUblqIffv4SQaO4FT5Ul5PeF7v0CXEYeZfTGHG3/4wx+wfPlyptFS53sb+107969//Wu8++67JobNoFtz4jW3I7vPcJKBloqF6VIF2h5Yb8M3Fvb01/6LmuK1GDOkP46dMGLbsW8CXW9IHRcnzdhR39hAAs7Bmx9Nw6xla7FgzRYsXrcZC1asx+ylq7Fy/RZU1TahrLoRS9YVk7hz8NGsJVi+oQR1AXW8dao6iIJCBUArJGsfpQsfoFtZ1RjAmi1lWLJmHVauWa82Q+RkZcHBmN/0Nz9IXfPa5hAeePZNKsD5iIRDOPWEY7Bg4Xz89N7HkeK2oU9BBgb27Goms1BNhVXJSmtN16Yx4MfadetRVNTFKEKvz4GX3p9NL6AaBUU90XXUEVbFbRtAvphKIOZJR1HX7pj/6bsIBZrRUFdr5s0/7LDDzOfexn4hBSH+o3eFqZ+8j38+9hiLxAe7I4beR52PAaMnmppNdTN0x1oYe7Y+U2y0ZhpMoiGVgZZ606aZlqzadouUuwurWkwX8C8JLDfatKGSTKrMDjNsqAkG8PHCFbjj0efwwZxldLGDaPBHEApH4Q+EUd/sR2VNPRat2YSXP52Nx9/+FK9QCSzeUMb4OqBJQ0yatPJoojY2ZppzNDJJww6VF1QifGY977uqtAZPvDsDtz70NK39QhRXBNASCDKVvIlx+eVvWg1p/4PWZsA+hp+Erq4oYZLtSM3LoOJrxrzVW9DYUMNQBbjtb8/g6lv/hmCQ+cZz5EkpB2IxJ1JZPuvLWuBvrqXFj6FzbhYG9O4CR8iO9Quno6V2K5+gvNK2Y560nvAxzRqjfKVsZA8ahZEnX4DkqEKpCP771DNYumS5Wf0kSve8LcOBL2O/ILci0oryUtx0822I+VtM3JjVcwjOu/xqQ0TFyFYbpKj1zZIcaGlRcSM9NSW+Z/ehUUFKjyp0VP5m6iPVbvMNgvy9nO73069PwUvvTUW1f0cB+SJ0RBWD+pRSSJyZcCMFc455a3VWITm3nWeuMuc6uVPNQ6qbqPWH8eZnn+OBp1/EU1QYM5dtoAegHmxSamFTI2+g+/B+Rjnx3qZDzAECTScVCFpqqneXLnoVjB01HA6HF5efdhz+cP0V2Fi6FbPXbDSdV/Tugt4/JSXFLCywbmuNMRTKxjOOmsB72FC8YQ389bXm3LaCSkWb2+XGYSecDnfnAXBEo6itLMfv77jDKHGVqaVM9g72C3KLJK+89jLmLVhqRM3hdOC07/8fPDldTNukWj0Va0ukrfbP1sPkI9Hc1GjupQUAWwtrkkOr4EysbFJkQzPTP+XzBXj8tQ8xf00xWqJUAty3K4jQ5jOx6b6JBO4Aq2rOeorVmcPaawmEKpOsNAgR3kADUiqbQvh8+QYS/BM88N8X8eHnC1EbiCGYmIGEpyfaja1Pa/eBgEAoTK9Hw3Uj6JGfYyxzv+5dkJOdg1igAWcdPRbX/+j7WLNhsykjtUgIqrF2UI7UPfedaQtN3YQy/Lgxg+HxONBYW4ENy7mf5+6kGPYMTJtVmw/k9RqKyef9CDbNCsR9773zFl54+aV4mR6E5FZMrY71qjms2FqGx598As2NjSwQF/qPPww9Rh5mKpIk4JYA66+sUOszY0fiaBYP5XxSUutry01tdFTDBKX5o2aC+sr6Fjzxxid45eNZqGymi64usRQ+D52wXUExuTYr+0UyaXkSjUJnvSs35o/CANUIm02dIERGHpVC0d8I3b6oXa3oahJjlMnLNFGiYvMmvubGyka8NGUW/vDP5/DOvDWoqGtkzM58l+XmP3VpNUNRDxA0tvhRWlljlH2XbPUJ5/vaoxg9lHHt2g2ob2zCkUN74ZgxIyhXVgWZlVNWnvfs3AlvfzQd9WbOMydyklwYPrifaW1YOXuqOX9HxEtiD6D787m8WJuU7uGnX4KiAaP53Y0wldQf7/wjyiurTOLEhb2BfWq59VLa3nzpVcycM9/UMjpTczHylIvhS8vki0vYLS0r11Oi/U2EURkdYcaKSJo/rbWQkOiP3D0/rcI8xs0PP/8GZi1bY9qg9S4WYUTIXSuhRKHrfts2kldlbFSY8oGxtl291agkXObtqQC4f/u1UhCyTFYRSukpl3QvM9ad3xVCBO0uVDQG8Mp7n+Bvz7yK1z6ZhdWlVaaHX9SunODNDhA0NDWYNbbVpt+9sECqj/8iGDOoJ8oZdLfQ101xRVGQk0HCSlZUoWa9oVonenfOo1sfxHvT5nKfNY5enYl0n8p1y02+fgHKzD2CLLbyVsbIUtdwuXDqlb+AKyPfHF+/bjWefeY5RMJ7L//3GbkTw+EqKyvxh9t/R4tqCXCPgcPRb9JxPCK309qUy2aNJn7KSu0xWHpBLePKr1q+t7UQmWSZ/Yxz3/n0czzz1hSsrmo2MqBKO6fSzE1KSM1TXwVzDROiz4zUNHTp3IXl7zYKQgvOd8rNplUZgENGDMWQ/n1RkJtrpve1Us1ik9sf0/mivprDNC2zDUHy3VT8yRuQMlB9hdxSEn5DXRjvzlqCfz33Bp557R2U1TbyurZrAtrbqGC8CuaB1+tEblamKQ9ZyP5du6O6rBxBf4DvYzP98bUAhd5b+SWS6dx0nwMFdOdfpqJTXUOEFrV/zy482YmG8pJtZbIjdvT6dhc7PlPf5GlI+RYNmYChYw815wSam/HUk0+htKzC/N4b2GfkVlufXPK77roLG8rLYNeslknpOOGHt8Dj8Jm+wEqeVYDKKssaSQW0FpYVtbwE0+PN2mv+7gzS+JqVJUyyKDwzsRPdX2c4gg0lVfjLM2/g9RmL6N6F4YlYc56baYh5S0PYuAUX1c1zeL2TX30+D5LpMWh6p9RkD7LSnJgwpDuu/87xuOmSY3DvdZfgrmu/gz9f/z38+nvn4MpTj8B3jzsUPz7tUNz6vdPwux9fiO+dcQTGD+2JotwUpCc54GYCNSBGVkgzzKjvtRSLLJPaczVxhBSjNXe7QgUbqloi+Gzxetz3+CuYtqKYLrw6wKiCTs1ttPh8d8v137dQeQtWM6gDG9eVMX0xdCnIR5IIEw2YJYBsQcXXat+mpYwkm0UFXMz/KDQUOMZycPHdQqavRLeiPKxbX4KahhoEXC1Id3pkSOnRWRNmSE7MM/X+zM8vk313oHyXvbbuJ8NE5avWmpQUjDj+IrjTM/k+biyYOQdvvP6iMXTawmY1lbbDPiO3Xmbx4sV44YUXSHS+OPNy/OnfQY9+A3hUfYf3jnCZmmJ9qvB2ARWGKmsUJuhstTnXB4DX5y7Boy+9iTUbt/IGLlOIarRSv3ApAF0XJJEiDnUTdcJnC6NrbhqOHjME5xw5BlecPBk/OP0IbofjqjOOxg8vOB3nn3ICctIzqERokfgsLzMi0FCPpupqs7XU1aImEoafx1JSPBjdvxcuO/lI/OI7Z+Cq047G6UeMxoA+uUjyqZKPsb56Z1GgRQwzlZPce37XxAZ6Y+vtmXxaQE3D/Pyrr+PF96ZiS42sOMWBh/Xu+yPWbC2DLRJDUUEOycH3IkHqSdyH35mCHr0HIE2hlqMZzS47am3Z4qaBRbTEu0fRzPysq62FN+w0hkX7fGnp1lnmmviFbQy1bvQeNQq9hh9hyiPiiOKe3/8JpaWlxvC0deeWfUZuaSkRWy8mZzu3sDPGn3U5tassIPeob2WbwSpawUGPQIX4VXeXbTfkpgKif4daf4Ru7Id47dM5KGsMksQuHuf9WCCJPt3KSuNVUENrJZQcEvECkvDKc0/FWUdOwJHD+2FIYSYG5CRhUEEWBhVmo1tGMnw818k4MtDUhOqSUtSVbkVTVTWaSWxt9ZUV8BdXoGFLGfxVNcwXLbLQDI8vgu49cnDUmIG46pSjcP35p+NQPsPuZMxvZgfVJBZMCpWFfplVUfiZkHhlr0KMIBXUtMXr8DRDjLJG3psegFGsumg/w9ryalpkWu78TFpC5j3Dkn9R2U6bNhuHjemBrHT6KWFZbRvqajabV4hH3NxUljaUUkE4PE6kp6fDEXZj7oqVpvhyu/WMn2m1UCTw1ZLSWlCufGk46fu/MDG40rR5yxbce++95ugBTW5pJ7niYRJbs5i+9NJL5nuMVm7YEacivaiXIbYyVyt0th2sm0mJON3Wgm6hr+jfK9m23DEbGnne25/OwMJVm8y661oaSJV6irHVgUXTC4fsPkMUnZBiD+HQIb1ww+Xn4tCBPZHtiqKxrASlGzehrKQcJcWV2LSxFMWbS1FVWoaqkmKUb96Auq2lCLf4YdPcaaZbqghpbc4A97e0oLmynvcpRW1lA4IttNSUV1npdLcDPfPScOGJh+O6y87EgN5dkUTrZQZa8HrjFnJL5IP2SY6U19ofpBeysrgcz7zxHhrp4uoggxLr3P0AxqrxcyPzT4TQ7Cpyc+ctW4uHn3weLVS+f/rHSxh49q/w4zv/jbseeRG//svTCT0WB8uyOYDNWytRmJ1Bcqegyh/GZ7MXMpOd6DlyAs//Mh2YUWZrG0jZynpn9B+GCWdcSEXtMJ2rXnzxRdMt1YSNbYhvndwJaI6pNWvWmO/Jefnof9S5jLXpUlK2VBBm3G6bQvdk5jpluYEmkmXXsARbseuS9Vswc8ly424b28d3SLi7KngbC0vvpTHFnTO9OPuYiTjnuMOQ47EjQNevlqT1NzYYkqoSTETTDJqRUMR0qAmS0JoM0YrVzWP/B34qiCBLSmR0hGwIVTWieUsFmksqafH98DNZQT5AXXP7Z6Xh8nOOx4UnH4HB3fLh5T7VOagLZsIimW+GMMpjXac43YFlG7ZiyrS5CDN9+9OED7JomtiysqycShToVdQVLVS0r0z5BOVV9Zg0fgxuvfwcekhHYDXJ++70GThscB9eqbLSJi/FgQXLVmFrTROOOmQ07xnFo2+9hYb6CJIz8tBv3NHmWTsWgZVjuyiUPYDK1wrf7Jhw9pXI6NSFsmPH1q1btxm6tsQ+IbdqyP/617+a7yq4YWPHInfAeMaumvg9IVRtT25tdrn9/KbVGncFrR6i01WT/O7UaWikq6foW4IVogFURZuawxRzuyIu01zVp3MOLj3nZIwfPgBJdDtqqmu41ZumDllhWVHVWIuA6i2mqZWtWlQJH79xkxCqbuzLm53xuAkDJGxSeozlIzE/WpqpPMorUF9awxeiAPOOAZcNafZGjOnXGZeefjzOO/FYZKqrLY9KVHUXq5GGbySCM12aIEL7Nfx0/rI1KGfaNZPq/gCKhwQHJSUldIxU0QnkZeWipq4Z0xcuwrChw/CPX/0Q1116PP7vmvPw39/+CE/+6Zc47YyjzPV6C1Mdyzhk1ryFaAzEcM4Jx6OsvBSPv/MW39+NISPGIK2wpznfFHwc27+1DTTldpjullabTe88GMMmH0Y5oFdFUr/yyisoL5dn0nb4VsmtzhMRCubDf74flXWaRN4Oly8Z4y67FT57AC0ULgmYiiNqJgluG4iIIpaajJxuL+SY+4MUdpae4cyXEIHXnL+2uAybKoIWuZhuEVAVIS4NHxQ9+ZuBG3p2y8Z3Tjse/bJSkRzhe9TW0Go30G22xmfL3bOaquzGAktsrNhONdlqymIiJMXqYEJFUt/QjIqaBpTSDd9YWoXVm8qxatNWpqcCmyrrUFLTgq21QdQ0BhBkvN7S3EAXfzOCVRXwtAQQQArfwY4MnwMTh/XE1RedicFdC+FzaeIIyxWXBVFNcpTv2uLS/GExCl0MdYEgiqsb6TK27ai51sB4KJQNDYAJUBlrTMCa0gYEmEUZyWlITnGjsqIaWzZuxW+vvgC59JjAd062BZFBl7soMxupvA42P/PXg6SQH3UVW/D8jGW4+NgR6JRtxyvvz8TGTS3wJtPNP+IMJFMOVSZCwmJbf9uOIlqUUOPJpYRtHjeGHnkWUrKyTfnPX7gYUz76CNGIn55TENts3DfAt0puZdUWxtrPvvwaGURXlH7K+FMuQlFRZ5ORsuLWeULbWW7dz7on4PUl8VnMaLrCu4IsmjJ81Zp18T26glafOW5snsjBPW4qgJH9e+LHtAS5aT74ubOBcV1tXQP8NNd+uwv1oSg2lldhxYYtZiTYqnVbsHxTKZatL8ZSfl+yeiMWr9yAz+cvx1uzl+PDhasxg78XbtiMxZs2oLihFnXBFtRRQCua67GuohQL167Eso3rMHPZRnzC86fM5bUzFuKdWUvw8ZL1aKyplXE3sbs3EkafDA+uOeMInDh5PDKTPOYd5KbqHSVq2zWcDcEglYaWaYrv2ReQ+7otSea7DVto1ZTnnXMzkeKxoXNOCm669goM7qFOIbtALIWKmeGP24G3Fm9EmjOGH55zOjZSaT/57udwBBqQO+xoDBp7uGk92NuQcZGcJ6rseg4chqIh4/m+6osQxb333IMmvwa2WhN/flN8u+Rmqb3/9rvM3FIjeEkZWRh9ymWWIPFtyKltaIN32474fSUw6igitdHYlFhmaCcQuelBaBF9XWppcVkSq+eRnGl1Qx3ZvzvOPPZQ+DJdJFEUrmYbSivqMXv5Sjz+9LP4+0uv4YWPPsP8NZtRWt2CyhrGjZUt2FRTieK6apSTrM28pz0lCfldO2N473yM7F2Aw4b0xTFDh+LE4aNwWM8BOKR3V27dMLZfD0wa1AfHjhmOyUMHYOKI/hjTi8e6FmFM127I87qxfuVS/PnJZ3DTA3/Hvc++jPeWLEetg2lOdmHswF7ITbcGzJgBMCwPRvDmt8UmUp0vHDAdfXYojG8d8naUAuY2k6H2+9UbN1kTLVA5ufk+BdnpuOCkI5FF72RXsJpTo6hqbMFbU6bjjz//Prp17oS///cVLF1fgqjHZyZUdKdlqfvDXoe6s4hypmOWZMmXgSPOvxJwuozntHTpcrzxzvtMt2j5zRP0rZK7ob4WU6ZMRXOL5ql0oMeoiUgrUsWHJVgJy61ssLa2QeKugsMpt9+GZn98lNROoExRV8bqppY4Aay0WJ1o9BlDl7wMnHrkRGT7qIcZe9cGQ/h44UL867kX0dIYxOWnXYCfnn4cLj92Ek6fMBRHjOqNSaN6YtKY3jh+2FAcR/IeNXAgJvTqgRGd8tE3PRVFdNFy01KRpLmZHAHGZy0IuZrgDLPwuTnin66Im3G7G1mOCNLTXYwXU5HRJQN9enfBqUdMxi8v+g5uv/oaXHLcaShw0l31O+DzOxlSWHG+lFcid+M5b/6aXDdeS1v6Ta2HUmNSqLzXBxXRmk3FLAsXMtLS4HCpkw4Vtc3qgLor2KDyA5YtWIb7b7gWY3oX4sVps/HYm5/CZY/gsEuuQ+f+Q5gnDJ++BSZY72VBdSdaZrr3qEPRY/hY7lH35TD+9tBDCLYEqWS/eeXat0ruLZs34eNPP+dLhuHypqHPxJNMTy1ZQ+vVLZgCTeRCW4Il7fb6zPO0zvOuILe8upZWNZSohFJirKxSX2H1djpu4mjkp/tMqjdV1ePV9z9A6cYN+N6JJ+OIESMQ8dH1p8RoLLosvbSxI0KHSzVCFEozTlsDP/hp9QoTnfQc3ZHnR72Me5O4pZLgjK2dfmvj97CX1jYlBld6DlKzOiE7qxD5uZ2RV9gVGZ2KkJTuYP4GkZnlQL+BXRnfRczi8+qpps5DEix1UdWzTN4bCyfwkwpWFtLUA+xDKElWrlvehGZ71c5uhXlISkrmu6hc1H9+1918pXT1huPHHYIuGW4sWlOCO//+FLSwX4+hYzD+7Kt4H5WNPLK9/75WX3emyBgx5bDSb8Pks7+HqEN97mJYsWIp5s2ZbVo3vim+VXK/8dqrKK+o5ktGkZqZh95jjiBRWoxMqSD3PmzwuK2hj1ohcteIoSUQMjWsicSZwqdwKct70Q0e0q8n3SsqCB6bO3chJo8YjRMmT4CHXm/M1oKUUJDvRkeMm1yuxNxqEjb1B9dMIZprXRVqaiOXkErQVCMvokdouSOOZm6NsDm88CalIY1kzivojNxOnZGdW4jUnCyGBLRkaUlAEu/DOF8VlkFbCu9N7RLVbKqqK1DHFE24qFpjCpVCAQmXea8du/Naaiz8FfUR3waUBm2CBoBUV9WgocVPCxtBTorPrKIqYlh1ILtGLJbKa6gInUHUNjfgz0+9h42bq5GamoKjLvgRfFSMqmwNxztO7W0orFMeG2XPlKu+Q7+6DB2Lwu591F8KNdUV+Gzqp9ASWt8Ue53cxs2jtfD7/fjv4y9xTxOFEOh6yGTk5XalFo3PiGKdbmC0dhvmdUI7G2vlTaU4R1BH8qqCI/FkZXIC8izqw9SjqhnnJgJowEos5kVKGnDxSZORRtIaq0Finnb8oSjqmof0TnmMnbsjNa8TYhQguwaCaL5sbbKa8v0kSJqZz0UB5aednw5uTrcdPrr4KalepGVmIj2/E7KKuiK3ey/kde+CjMJ8JOdkwpnkg93DPHM5eW/eh/9V661Nham30SLxJpZWezx3mj4D9BDskRY0UGrMjKlGsTD+MzG37mOdw52IUgGo0+2+gohmJsKQEET92FRDJdcUgM3tQWqS17jpKjuVmSo3TS88CpHIYspY7y2hsjdS0SXDHrLjqTen4qWPprIsohh66lUYNOkoM4miKGD1Qf/mbvDXwQy1ZdoMsWPq9CQlb0dmahG6jzvUsDEasOP9T95DY5nWkP9m+FbILXz22WdYvno5d6jwPDj61DOoMZkACv23BRW/LzlZovzVlptCX1tbhwCt746Q4PTs3AWpKXShdBNCBaVKn0RGamrm5JQUWthOSC/sRDeZpM/JQHpeOlJzs5DcKQe+7Gxa2iTEfD4407ifRM7p2gXJnfsgKb8rLUo2kngPt8dj2uXbCsFIBC2mfT+eeIMdv/OXBFBlZhXbPgIfrmRxE78bm5oYRkWQ5POgi1mn+4uJ0xLJ4rLVPCmPSOMLVTPNY5FmvPDhDPzukRcQogcz+tCjcfal36dC0BxrUoqWB2Mp+n0Du8eBngwTUun2yRucu2AJirckWmr2HHud3IlKsv/85z8mttSyvF16DUHnwcMt14O/9zYUQ8sayHZ7kuSyarL4XfdQkzZtbG6meyoLFpcywkmt37NTPjy0mhqdJOHQP9PfIy5veo4W+JO9t3tccCV74E5LZZycjGnL1+EfL7+He555B3954UP85cUPce+z7+DOx1/Dbx95EXc++gwe0cCUkgqEqGDUPi4Hrq2gMKMlSIUVV7h6L+v9vogovZKEUt4XENkE68OOsspq+ENheOjpZKancY+OKN2ygCot/dJvy9rL/dX88I5YAG/OXIJbHnwSjfQcew8ZiZOu+T29qmwzM62hNMmk+1l32TdQGNZzxARkpHemiomiurYRb731cvzonmOvv5FccnWv0zzkKgxVMI099gwEnXSXWIr/2593L8DILwWZz0pNzzTkbmhosoR8J0KsPZrQMH6hgQic6nOiX1GR0fEaMJIQQmFHipiwggRX7TSdbtQ0R/C3J17B8x/OwcLiRmyuaUJJgx+lDQEU17XwdyM2VtVjXXkd5qzcgAeffA6rNpXyPuZJ1k3bAJo4UZVlUrhK+45p/jK2t1zsS1Ahs8y2lJShqSUMn9OBjNQkq4CIRPZrSKfIKVLL8snDikVC+GTRGtz4539ja3U1Mjt1wonfvxHeLoPpMZLYDJWkECz1psxI3O3bh57sy8pHt+ETrHeiTD7/woumy634s6eK9lux3DNmzDBdTjXu2JORhb7jj2D2e008q9E93wb0FMU86ZnZ/G5HTW2tEhc/9sU0iNgNjU3cq+PbhTw9zYsuOTnco1rO7UfkomtL1BMk9quQgjzx9Q+nYX1ZLeM9j9Elrlhwp5sKQxVsjREn3vx4OupbuK8Nha6WCk1txpaVk1eid9+JCGx7gX0L5b/qNJtaAnSpgRSvC0UkqY7sCJWr2cd4Vu335c1R/POVKbjy1r9gY1klQ6EuOOP6P6HbmOOpBqyF9i1vzmrJsBr/9n7MvSuYqaiZ/FGnnW8q+DQAacnSVWZI9DfBXie3RoEtWLAAdXV1htxd+vaFNyefL6B2V2tShG8Hlo5OS89godpQW19vppbV/i/Lsj8YMuT/csr69OlprIfuJCLvMumSM24RuxPFVbVYsbHEfEc0AG+siaIUryn/0uZWTwrGhWG4Uayup8XFRgjbCiUlpdRnFOZt97TeY0fo5//myLeMbQrNBj+JXVah2UpsyEhLMRNebD8uqFStylKVy6pNJbj29vtx88MvYmtVDfK69sR3f/sw+kw+g5dJgar1QgSXRSS5lR98XQVS+wpmXTh6HAVDR6NTUTcmhkoq6sQzzzzzjTyovU7uarpEstyCYu5ug46CPbMIHlQz5nYzk9tOeHcFVZqoVt7JGMyVls3fEfgZ8Nc1WNMchxyy3Xa4IxQR5oiWC24IyG1TzKspclUDG8G4ngUIOenacq/aq2W9BclaYtsREpj1peWo98tVZGZTkIJ2zd0mS/G/mzo1xBwhKoAwAnRDVxaX0WK1Pn8SNceWJZNrK7pGsLFGiw7yffQcpshyZXe8v3FQYTOVeHtdNHYJdcfUdEmwBRlKtGDj1iqqvgiS3MC8VWuxtLQe5eWl2FgdQklVI0pKa/DB/HX4/p/+hUO/ez1e/2w+9WgEXYZNxqW3/BNdh0+GlqLSK2lOOattXGWrt7XKXk2F+woaoCTj7XC6MeCIsyinLAem8YMPPkBjY+MOyrh12OslWFVVhWXLlpkEJieno3P/gWaKnIiWTSfZv43VMYzAmgxSbXkqCUTh5e+tFZU8ZtkpaW/rPFruUMSsGGJlqnU8JyMNBcYljDN6NxBmgKs22jA9BN3JwvZvX4aa6wSLmjaUlFWgObAH7iLz1BJYi7xWJw27magg8fgd3yJhvZVHoreLRSKHdV9BOS6vSJ9B+uV1Tc10zyP4YOFmxs3/h5Ov+hXOuf4PuORGbb/H0dfdhvN/ehNeee09aHLb7J59cPRV1+CaO/6OTgNGm3BIr6h7Wm3N+xfkeVgVvg6Mmng4bO5kpjOEsrIyLFy4cP8ltxKnRMq98KbmoKj/YLM6pUZ9RWhZrPm/9i4sAusv410vXbuUDGUnSuhVKAtU6Mq+hJA3h0JobFI7o7Q6r+XBvt2KaNGUXdwjq7IbCATD1vpU0sRmj0Wer4RJi1xFB6obmkED3mpY6shqhTBNPfxXVduIhsZmHtT7WJ6C0vLF1Fj7HHxN0011H8F4QfrCfKv3h7Bla7lJZ5bXarqqq6nA0nXFmL98JeatWIuqTcX0cFxI6TUEJ13zW/zwT8/h8Itvhy2vJ70yH2LqlWfuqPLb6yLfaojWVuzvQEZhD+T36MdvDA1rajB79uw9ds33ypuqhi9Ry/f666+bT23Z3fsju1ORERsjwNws12jvQqRVBgpOTwoycjqZDCuptMhNHcMTpD2tc2obW0z6lUrRUX1FBva0VrgwQrKbSZbVaWziveK/ret3931tZnBLxPSSax1EDkuVWUTWHdaVVCBqtBc3/t/RMut881Lcb4yEaunbsH19T2BiYpZRBZVSLZWcJph8/9E7MeWpv+Kxu2/GqKEDTBl27j8MZ//uUVz31Cf4+dOfYPxl1yK9e3e4XAG+jqaZ1kLIIfNiVtv3/kfuBCSjnrQcdOo33JSZRugtWbLELIq5J9irb6rETZ26fbL3AeOPYDzBKJbxr2JYK87Z+7WUEnQJi7EILi+8KXTNuX/Vxo1G4C3hplKy5B6llZX8oohbsMPjdKIwK938ag1MuzItz47ZvHsVZJaFF70SSqk10DWmvV0/+GjVIC9Zt9nE3kbRKQ38b91bX7YrMp2jmmkNPNxXUC220il7u25TKT8dyExJQfeCfHpQXXDMhFEM8VIQpbtdMHAsRhx/Ngp6jaAvmAFv0Gv6Uqip0qytpppx3sHMgGPKdN/Viu8KKivlvybycHqT6N0OBzxWHcC8efNQq5adPcBeLUFpnR1nduw/ZgIznu6q6R1E8WEhtP10SjuHsk+bw+Uxbd3K0BVr15keZVbWbkd5VbURdbFe/7Kzs5Acz+xWgc+QK28MpoGesuOTdo0YhTLJ6zYWq7WQxVK6TfMc/9XTA1DF3vZc0N8d02F9N6mzO7F81RpjLfcVREzZWSmbjz6Zyk87evfoAafDTT0UZVjXjJrSzXBEgsjPy2NeuZjHanlpZHzttybFsCVTqbm5Wb3WrDnk1JtNynb/glxylYpq8dU7snPvQfCkZhjOqL5Ks9DsCfYKuWUJY5EApn36ES0jBZT7vPndkddzsJmmyBvVeGES3BZg5u/9GT+s8bGySnxqSjKyu/WhLYiitLwFTcFm7nfBG9aAC6uPcWVdgIrHajMVQTKTXXC6NJWx9W67C58tRAVMBSbvIL7PjKM21IpvPJDYrJleSE27DWGHEz63yN36Jhrd1xRtzGkEf3NxGRoaWrjfsoZKQyIdSoWmcFJTnHwFdQLRkj2fLFzHX0E5tqZVw/RN5y+d11awUinrqopVK2PVNBVi2pyRMD5ZtAFTl603fQD69e7DNAPuaASNjmRs1oQUvDqlcy/pUHMnDZvUp+JyEUVjBMyRHSy4Bonsb1DrjfJYhi7K8i7oPRBpaQVWWYWjmPbZdPMmIb6X6YW0m9g75DYWy4FPPvmEv6SFgf5DR/KvrJgpiW1I1BDvTUiAlQYJsyqLkjNzjYWqb2jAxi2l5oiVFRouYTdL7ErILMSQn5tNorW+D3zEQRfRpfnLrKcLEjCRRJtGOUkQE5uOGT1ufseQm50LlyfZXNcahBxaPDFgtkaGBgvWbKQS23VfeitU4EbNJdlRCqfPnIN15fX8RoUYUVddKQXVkbRde7CUrZrqZFW3D/6w5nNbX9GADz7+FHX1DUbBjhlqTXgoKAatr/ebtKZnZZp9BzpU9sp3VaT6UtLQpd9Q7qX3Eg3j7bffMN+VL1YNyu5hr5BbVGpoasLq1Wv5w6rIGGCmjrWIHVfS3xoscildVuxd0GOgqTH3BwLYUi4X3BJoHQtSdmvqm5hWK2vULJTi88DZGpMdh5dudfeifLhpwROFp0ENVrbru6H39o35o7hQ3kNeqhuHHjIMvj3wy/UMp+mwEUJpTSPmr9zA++/6PkqbpVhYcioiClhjIIxXPpqDUIhxIC248k6eRVuOnrKstfEdzKeUjO7f7A/ig9lLsXpzMdTP3el0Y1C3PCM4MhwV5WrC5E+mJyml9XUh+x/07qKtNeBFpaH6Kb2khrzO+vxzNNEQmfJpBXlaLzm7BRtWkthVNTX8ysTQehX1lSayjqmArG8Smd1P7J7CZByfKcKq62FKflfYPT7TNLR0zSaeQQXEOE1WqZr7wpJwnq+0+dwuWu4c/mx9OpPoYh09dijG9OuKrCQPXLSouqfKx7pbIgdkH+UmM+6ix1OQlYrLzjgOffLTjEvaWtjJU01UoI467308nWSRh7Brd3Q7uSQQFtXl2awqqcD8FWuN4jGkN2h9PuwKCgesOdqp9owDp/HmDsxcuBKfL12FdaWVpq5vYO8eyEv3mVSK7BVVlUyTWj58cHlb79nsb1DeKg9MORjZA3qOGG+GDKvCt6mxCXPnzDLEttHD2V3sFXJLSDZvKUGLX6tjRJGTXwBvVqFJvIT524YhlPmrKC2C3K59kZKRjRAFZcPWCgQ0oIJHZEurabWVQtOhg2l3kpDJyRKgPUg3/cksnxPfOe1YXHHOKWZO81MnDscJE4bhULqZI3oXYFCXbPQvykL/zpkY1TMfJ04aiSvOOx19CrMo/CG6q62PERU310U8eP2zRVi6ej3fY8dONP8L0wUz/n1H8ipfPpm7DKWNVv7pvrLebQV5KnqeKgDl1zRSGb07cxFe+2g2ZSeArVXVZsHGEb07IzU9xRJuXlJbW29SmZqZQYJr5tMDG1Kmkk51PZY3IwOUlleE3KIeNDou481NmzaDVtzi1u5ir5BbhbBi5So0yJVgwrJz82kp952GNRlHSIwMcZmW3n0H8O1tWL2O8WhTMzNYiKK2oZHnGNtlVJHTSdcvWX3qWo8gPNRtNvgQRp9O6ThyWC+cOXEITp88HOcfOxaXnXIYvnfG0fj+2cfg+2ceg+/y9wnjh6EwzUu3WiuauNBsuqu2DqFwC974dCbenbuU8TeLmOYv0VV2Z5AraFlvQXllbRq0sq60Gm9P1Yg+CYtI2HYiE9TEjTLZDFuCfN93p3+ON6fPQ2PUhcrKrWYUW0qSD5NHD4PHm1hPXeMCrH7/Kanppk7jQIe8StOTkP9kYERuKfU+A4fwdeWm2zF9+nRz3Cqb3cNeIXeQFq+mrBThEAuOBErt1p/Wb99pWAmv3B5B/YqTo03oMelsHnBh+aYNKKluMNnWHPLj8wXrKcKMfSjY6uudTIIV0KX+qiV5pVm3VRSSSGpLVQ+jmEPLDdHV5H1MRYghme5uh8fhosvvQVqS18zoqbnkfEkuliWtrEPNWNTi9CySIoqdrWGMsnCqdFIFk56pPZrgWrXaDlsY/kgU68trcN8rM/HhzMWIhjR7jBXHSUR2BcXmVsxt/bJghQ9SCp8vWYH3Zq5EIOqBO6b++IL+ypVXqKN6gsSexGbF8VYqrXSb0Ij3l3jqW3KYHlPUiZJmN55+bw7en7YIQVrvaLge5VvrzWT9hQVpGDdsEHxmIQfmH5NXWcO4n/nqdtNgUPke6BCx5T1J5lSustbMUXQaeSRcUXq/PLZ1/TrU0ROWR7m7cfdeIXdDfT2Wr1hhXCghK7+IBbHvJrnfEZa4OTBg+CjYUzJpBZrw71c/ZHxZjakL1sXXo4oLKPPQ43VDXdFV5bUrmJgxrjwUO6tZI2jzmNU/tZSsar6lk1VhElOfet5c471VZ2dcraiabnhOVO24UiIa3GCtIyXLG+K9QqbNVlbKahMVOZSmKDV8vRa0W1uO59+bjgeffAVr165VUnhOvAD2EInrpa4+/HQ65i5djcaYxwihmm2sphuLcFqFRUpHIeMXRY/5zXfRnWSR7CSpUbR835qYC3NXbcBjz7+EGfMX8B15Lu+jCs1N1bXQQoznH3sE8nLTTZOqySzevFydjHi9NZPtXhHh/QJde/Q0dR8SRMnpelOuVpnsDvZKzgT8LSgvrzCFrKmCMgq68Un7rhC2CxwJRkFTW6c3Mxu9ho9jVjkYm87Df158A299usD0KxdEbCOQcmspjNbMlTtHIrtlqayYiUTVQ7lHtA7S6pc3hTBn+Qa8//kifDhnMWYsWYMVmytQ1RxB0O4zykBtsdqsZYcCtJLcqLmtzwC1OC003dfEefWBKD6duwJ/e/JVPP76R5i6cDVqAnpX621bU7O6M1jvYBxFPiuCV6d8hhVb60x+muPmfaXUaHH0rtyvJ1qf1vtrSwzYkPch6x2i17KlrgX/fX0KnnnzQ1NxZhZSlPWKxGgY1iIYjaBPYT6+d/pxLCFNMmEt4Kg/Wu6IUg+7DAbL82BFCmU0OSOX7xgzg5lqqqjUTJ7uHmjlv6EE7ASrV67A+EmHobq6CmkZmbj4T8+jz9CR1Mr7Nj6yBM6qDxYWvfkY/nvbjxChNJ50+Hik+JJNrbimf9L6Wepg07MgCzdceioJpsqknbd1S2xllyW8IrYEWLWcZS0RrN20BdNmL8D6LaXGY1DhyPUytOe5suUap9wpPx+d89PQpbAIWWmpSHa54KJiMaJrljKic06T3xAIYXNpOVasonJYt9EMLAlRecSoPFUBaKw5U9IWUG4pz6x8o5gwD9JTkvGjc45Hl0659C8YLhilZ8WFmn01oRQlVbpSf600MVzjqRUNfsxYsALT5i5CS1DBis6RArGetWLVaixbsw52nwv/+PX1OG/SEIY29BCiqYg6WuCgd3Pm9bfgg1nLMfLI03D2r++HJzWLVx98aKzciP9cfynWL5uJlORM/O3Be3DJhd9Vdu8W9gq5p3/6CSYefrQp4dy8PHznbx+ga7cuJMuu49a9CUvErE1mJWFh6resxt9/eDoqStaid9++OKR3L1oVHuFxT0Q91nzITHPjJ+cei67ZWbxu51kl4qlGWhcqVq6qa8KSFWswa8U6ErEMGsIgJ1rHdYtEfJ6In6yfVocO0VIqJC05GencTPMZya27N7YEzeguVWXomU5acot8vBfvIYpIcYnibYLE+yrDeGelUdLSOSMJpx57OAb3LITXZtXEa+KDWHz2Cus3/zCNIm+QCmjtpmIsXrMBS1dvMoNBlH614VpnM7aPxlBaVoGFi5fSaodx1lHjccd1VyEn2QrnTB0DwwAtyHDcT35JBbEe406+AKf/4m44fdYqKgcbmurK8N9fXYnVs95j4SbjjttuwI2/uEUrDu8W9oqvvGLF8vg3G1Ko6XMKuiTKcJ9gO5mUIquCR90pPbldMXDEOGim4U0VNfC3tMS7J/JEk14b6ppasJyWJGK6sO4cqjzTIyrrGvD21Jl48Ok38OxH87ChuJJEpG3mpoontem6THwdNJuus1NgVdGmxHl0jFssEkFdYx02lZVgTclmrC4uw7otW1FRXW269WrSCXdUwzctm+nkfbRqqJKsgf9tBcuqSn3ILktx8B9fdHNDAE+/8Q4+nTMPfnoLpqcZY+8ddYGNSskfCmDhkqV4+OnX8NirH2LK3FUorQ/RAqtKUTXCtOiK27k1tFAhrlqJ5nCYXkwOfnLBWchMsRaGVBdaDWUxOoYImrnXrZlsHXTxD1Y4PUmmGVkRrYxAc5OmyYof3A3sFXLPm7eIQsovdhtcub3hdcsq7btCkKssWLXMlgMtsnk9MRRNPAXO5BSEG2uxpbIOzogGtNA1l5urnlnhKD6ZtxJrKjQ8VC6mYmoRKUrBjqGiOYCZ66vxl+c+xC0PP49Xpy1BcU0DH0Rry+fJ2ovAUij6rumcZVkTm+4pQdWW6KEmF1uW3rL21jmWFSTF6BlYm0ViU7vK7wmXP/GubQHTJ18WOU7tbWRn2da2AM9+OBd/eORlfDRvtZktpZQKctPWWsxdvgX/eW0qbnnwefzj9ZlYtqXKzEajikUX804ei5p6onSxNeNKY0sz5s9ZiObGJnjTPLjvmvPQr3dnnucwyzo7bH5eC1pt1d4zRPHLjwnC7k2GXbWdBym87iSkqBlZr8sSLi6rQYu/0RzbHewVcq9evdqIgQShS+9+5ntc6e5X0NDAfoeMQWbXoXCGGMuWFyMa0Iyl+qfUS7btdLMb8dxrb2HqglVYWdaAVWWNmLNyM17+YAYeefZ1PPbkc7Tua+la7vCWCTN2EEIVXFJWUpRaSunZd6birkefx23/eh53/PtZPPLKW5hOi11DaxyyyeKanNy2SU3Ig3ejGUEqwjnzVqGsOYj01GT84crLccRhk+Muu3WFpVjiv6UYEnPf7Y9C1YbQ+2nJaeM08r2LN28muXc9JfeXsVfIvZxuuTHcdNkKevVnKvdP7RqjxUvKzMPEs66QuKGyqhzVdK2tbLEIrooxtVNvplV/6f1peOS5N/DP597EU298hI/nLMW6snpaY6sdXCInYbSw/dvBBrnpsuKGeMwbzU/ndyQhFEtifvkohx56Py4zws0TVV4qZyQRX0QN3fs5i5aiqqYWPq8D11x6Pi45dhKv5bnxWngTFBjvZLuomnoKfloldPBC4WRyeqYZpiw0NtQjZBTb7qHNyJ2YeUW90kpLtfQtXUTuSy/qzu8i9/4n7EFaZSet9+iTGN8NGAZb2IFl69ZDU5bzVcwfaU+lXx0LWnigptGP2mY/moOKFVXXLXdan5ZCsN7TEvyDFeqGI9GRPbWa7UKmuU51AaYeQZWLtNYmXOAmw53IFTk3Yebr1soqTJm1AuXNDSjMdeJP11yCa847ma62clK5qo1/DX/1x3zZBpPDX9x10EF5lpnbyUwNJrQ0N+4bcicGg2h+8qiYwZ+Ksn25BVbsaZK6f0GCIyukJWFPuPwG2HxpqKipx7qNm80xdb9U85LVbm2dbzZeZQmdJYjmoM7VEQWk/Nz/3rbtYNUHkHrMF9N+bTaS1hHmpl55UYS4Be3amBfKDMXutL4BKsg1zN9ZCxZQSzTjyNFD8PDt/4dLTzmaCiJI1UAoD5mfidYJqxfcDqIalzUZk4MZejuNXrQ5rd6d1ZUV1niN3USbkVtQZtfX11uFyQJQEXjSMvhXWt4qkP0JchslhO5IGH1GHIF+Y8arxobCtwH1jRpAIvJaNcUiuFUhJ3VgbYIlfyK/SE2takmyjujAQQnr7fWOyhlZZ7fpRWeLOumtaaIFO9xhCmYkyk1dZylmzLdgKIwFixdj2arVCPLyn1xyEh666Xoc3m+gyTZVsrmN4oj/i2ehPmzx+oyEERFMVh/kcDDmNm1ffNeqCpH7q1an/SLalNzKeENu/YiG0GxPRrrWy1IHkLZ9VJtANd6yCEHGzN70LEw85btIzsxBfXMY6zeU0APxm3Zv9R6zo8UQWdbKWGjrLQ3hLYJL6PSOiW27EB680ItrE9kj8DtViy8ry7cnuVXmQf6mQadH1Ij3Z83FFlqf4b2K8NLdv8VvLjsX+RlehJ0Ryo7KQm30uqVcefWtl3dglZNmKBEkYw61JvBTCsCcf5DCxZeLpKfCbXPBYQuikRqxpXEf1pZrloy4jjXurkujdlTY+6Gsq090op+0Qof+YyZi0JGnwhGNYl3ZVpRWNMMXVoTZhDBS41d1YFdIDap7bAQBGpqgx848ZaYGo1hcvAVzFsxFOl32ay84Df+4/Vc4cnjf+FW7D1lqeYdOp9q+WW5mO3jpLbWZmpZODlnLUAkynruLNid3S4s1akgTA7rcdNX4KWZb1m3/g9Iqi6EvEW8GTv/B/yGnez8EgwEsWLoKTX5VGDGWNIM2OvBVCMcbRVzUlPawHfUtAXy2eBFWrlqGccP64bG7b8WNtNZ9OqXR+d792DEBy0CQ3HTfVdcRDPihaYgOZqSkMq9oJBP0qatVf4vdw16x3EIsykJQG91+3LFfvcE0nFgdJJxMr5rGXOmdcO4vf4+UlEzU+xsxY/k6hIJ6h9YLY3tDomNOkHlZWVWNhfPm0qWM4bdXXYRH7/gVDuldhCS64Oq773fuYacmYzmsryI3ortfe3zgwUYvxUUe+bbVP5SXl1lfdgNtTm51MDBahonx+pL43YpQ90eYeE69vSiQVio1jDGGgqHjMfGsyxHzJKOishJrtpTRLTq4LURbwE3WqovkstXLsXb9Upx73GQ888fb8IPzTkUaA0h1OU20WWuc+R6BZeZwqIKWnkIoSCNycJNbLQxmuLRemJs1Mmz30GbkTtRiak1hC7b47Bltrj/aDDGabXV/VFdTxd6mFsgWYmb6MO6iH6B73+FwB/1YtnEN3aHdr8hor4gpzg60oF9uDv7zxztw4/cvxqAeWcxTkpp5rfHaUqTqmqy6jNZCMbbkzK1ppvVbhuSgJjfB93W64/VW3Bob9mGFmt/POMh8s5lleIw15K9va/GBViGmGVrUEUMCIttNC24mEnQgKaMzLvn1fXDmFyHa7Mf0RWvQ7Nfyu6rV1QAQddbQQI2DNxa3epSr3FQvrc46mqFVHXb44vyvIlVI46DUZWWl4fzDR+CR312H/9x9I0b1zUOK1zrJGjRDUpv2anOp6WPfWriYorAUsE9pcMLZVIMWm88MwtH0yOo4rFVMVTZhHPhzqwWZuY4QS8Br9VBTi0JDU7NRcruDNiN34oGaCjcBuxlhdeBBEyOI8GldB+KCG+6GK7cbIo2VmLN4JRoDmtheK1goZtRAiNbPTnqgQFbW6nknQYmYdxV5bDE3LTHJ5IgiKcmOSYN74uqTjsDYkcORZKyMGMzrTI+ftpMBNaupHd1jer7FGDJthbO+kh6B11R6ahomvz0JAbs1HdTBgETTnyCGRcK7Hx62GbmVCBHcWkDPgmKjAxGyUrJYEacXvSadisPPvZKM96G8ogJr1qxGiBmsUW5qa1X3y4MXEid5NCpHbWr10Ig6zQYTNBNZnHPiETjjqInok58OD82yNT4t0WWpbctfQ0SdvHuGxwMbrdrG9SvwziP3whMOmeZLeV5mJRWWi1TTgQ7jIZnPOKzi2G20We6L2Fp3a3ddhv0ZfkeyEWlNhmBzunDkWZeh75HnmDHKxZs2oniDRoCF6frJFTwwvZPdgeY6s3reWVM06l1jDhdyM4ETJw7H1aefiPF9eiGZbmPQvX0SSmFvVKJqProoxSs9yWfGLYDx/YzXHsPr//w9ooFmqhU7vS55F0GE9vGsP20FETxhMKWzWuMNtxm5ExVqiU/hwCa6xkbLClFkUjJw4XW3o9/Ek+CnC7hs5Wps2LgRYb5eYiKIgxFWJ1O+H/PBTWoXpvtw+MgBuOSM43HchFHIS/FQAcpN1Hh99RqLC6O5LnGHtqvwUtxeWt+Mpes38L50z10+uG0BfPrCPzDvg5fhDDWa+hA9XJVPBwPEp2h8sIheKcmXmOL569GmljthvRPY0UU/kKBVJCWWIcbWEm65pd6MfJz709+h56jJCNA1XbV6DTaR4BL8gxUm9OC7p3rdmDh8IC477Sicedhw9M0vgpchl9xkDRRRPO4NazIKZkec5Mw2k3NWhVzbIByx45m33sfclevg8mTgqh/8FD3690aIcffLj9yNirWLoJlowjbNPLv7fbD3V5jghozWUtjWb/VYSzPfdwdtbrk9jIdMKpgqLRxvxWtCmz1qr0MColcwbinfQMKqpjJflwE485pfoKDnAITDUSxi/L22uBohKTWea7mlalazRk3tb7AUldJlxcSquTb9wI11TVhcxdV0gVmeWUkOjBvUDVedfQzOO2YsehdmmbXLrJFvuk4DGqx+ArLcqkSzRorxLlL2ygud00oEHcp/zdxC5aFpnnl/udvzN27FYy+9ieawDaNHD8MvrvshHnjoIaTkFSFYshpP3vZztFQWG7c8oDEBNDTqVqz+/6pN17spuDhQ4Ob7qx4hGvQzs62WBq2Us6N3/FVoc8b5trkNJHdYM3ZIZA4OJEVakN9/HE6+5QHkDR4Hjz+MhcsWYOmKNWgMUhBp6dVVQ++sxfP2N4hqVvMWpYQwgy+4RUggdeZRl063LYLC7FSMHz4Al50yGecdNwn9u+bB7bBKMsJ33NsQqZUekVFE1Yy0W1uAO//yMIrLqtCpIB9/uvMOZNCKjR41Fvf98XakZuZh87rFePmem9FYV0VloIkirPhbm1n7mtC7HiiQCo1GwgirJ16c0Lm5OeZzd9Dm5Ha7tWStoN5KjUaDi+gHA2TR5XZ2GToWF/7mAXQZfTyiDLzXr1+H+Qvmo6Gx0ZBl/4XSZm2yqpZl1YBMKqNYGJ2z03Ds+JH4zmnH4IyjxmJwj07IoCNmV5u+obZ1zd6GyC1rrbzU5I8huk5/+OfTmDJ/CV0KD+647bcYNri/GbcQYxx+2skn4bLvfg8eexgrPn4Fn778OGKactW8pyqg1KphTYwpL+OAAbnjb2pARJY7TqHc7H1A7kTlmbVonsCEtTSR3AdPTKpF4UWNpFAMWd174dzb78LASRdRo3lRXlGNaZ99huItxfCHorTb20cu7S901/zsxm4zTQojXLTSKR6HWYjwrKMn4PvnnIhTDjsEvfPTkO5Uc5+mj9Ki8FbsLapICextGLeen1I8ysd3P5uFF97/FGGnF+ecewFOPO54ealMjVJFl92djB9fcwUmj52IYLgJ0558EKsXalVMrf7ioXvupWsu1WR5LgcM+JKNtVWIBJrMTzFM88ztLtpcDafRVVIiZLEDmio4FIpb7wMfWsxeLbkab2yIkVeAS265HydfdTN8nQeiOerEvEWLMH/REmyt1lxsshmWEO4P0CysWrEk1Q30JIEPHzUAF598OL571vE4bNRAFGQk0YXVumFKseUWiz6m7TghKt/Cq+jZlmtux+ryJjz435dQTa+oV89uuOaHP0JKSpqJ8RVLi6z6zMnJwl333ou+/fshWFuGZ+75FerWL4YzErSUmrQBoTc6UKD89zfV02XUMjJUTE4nUlN2f472NrXc2rKzsxN7+DuK+vpa67sR8wMb6pWmWVvCdiouJFNwPHBk2DD2vJ/i6lv/jB6DR5sFA0q2lmLOvHmYM2cO6urrmA/xG+xj5KUnY+zwgTjvlGNxyVkn4tTDR2N0n07ITOJ7ae4z47aqi6fWOlOvL82LFiLRLGsngu84UeHeggkVRG5+v/OBRzF7xXoTcv7pjtswpD/dcf4zg0+4T75IjGmXl9FjYC/85a77qHTz4V87F0/e82tE60qpKnQvS1HtSQXfPgMzIBwksSMhYyUyMrOQlLT73WrbrKRUg6etoKDAFIQqRJzRCJoq15MMmoT+wIf6oYccEi1r/m0t5oeYD24XkD2Scfjvn4fD7TYiFAzGsKmsAR/OWIJZS9agJRAy+eHShPpxUduTTfO6WcqSFCDptE/QUQVA1iAYG1xONWE50C3bh0OHdMP3Tj8MN1xwHC49dhzG9C1CQXoSvGbYpWqmGYca19uKR0Us9UATEUS07brJenabgR6QFIfIZ9GU6YkxHXY/mqg4//rEW3j1k+k8zY5fXf9zHHPsibrEDPhRNmiudy1oYGc6lWZ1TR01YRyuufoKRLxelM7/FB+8/DxcgWa+jybk0PrXLUYpbIdaB6xtf4NSFG2soSEhGGIU5mXD7dv9SUPanHOZmZmMu5NMwiSANRUVpiAO5hkzwrQizqgd6fnp6DVsnBkjnpGZitOOH49eXVJQuXUdNhZvQIBkauamwRc722xmeqH/3dTpUsdFNq18EpMg8jNCpWmquSjYSbYwCulv96e7fcTgnjht0ihcevLRuOr8M3DOsUdgTP8+SM/IsBY23E8QUzs5FaTyT02NNpu8B1rhiA/vzpiNh595hhLuxInHHo/vX/2D+FVfDc3Scvnll+PII4+EPxTG9Jf+gTXzpqra2fQ4DDP+liKUK9+GamqvQK0ElZVlCPm1ugyVdWoalfbuVwgyHG4bpzHhlst6Dxw0ACuXr5bY4ez/+wPGnPVDPohCZazOwQd5Jp5QCAFXEAuefxwv3fkz2JKdmPPsP9HS1ISS0q3YUlaNkvJqVNfUoS6w82ayXY2UclBZSFnKI5CzkOTzms2blITsjDQU5GYhn5/ZGSlmob4UNy0ihcHBkxMj83S9SLRfwRah0rJie2t0nmWRV5UGcNlNv8LCDSXoWtQTz/73SQwaNpBn6S12D8XFxTjmuBNRvnkdfN2H4Vd/fxHOjE5UsEl8TqJTCJ/M5yW8om31CvsJ1Ln53X/di/f+fhuVuhNHHz4RTzzzNDrl5cXP+Gq0Gbl3xHEnnIAP3n2fIhXBURf9BCf+5A5K5gEU67QSIbsDXsbiAWcQNSvW4P7Lj4Y/WItn7/w/HDtxNMlJa0S3qpmuueaervJH0NjYYKakUu8jTXChbUfKq6efNlkir8MJn8eLlGQvkklot0tdLxknu23wxtc9l1gmRN9UYH6BB9QOxu3cfXJ8G9Ac56rNVtrsaocm0aubAvjhTffh3flzYU9LxyMPPIwzTzmFSkDud+vwwYdTcNlll6C+oRGDjr0Il9x0P1x0161V1azc2K4w5FnuX+S209N45x+/x5RH/mhml73ownPw0EMP0IKnx8/4ajhuJeLf2wwfT52KBXPnmtF+yWmdMOr4M1h+O4rfwQX1HIrRCjnonYTpnq+Z9xFqy7cgLdWHIyYdQmea8SutqNPtIDntyElLRWFOBroW5KJH50503QvQu1sRBnbpjAFdi8zWn/v6dS5An8JO6FKQjc55mcjNSEVGkpuxtAtJLjt8NMuydoq9LbG0RNV0TuG37Zsqn1pj974dKJpXxG2lMIqK5jBue/AJvPLxp0hKTsWv/+9XuOg7F5kMtojYOnRi3mkhx0VzZqKitBjZuXno3aMb5dLNW4rgvG/cm1EK9rf8CQeaseij17F1+XzTeeiE44/DCccdQw9991zzvaKq+vbpZ2UU/9RVVjLnrAkbDlaIYBH6zs4ILSzjosI+/c3+ZYtXQRN0mwkDtdJn1EUr7toWwkikdtzCtE7bNy0aaO0zhaTzzaZfcmXltHlp0dyMH612aHMfnc/zLDf3i9v+hkRzluLt5lAQjz73Ip58fyrCVF6XXHghrrrkMr6PBqUo/fGLWgG3z4cfX/099KA8xurL8c7Dv8Mz/3oQG9esYjapTzyhLDXfzK/9CoGAHxVlW62UMa+SUlJMZfXuYq+80aABfVggTAWF2t9UhsaaGmPdDlaYWWYiybTQzXBSoNIKejNjndhY34TNG8pIUEa9dNnV2yrKjJCN0JaopU1sif3btvg+y2bFN30YEuu/5h7ZXmNudqrCjd92tu0rJJqtFGNrrfFEHUDIGabiiyAWcOHlj5bgwWfeQtAfxKFjJuBnN94IV0oSnLxQi0dICbQWTr50QUEX3PWnP8HNcKa2ogSf/vtO/PXSSbjvqhMw45VHUL5pKZobZYCCZvIJa6YdK+/lqIft9C1U52F+J9r8VV56gnkpsxkPiV+1tRZfvkb31hYOMm/qStHC/NNKuTn5udaB3cReIXdBYUG8Vs+GIOPKmvJS68BBC5WOaZwyn0Vde9CtTKPmDWJrVZU5LuEQ9qDsD3iYrp/0HKxGLzcJohYAhigBN1oiDvz7nfdw4/1/Rl0wiMMnTMQDDzxg+kvs7gCJr4I8pMmTJ+Oaa64x99PvSCSE4oWf45U7r8OD3zsBL956FT5+9Pconj2DZNIEhH6mMUyCR+EJ0fnS6ECSSs2Drpim7lZFoKVELegbt/hHWyEWaEK1mRDRhpTkFPTq2VOSZB3cDewVcmdmMkYkwY37GArAX1NhHThoIQtL19xukTsttwBObzKamgJYtWkTBcMa0dOG5X5AwepOmvin32rUC6M57MJ/X/8Adzz8H9T6oxg2YjT+ct+96N69+zYiflMkFMR3v/tdjBw50vzO83px6GGHIZaShvrmBiz++G18/Pc/4olfXob7rzkXbz/yJ1SvX2zNk8eyU8WfSk9W26zmyk+zeCk9EdWxC+a9tO2J6d4FglQ01fGpjN1uF7IyMvi0fUxuTWlskduOQFMjyjasaBMtvL/CEl3FyZq4L4LMTl3onqchFIyitLaGe0h+SoM6l7TCqzpokBgXLpJrEIotFkLA34x/vDcFv3v4X6itD6N/j4G4+4470at/b3ON5KUtZaaoqAjnn38+XC4XmjwxXHrFd7FqwRLcf9efMeGww5HUpQDhllJUrpiFKf+8F7+/+CT86UdnY+Ybf0f1xmXwN9RSHdHziLnMINSkcKMhj6x4IpVtXbTVm9bArt5pfEIqQ5Qe3brx++5Tdq+Q28f4pmvnIn6jQNNyN1WWIhxWIg9eJFw1NamkZOWZcbci/ab44m2JOoft8XH7gZUvJDbdc7nmm2sD+P2jz+G2+0kcfxjjJozDw3/9KyaMHbPLtv5vCimKk046Cd1IkEBtMz56502kJoVxxeVn4ZWXnsELT7+Im35/L84870L06VYIb6AaW+d+gCfv+BkeuPJYvHT7lfj0X39A6cJpJHojgjYfbFHF57w538vCntUN7AqrF82hIlTkb0NRQSFysrL4rH1M7qSUZPTtTQ1M90WFumXjGjS3WCuRHIwwlptWyfS7ZmFrnrHCLt15xIFNpaVo9vt5BvcfvM7L18BURZlvxTX1uPGuv+PPL3yEaIsdRx55DP760AMYPW4k809x+d7LpMLCQpx++ukI/3975wEYZZH28X+yKSSEEop0pIkFsVdseGI9O1hPPe/zVCyIXRGxICqgoGJBQBBBuigoIB5NUEFRkN5RekIoIZUku0m++c1muL0ImIRsNkH+Ouzm3bfMOzPPPHWeMQQzbdZcbUrMNM+sqqjIaJ12Ukt1NqL7W33f0JjJEzVwzGi1+/v15rfqSknO0MJZUzVjQHcNe/pW9XvoOs34uJcSNm8xnQrx+eG3/Bf8UQpYv3KpvzXMxHTWWWea78wkRX9AUIibWOVGTZuKGHdveLQyt60yIg/5rZjp/AXxFKIga0lFBx1KvvOo3Dyji0UYfXKv6p18rmmFvUraE66cHJ9yPISoEt8cJNZUDpCfH23bwe9DNpKMYWs55nUr+7KUZVjy9+t366ZHX9HU7xYo0rTZpddcpgH931eLJk1NG6LYhNkw3mAA/R3u/c9//lOxMZWVsG2LZk6fYmgz2x5nKymfJ0yVq1RRUzMxX3/lVRo3ariWLZmvN3v3UJs2Z6tGnTram7FH21fO19QPX1Hf207XBw9fr0Vfj9auTWuVnZ5i1HCvGdeG4E0ToH+TAsO/7NmfWQbqIGEEunu++RU6CM/3KTs8SqSNziE4xLRNbupOJayeb8YLjMOrNhdcZJi2aRsnAhYBQYlQY+/lBXO/040dblVi0i5FR4Xp4UEz1OC4U23FIWqKQ0UXVRmY7DXGJ7HS5D1f/8s89X/gckVHx2rmwB46vlljy70OZ72b97PGJga0+Y/BTNnp8+jzqTP17rAx2rB9j6rF11THjg/ooQc7qoohptLUrYuCe+65R5999plOPPFEzZkzx0YCHqgOblJgs42VK1dq3rx5WrBggX788Udt2pJk3i/H9GeeqtSsrWannK9Gx52ixme0VePmLeSJibPtYXmo7XN2H8cKjzsQAx12GNrKb6/BGu9fUiyt+eFrDXysPRdZO8GmTZt0VEHYaVHbKyjE7TUvm7pnt847t41Wr91gGsCnDk+9o7NvutcObiee+met/AovrjJR8R68Gx1m5mWj1+3Qc1e0VIQ3W6P7vqB2Z7XeN/j9nO3wA/nJ/BO3xxAFvm0ju2Rl68n3h2jq9G+VnJGj+Fr11KtXT117zd8VE83WtH7iKQu4oT5r1izdcMMN9rmzZ8/WySeffNB6BP5G0k82u9y5c6dWLZynwUZXnzbnF+Xm5Cjcl6nKHsOXqzVUbOMmanXJFTr94mt0VJ3m8uRG2b3e/VTuH/N8Y8z4A4yQ6iJsaqg8w73Hv/mkfhjX3xyXzjzzTDupUAee7/EUTdoNigzE4oaq8TXU6gQitUzFzf/L582wg5uux3JKOVxAt+MHBdblZQZ2pWrxim/YzHbigpXrzSe8zN+hhytyhZGJHVOzGar6+bdNuuHRbho9cZpSs1lQdKq+nDBBN7fvoNiCmPiyImzAsyjHHHOMWrZsaQll5syZ+4j+QAisI1w+Li7Ouuvatb9VYz4bp2ULv9PrPbrqjHPPVXSdxkrP3KKkRd/r2z491OuGS/Vu59v186yh2rVllfZmpirbTHo51rPiNcScZikB0d2vqhoyz87UxmXz9z33kksu2SddFJWwQVAozK7uMbe+/tq/m9oS85OvdYt/VE7qHr8rxHQ8JE7Vy65rgws6BfGKWdgvjeSrQcuTrNi1cNXv5nea+nAmbbraiJpGd0zJi9bwyTPV+cWe+nHVb3ZDyLvuvFPjRo/SSa1amZbACPVfQ1RZA1WgWbNm9vsPP/xgPwMJuKiIZH1+nk+N69XRIw/er68mjtfYkSPUrVsvXdv+ZtVrUEseb5I2zf1So56/X/0fvFITXrtP84a/ocRl85Sb5TVEbtQScw/oxWO4NgtEEjasUcaOrXbSgZgvu+yygicWD8Fhn+alwRWmUmERRocw7ZadkazlixcYgc3PvZmmDquhbjk3MdB+gyFv18xwKgyGi1assxycU/z8+/CEx5OlhNR0PdbzfT3fb5jWbExSfOVYvdnnDb3yystq2LCeGXGkRTKlJMHipQQ4L5wbgt6yZYtdkfdn3Ht/yFO0UURi5AtHt45RbExVnXXaqer80APq9+5b+mLqJL378WC1ufQy5UXGaff2PVowbZKmffCCPn38Jn34cAf9NOI97UpKNPcKt9lwvGGR+n3NCmWnJdtnIGU0bdrUfi8ugkPcnmjMAqpdv6nOO/ss880MaMOx10wbo+xwI7rlk5WEcD6Et4q/7Qtc2q5XN82Jnxa9O8xwr6OPP1mRuRFK3JOkzVvNIDLNEGmDEioGrF4YMBfxlUL6JbgvC1ZsXnHzvj7zXj+t3qH7n+mh8f+ZrQxfnk4541RN+mqC7rzjLptowMiW9g5wqbC80HlJ4Iak4EYsZ9ntnj2kAis+wgpi5UnjGGaj2Hz+seAJs+/boklz3db+Jk36fLwW/TxX3V96Vqeffqqq1zpKaYZ4Ny7+Vl/0e0a9b26tIY/drJ9nTFfaxiVKXLNAeVn+TRWOP/54m5ewJAgOcQfAGS7AutXLtDc5ybQKOrd/5CCiH66oYToxrkZNmJUWrDbc20xkORV4DyvH2zI9cYa02Shgr5mgs7Urba/6j/tG/3r2Bf24cq2iDWf897//rcEDP9apJzG5lz8wJilwbNbUl0QsLwrcfdHRH330UX311Vf69NNP9fzzz+u6666zFvDsHK9Wfz9Jo5+7WYMeuFxLp39mmITHWsnPOOMMq0aUBEEn7osvvlixsbG2ETP37FDiuqVmkPgNalZUPYyJOzy2uqo3amJE9TB9t2SFDUENnTBafFg1olCF+dMaRc0PcOzNO/fo6dfe1usDR2vzrjTVbni0Pho0SD1efFHNmzU3k0D5TNIB12ZMYqhy4zMY4L7u3hA6qb/POussde7c2S6Q+frrr/X+gA91/oXnKyIiUsk7dik9JcVIRT7LsYmHp44lQdCJm4SJuBp4scyU3UYUmav8XDQM/wsHin2HA+hI90rh0ZUVV6uOedMwLV6z0fxG4sGKuYcVDMhZSaJyM5WR49OUX1bruo7P6cvvFiknLErnn3uexn06QtdecYXiYoyEYgZobkT5m7zZQz41NdWOSbhiScXeooBnOO4dCAi2WrVqat68ue64+WZNnPKNZv+8TBe2u9pMPOZ8Q5m1atVS69atC64oPoJO3NWrV7ezj0VerratMQMhk2g1LObmkJn9DyfQjXl2ps5XRPYe5aelKtfI5VuT0rVmyxZzQsV538AhySvhzmPcbdy9V30Gj9aDz/fSup0Zql2/kZ564jGNHj5MJ7c+yVzoD2TxTwXlj7hTDGdctGiR/d6iRYsDEmBZISw/0tCDV8c3ran0pN8UyaRoVLlzzz1XdeoY5lDA+YuLoI80thc6++yz/bOjqeO6ZQuVtme3JW4QzFjikKBgoKSmpmnMh72MpPKTpZLtO9I14suvlZZTsd7X1TbPujelFcuX686ne6v/6CnalZFlRO8mGvThe3r68UdVtXYNeQ1HyrFGNn94JamnyhvWrl1riRui6dChgz1WUgIqDUDc3vwI/bp6nRYuWyUvIbhmgrzlllsOadIpk5Y/9dRTLQeHutN3Gr17yQ+WC4TlszVN6KymxYU3ggT9PiOWMhDY4peINH90WmSuzxBAuBFX87V27lR99M82WjLhE2XmZIj9rMJy0zRiyrf6fvkmez7Xs1CCqA/84/wdKrAOHfWIICO2C/LHKSCER9uaYQXOzPJp8MTZuvrpPlq0dr08MTHq0P5GzZz+H1140YVGBYky/Rlu+bXHcB6XJSZ0JPNHQMDo2ui6WMlxM+FDDjXnVniW4db5mvT5BOX6sm3bNahTV23btrX1Krc6N6ARTzrpJDOAcNT7NPvrCWYgGLE8nKT0FWdL1ZicSGV7IpUaTUxwvs14ytayEDUuvj0bVmp2v04a0f0+bdm2XREkMqwca6avMEVHxSglPVs9+ryjZQnJdlIgAMKfzocJLnTiK33gMqWw2whxzhjC8sP2mn/DtXbjTj3bb5Be/uAjpaZkq3HjxnrllVf0/vvv2zz1DMBQcr6igPpRz++//17ffPONzSr72GOPWYs0v4Wy/jw7OTnZGtfcJAPXdnUrKYJO3FQOv+Ltt99umBNZLaTfF821+aTRywikryhgv2es/FE+U3LDDUEY7u0xg8YQ+NL/jNSgLnfr288G28wzrY9poHc/eF9HH93EELB0c4ebVbVmba3ctEVPv/GudqZlGMIxHckqIHNPt+d1KICrzvAuK03BweHaEHy+UbCn/LJId3V9VWMm/6DUjDydffFFGj9+vO666y5r+WUwwg3doCyvoH5w6969e9ugFYy8hHW630JZf569ZMkSbdu2zX5Hlb3xxhsPuV5BJ25XORbK16gZ7xf/clI17+vxNp+3fzF6xQCGsSivKabKvjA2hs9RxtYEffXWUxr9ygNKXrdIlavX1a3/d7+mfzPFGkS8XjYPzLN5vO7t2FGeqFjNXbJa7w8fp2SvEYQxsJk2sbuIhAh5Ns7ZVMP0hX+73lztzd6r4VO/V6eX+2j55l2KrBKvzp06afzIoTa6K5CrlFRsLEtQ1+nTp1sigmuzrhtjVXkAkw0LWHbt2mXpBd82UWmOuEtK4GXWK8zy/3fnbfKagRRuZvqlcyYpc/c2K55WFET7jOBqwyezlJe9Q79OGa2PnrpP348doDBfltpc2Fbvvd1XvV7roUo16yjPl6uM9AxD2vmKrRqnf9/7b91w7bXm3Dx9MmGG3h871UwPSABGJDftEir4EwzgsMtTridCaxJTjAj+qZ7o+6F278lR62NbqW+/Pnrm+WcVXyl4bqNgAgv56NGj7SeEQwBJcRZhBBMQdWCMO0yhBllXDhFlQtxu5rn95vaKijM6mvmenvi7TSPDssCKAp/Rt7MNx87YsUUjXuqiz998Xolr50ix1dTpsac1ZNAg3XTtVaoW6096n2+IOCcn26+fx0WrZnx19e3VS5ecf4GS94apz9AxGjxihKEur9XbQwWIGm5tZhlt2J5s1Ib++uCrefJmh+m8dn/Tx8MG6c7rrlfVqMrK8FTMCLuff/5Z06ZNsxycvcRIt3Qo+mxpAuv9r7/+ar/j+ybwC9H8UBH0EYXIBnHzWd/on+efc4YZTBHKS0vV+p+mK3dvuvnbiOdh7MrBxnAYq/wL/YMNa6wO6F++Ih2TcCE/HPHUpwi7mQC5qnOkjBSt/eYLvfnva7R45kjl56bqmJYnaNzwoXqhWxfVqnuUEddJomealfv4fEpNT7c3rhwZYzNpxhnV5I0B/XTOma2UnePTq8O+0vvjZyo8ixVB+P4xTjlx3afovCx/5UoBxL1btcg8heLeNVxZyjDv+OPa3brt4Rc1a/4SI3ZLHdpfp6EffWTE8ONslpI8D/twVqxceBAwunb37t1twgUMuyRrKA+gbpRBhilkZxv1zXwnTLVNmzb2+6GiTNlFjZo1ddnll8kTjQ80X0t+nqe9CRvMQPZbZ60rxbwUBOe3IAcb5kEB1I1EwYhnq90In5k58yLNoCbuOF2Jq1fo877P6JM3nlNa4ibVNu/y4MOd9dnnE/YZZgrrnhiaiFsG0dH+9cvg6Pot9NYb7+j0005XWnau+g4dqT5jv1KuOdXngehyFJPL4poIpUfEFlx16Kjk4x3NNGWI1GvUC75H55rBnxOjL2fM1f3PPa9VCQmqWau2XnjyGesyKg3xMFSAQGAsAwcOtLo2sRbEdGMv4LiTKEMBR7yrVq3S1KlT9xkl77jjDhs1Vxp2jDIl7nDD1S5p104169SyXCMlcbOWzphk6IthBi/BZ+xfEloWudWIj+Y/S+QWpsP510wynnyvrWNGbp7mfDVWI569Q79M/FhhKVt15imtNWbsZ3r66WfVuEGDAw4SDCUOLvjff67HcJDWGjx4oE5s3Vo70r16Y/hn6vL2QKWnG+5olOA8DHamfhB4aQKXlz8NF8K4P3PM0C9n6cW3Buj3xD2Kr11XrxvV4aFOnWzMtT0zhERwqIB4hgwZYr+zrS9cEUBcpcEdSwrXpu+++67N7AIx161b1+ZXLy2UKXHzQie1bqW/XdLOhteFe7P0n7EfKzc5UR67ppYXhsAgubIeUAWdbWk9TOmGsHZuW6FJ3R/Ul689oaTNvyu+RrweeriTvvhqik474yzFVKpkgz7A/ggArs2MDJwOZQeVUT/yPT41b9pI40eO1N8uaCuvkXaHT5mrLr3667ekNLvLBZUhMX5pITvC/4648Ty5kUpK9+mlAUPVpd8HdoJp3qiFPh00VB063KT82IqpWwfCZ9QijGgbN260/vh//OMfdpKlr1wJFRgXS5cu1YwZM/bVpWPHjlbnxtBXGnUrU+IuiIfXU489oSpxcWa2yjdqbIK+HfuRKtkslH7u7aew4LvICI/0R8iZ6cQ8soCXKTsrQ798MVBDHr9Zv04eoWgjwrZtd4neH/iRur74ss2Qaechcwe/pXn/YIGCA+4XYDvSPIfrKI3rN9Tbffvo1lvamwPhGvPtd3rg9bc1Z8Fa+QwB5piJoLRg563wCBuosnFHml5+5yP1HzfVNEGkLriorYYPG6a2F11oz8R9V9FBQkMSITKhXXrppbrgggsKfgk9kOomTZpkLeXUDwPfzTffXPBr6aBMiZsN8+DKrY49XrffdofyYJRG/Jw/bYJ2bP7NvKRfPLeiY5lEbLnJxHyzLZGnbQlbNLzLLZrcr5d2rN+sStWq6okXnjZ627u67LJLFR3lkcfUmUnAnxDxwOqD49oQdKBfOIKsDYow10ZZV1iTFi30ap+e6trtKUVHxGjegjV6+NU+Gv71dOV5S089iTbPpUqLf/9d93Xpqi+mfW/07Uq65m/t1P+D93TCaa2NPu5Xi9DPKzrefPNNbd682XLDbt26qZKRtMoLkpKS9OWXX1oGwPi49tprLYGXJsqUuCPNYMZiHBYZrvsf6qiaNWuYKSxfaVvXafHMz5VFzmtDYDbLhxBLSwfQkj9fuk+5hhPiW/fkQaQ5YteI/LBoZaaladGkTzTo7jZaNW+mOTdDJ5/WSl+Ymf+ZR59S7Vr1bWPZlVFm+Nuc1IZYIYQDwREzn86Iw3fyeWPHs3Uy9SE6Lb5yDT3S6VH1erOnjmpYR9t27tELbw9Qt6HjtSt5p3ku9/JPRdgo+JPJkuKkAJvU30gZZLgBTDw5pvizw+Qqw5ujL2f/pNse7a55a5MUXjlOD3S8XUNGjlD9hg3t+5H9yFTT1NHeosKCUM6JEydaiemZZ56xIbPOcxMqBI6HCRMmaMWKFbat0bUJqikN91cgQtaFrGN1gQRwuB+/na787av9riRT/IO5dFApL9MOVl9YjCJ8ppixnxORJZIFwYG3/jpDE3t20tg3X1Dqnizb2E8++aQV6VhY7zjwoaAoHRcRGWHDOgcOGKjzjAiZ5c3X4GGjdU/3gZq+cK28RtQhT3Z4gTuKCSrCFAxw+0quRxkR0XYCIcl9jFF3OG/12kR1fX+Unun1vhJ2p6mOecceL79kSvd9UoUbfBUZEC9hnK+//rr9m7TA7dv783+XB9DG5G175513Cv72JzRhnJU2Qkbc5LAi3pytWtlradv6FVrxzSjDzRCOibo+dIJyyAmrbMV9kr5HmQFvHmh02WiFZWdozsh+Gvr8PVow7XPlZu7RFeefZWOnO3XqZFPgMFhcKS4CiYVJjL8Pdh//b2E2VHXgoCG66557zawQrZmGsDu/1Ef9ho9XKu658EirEhDX7vXkmb99BSXP/h3rzVUUIriitCM7TD0/GaM7nntFgydMU2KGVye0bq2xo0borjv+YSadmH31Ksk7ljdgRBs7dqyWL19uEyHiWiovYaaANn7jjTeUmJhov6Mq4J5j8i/tyTVkxM2LnX/++brooouMZJ4njy9Lkz95TzmJG4zIaQTfUgxiYfuWcMO9IIjMCKNM+lLlXbVcI575lyb266H0xC2qVbumnur6rD4dO9zuREGjl2ZjF+le5pRwU0dIrG7dOurZq7de7dlLjetVV9KeVL02aJyuf6Crphli35qSqWyfEfHNNdwZAxhGPp7jzcnU+oTd+uCLb3XRnY+p15DxWrc9RTVqVNX999ytqZMn6vTTTlakmTjyzURR0Ymad3btu2HDBpujDIMVSUIQd8vT+/3yyy/Wr+3wwAMP6LjjjrOTf2mHwwZlx5GiwHXIsmXL1LbthUpLSbN65BnX3aObnumt/EhetHT07vC8XDPwIzBGKystQT9/MVzzDBGnJa6Vp1JVXdTuUj34wN1q0+ZchUXEGNG3dKSGuXPn6vLLL7fft27dWsjXvT8w1/JsS6qGyM3fhmKXL56vt977UBO/mirv3kzVqBylVs0b69wTT9DRDeuaUl/x1auqclxVrV6zTrN+/UWz5i3Q2s27RHbSiPxwnXzi8XrhpS52X+oodvowdy/Q4O23ig43nlCnBg8ebNsagxW5BMoLcRMp98ILL+ijjz6yqh5ZYLALQNzBQMiI2+mxPL7bi93U+/XedlxXqVVXt7w+Usee0tqM6xh7zqECw29EWI62r1ioMX1eUcLqBcrxpSimel292uUp3dL+BlWu4d+HKSrXp9xSmkEDifu3335T7dq17fseaLDhmvOb65BaGKyQnt8olpGWojmzpuvV7j2M/rzecFzEfKPeRIapWmwlozcz80cqJS1TyXtzzYSGsdBrvQC8f9UaNTTlyylqdeJJZpJj2vAbGP3Gy/KZxLCocG3Kqi9UPUI5n3vuOWtIO1h7lzVQFa6++mrr/sLO8dRTT1krfmD0YmkiZGI5lksKosi9/3ePmpEkPjxXe3cnavGkocrJYoASTQUPyzf6pBn2po8wKFnx094FQkCEZ5byEwcx6US5eQ1BeC2xGF10d4J+HNVfb3fqoM2LZyoy3Kvzzj5fsyd/qXvvvc8M/NrmTK42Ym4pikZYat3AIqDlzwbaPqI23WJ98NawaCacPJ/i4yrr2muu06w5c/R2v7d15umnqEb1OGV7vdqRmq4tO5K1MTFJKZkZRg/JVJ4h3AijWjRq2ly1ah2llF3J6t79JeUa9YeltrQr3V/RCRvQpuzd9eKLL1rXEtwaw6T7LZSgzynYAvr06aPdu3fb41jvmYgg8mAhZMQdCDYW/8cddygyupIZlLn69YeZSlw+zwxsM8hN59A9GNr8BBzh/26vZHD6dWkKVmSyiBCrXil3ryrnpGjFj3M08rXHNb5/L6Nq71LTpk3UtdsLGjlmrBWHgjmzB3acizHnecUFBG4qyT+a890cq7NFVYq2Sxe5H1IQxiMMcSytZdIkrdUjjzxi82SzUIK6sPJo4cKF9p6HEyDoUaNG2dVVGGrZptftiBlqMLYokydPtiK4G2/kdQ+WOO5QLog7MipSt5lZrNHRTczLG0JI3qYJA15XWK5/RRTH4MbwM2LO/QY3CB2iNgRuGsv6ec0ZEfnkOWMnRq++GPyOPn/pX1o1e6Ii9yarw/XXatznX+je++9XfNW4fURdEoIrCgLdX2lpafazJBMJtSOj6pChH+v+jg9o8pTJNl0QhMr9WLjyxRdf6IMPPtApp5xiF0i89NJLVuxr2LChzRPGAhDEQZICHG7A9TVs2DA7gZJh5aabbip149ShgPr16mWYi+He9Bcr0x566KFScbEeDOWCuBFDmzQ5Wp0f62xEWfy2Xm1e+pNmjR+mCG+GaZACTl1A0ParJRKqb44YYrbie64Rf3J8SlgxXwMev0kzP+6l1J1JatS4kV7r2UsfDByiZi2OVXQkG+T7fcUlIbaiArEcfYpnZGTwHkV/VuCEg+X3k08+Ubfnn1cy2Tpoh1wjs5gBjGj32muvWTEPrsXywW+//Va33XabvRYjzrHHHmuNNwwm9NLt27fb3yoyXPvwTv369dOaNWvs+9MWSC/BmrCLCwh6zJgxVqqg/1mMgw8eSYvxgZQVLITMoBYInyFKwlBzsrN0x623a/KkyYYL56tK/ZZ66NX+qnnCOZY7o18zEUAiEDkFlxmbC5L3eUfibv30+QDNnzjEboAQG1fNpne6p2NHu0Ebr0pyCKtpGt3dFxY8fQdgRGMlEnoWnJXvxZ1MqDPXPtelixITtyvfDGbuYNvA44+4Inl9gwYN7KBmgUTgwOF6BtjixYutZwIXH8RAAj5Q3PqUF/Be1J1INPRrRPNnn33WFvdbeQCr0vC1Q9z0B/HjJJb0ZwMOLsoHcVvpJMdy38WLl+vvV1+vxKQkxRoCbH3Dg7r2ke6KjKtifmejNf/QZojDwQi19Pj26qe5czTzvee0fdtW5XmzVa9ubb3W4xVdecXliqlSRWRdDScVseHZTAqI7ojywQSrka666iob34zvlfjh4gKL+53/uMNOEHFm1sd3m5qSqiTDfXekJFvLMNhfNwYOckfoAFEdsZ4BVlGJGyQkJFgRnLXa55xzjj7++GM7yYHAdw8lmHhwyVEfgmlYpXbeeeeVidpQLsTyCFOLiPAohXsq6YRWJ+ruu+80f+crIyxai6d+om0LvlFYXq7VO9mSR4boI3NzFGG42M4tGzWqbzd91uUfStq0RlVjwnXj9X/X7G9nqn2H9nYFlxXewyMMYdOgkHbwCRvAPd1WNYjl+yPAQGA44wwmLVbVrDec/+HOjygpebcqxVZWm7PaqHHtBjqxxfH623ltdeuV16v9ZVfr4rPO12nHn6TmjZqq3lH1VKdGbR0VX9t+UurWrKM65u/6NeooyhOlzVu26uXu3eUz3C6EO+keEpBGRo4caVd+IepCRPXr1y/4NbQSCf2MKoUdgBhy1+9ISwRulVXdygXnDgQ6FOKsf0ZeZjl19SYnqlPvIap69AmGQMMMt85XWspOLZk+QQvGDVDC+mV2g4CzzzpT9913n6655pp9K4B4vVB1NCGGt956qxYsWGBDDu+///6D1gXihrApmXsz9eLLL2vQR4PM5OTRGSefohZsKhjmn4+ZnGyeNtMe/CtchQVd6RSX/0WYUX98Wrh0idb+tk7Va8Vr0MBBuuRioyqYaysaIGrWZ69bt87GEhAYwuqv8gIi0Ui8gNTGGIRbf/755/vyvAdT13YoF5w7EBA3Lh6sixFWlJTSNizRmLe6mS87FZubqR3r5mvs8//WtL5PavNvSxRtxMsXunSzoi+LBDCsgFDPW3Si83Xjhy0qIPJ1RkcbM3KUyGrRvH4jw5UNYRsCDSRD+3bmHe0xFpUY9YZFMTY+wH7+t4SZ+0QZ6eXYps1VuVKMdu/cpcFDBis5tWR7U4caPXv21Pr16619gQ0SkJCCbX0uKsiwSooqFogwBgle6t27d5mnrCp3xA0xoI/gvnny6WcUFRWtaCOSb1owQ9+P7KfZw97SW/deo1ULv1FuhFdnnnamxowYqYeffdTqNIG6JUR1ME4ZbDjipj47duz407pYcdyA8wcaTpSamqIY8/6nnNhaEQUc28F/rrmfvSdxbIYbFLwvEWiFC8Y3UM0QwbHHtLQd/83XU6313KG8EMfBQNuwWg9xl7YlEg1/Me9dFtzwQKBeFMRx1AV82nzHW4LEhouS+jG2y6qeoWuNIuChTg+p3d8uUo5pEF92tr7+5B2NH/CmvFl71KzZiXr2+d4a89koXXzh6YothwOTjkSKYOCxOB8wAP4M6enpmjJlijlZatniGDNACpIMGDrm6v3dgbd3v/nJ/Y+FX6nLMc2aG928rvLN4OthuN6mTZtsvUJJHEUBdYRbI9XxHuT3Lu3sJYcC6kSA0auvvmonSv5GHL/33nuDGol2IJTr3qxj9MKuzz6pqnWbGJ3aDHBvlunhXP398hs0dthgPdrxX6pVs4Fy8uNsMv3yBvR+J4qxHzSgww+IAsKfN2+edhpOHxHuUf269ewxm4jBXOsIu/BdEOVtII8pRPDtr5j/LYF4DMc7sVUrVTKTxqYNG23AC1ymvIMgFfz92GQQw4nywg1YXsDOocSKMzkDouQQzwMNfWWJ8j1Vh3l0znkX6pXnnlAlo0zmMKTzspWZlaqadY4yMjyx1z4jjrKRXeHhHnoQoebWhNPhf8q1zXmI24jKECkDOC7Kz7Vd9hWHwnfiN1fg4vsrGCcxtqGX16oSr2YNG1txn+exOV5RpIpQgbqx8AJXks/nszEDxDCEWhR3n9hUkCiQLODarEobMGCADSBy4nhZo3wTtwENxw4RJE+AWCAUfL9vvfWWjb4qz6BDCSwBuMKo78EIiF8Ixvh5/nzznuEKt5OX/7fSBnWrU6+u1VsxALFM0i1qKG+gzUj/y8IQ1BtyjbHJAHUPJRiL1I0+Yzz+5z//sceR2AgvZQIKJco1cTPj0YB0InHSV155pW1Mdo5gMGK0KM9wdQfU2W30diBA3L9v+N0O4Pz8PDsZeHNLL1NhIOcH6WbC8RbYKog5JxtneYObDMnv/d1339n2fPnll20gjiOuUCGwbrjiUG2oEwt42B7Y5X0PFco1cdNQTqQhHRP6zPHHH2+PwwlpQAYlYlAoO/lggHNTf/RFOOPB65lvo66ykEjMaWnpaUrfm1nwW+nCm5erXcm75fWx5jvcirpwQ+LOy1Nb0tcskHEbCxDDwEIZJ47ze1mCtnHtw7hj1R3hvEze1IW96GE8+LNDjXIvljvQoKz46du37z4jCg366KOP2oCBsu7kooA6EQ6JxZyB4AbAgYAIvnLlKqWl+leQYUBLSCr9RR4MTSabXUw25plwGow+6I0Y11xIa3kAhkh0V1yJuDqxPLuMNqECfch4JF4fyzgb5wMW58DBy0vOtgpD3I4o2rVrZ2dKp8tiOSXBHGmMyiMIYMBWAGd0VtQDgQkgaXuicrys/fa7rRKCtIILyQddG5CaiOAfJAxcOXPmzLHHywNmzZq1z2fMOm2yhB5sggw2HGGjOj344IN2YQjHMH526dLFZlt1UoXj8KFChSFuJ55TEM0efvhh+x38+OOPevzxx7Vnjz/aKtSN6kA9MK5QTwxC+JMPhszUdK1eu1a55rqYSjHW3bV7T7KycrLNd/NO5jicllKSmHCuc2SRsHO7fQ6uNnyxhHKybBS7wPDhwy3HDFU7uucSvssqLyQesqvQx6HwFweCukHYd999t807Dpi8MaC5zCqBYzWUqDDEHQiifjp37qwOHTrYxqYx4TgY3Wh4N3OGGszo2AqoL6IuouXBgAGNhf1ch6UVvY33S9yBge2/0osj0JLAkWuikRC40cVt29r2IsoLrwQDcubMmdZ45biUI7ayAs9FysHGQnvgTmSdNhNlKOrjwHNhIFjt2e+bekLYrGeAa/M30ld5QYUkbhoRvfvtt9+2ROAMaqx7ZoHGn4m/ZQXqhC6L1ZQ6wr0P1vmB3J1E9ehw3GPLtq1+jh1wLX+XFFy7p0AkZ5USz6BNCQohSwhZY3r06PGnNoJggTYiQo+12kw2cETEXRCK+gDaiIKlnrz22Cyoyw033GDVQmdXKU+okMTtxB70WTKP0PE0NHoZBg2MbhBKqEGd4DZwb+oMFzpYvTBoIXlwHVvNkj8dJKemyJeXqzBzj8LurGKBAWo+MrP2Khu93tAJO784gmESgivxyaor2tIRfrDBMxwBYT/BiMYkg/WZ1VVwSIeyqI8D9QEwjK5du9o14/i1qQP6PwY1ohAZj4jkoRbFA1EhiTsQjRo1ssTcsmVL2xHMngQUIMY5K2ao4AYrBMQny/8OFnhDtg5AEgXEZN6JAZOZnaVUcrAVDDT+LTmN5yvT1IHloeHhHruQJBCnn366XUJJfXHpEHHF92CDZ0Aw9B8GU5bJMjGS57tJkyYFZ5U9qBOTTO/evTV06NB9bUFcO5v6Y6coy8mmOKjwxA3OPvtsO6ParYkMfD6fPvzwQ0vgoRTR6XQKoi6f6GuIcwcCA5rzTjjhBBusAefGCov13BkLHUpCbgxBrsNAZx6kKlWr/HdRSgF4HkkF0PfJJIOqUxZx545oxo0bt4+IsEZfccUV9nhZTDCB4HkUxhJLSpEQndSFpIhkQT+VN1E8EBWeuCECCml2WAzvZlKIiA5hSSAW4FDADRAnVbDVzf4mG34DuFX47gJ14PgQW16eT8npe+xmhnSY3YnTXlE8WJGetjEDloUkVSrHyRP5xxBOgkTg4BA1bercjO59ggHeF+szYi7PpT9ZKunEXH4vC7j343kEHREoBSE7woag2RqYPkLVctbx8ojDgnM7nHHGGVakgyhcg7OKCDeFc1uEAnBg6oNvmQX8gWAwMZDgAK6OcHqAMc4/McjmTWPCYui5UmxYAmEvMe6Tb7lzoC4LqAvHmBQxElGnsWPH/s+gDwbwuaNO0T6oJQQnhSIYhPfjXbGP4IZjoYo7joQIoTPxVAQcVsQNB0dfJCNLvXr+pZJ0CgH9EDhGorKEIwQs++iN/F14UwB3DtzR2QggaMBvJK2ATWPdxpBzSLAEGmZ92EZhsMRb2ADkJhv8ylipARMm9eO4I/LSBuK4C1bBh0ywUijA+zHB3HnnndYqjljOe19wwQXWwIiu7fqsvOOwIm4GKlwHKyY7PDhdlw5Cn2XHR6KvDqb3ljZ4PoXQWQYO/tFAcIyCSA73JrQSL4ADriqQnpnuX1VmvttSwvHFs1gwAufmWYWDQtzARdLo2LGj3ascfR8XoxvopQXqAubPn2/dScQCsOsrPmPqVZrPOhhcHzCxEBBFllpCmukPjuO5wIbjlm+6Ut5xWBF3IFq1amWtvQwWR2BEPBGowSIEZ7V2HRtsMEAAk4zjwO651I2k+oDljC60FuAKqmpzXBuOm57Gh78cAsh6ChDLCxN3ILBfXHfddVYiYr03yQhKE+69CT6iP/AQsCaaOpVFnwCeQz34RP1gaTEhzQBGQc5xJEEXc1CRcNgSNzMrnJv0smQgpWMoRIkRoIHPEk5Bx5YFyDfOs3h+YfWAerEIAZDBE2Jy4DscA8BBD3V4UYfcAguvC409EPidmHPUClaLYTkvTakH4yLLJck7TqJD9Gz3ro7ggg2ew8TCgpmnn3563yQLYVMf7AAs/uG8isCtA3HYEjedwcDFKMUeWszI6JgAvyVcHaL//fff7TEQzMGEeEtWVwYIaZQAdaQA6sF3dPPC64CtZda8y649u8WeK2Q69WXnaG9WtvVZ85lt/vYasdn8JJuVxhb/d//f3CnPiJ5eI17n2HrUrFVTkQfZPpb2QMUhChCRnOT6Lt+aK8WFuw6RF0s8yQT5+8Ybb7ThxIEE5NomGHD1YIktRM0uIC4VFhMs/nUK3grGEaWiEbfHzFgvFXw/bIGYx+IIOg3R0rk18OOiAxMIExgoEYxBxWBmlw9EPgYKAxnwLCzF6HS4XjAI4ooKrIM3J1tfTpxoiDjLEFmutu9I0voNv2vNxnXasHWTNmzZqE3btmhbUoK270rS9t07lLhru/3cmbJbyWkp2p22R7uTk7Vxy2Yl7txhaf+KK67Uueeec8D35TgFcRmRleg5uDnE7q450LUHA9fMmDHDckb64tJLL7WhxExqJblfSQBhk9EHCY5Ji/7h2Xg2cHURigsxc6yiEbXDYcu5CwOxD+4Np3DWaAwoEDdrhJm54U7BGlxwAOwADCpEv8BFJESu4SaD6DFyFR5M55x5tk4+5RQZvqylq1eYslIbDDEn7dqxryTsSDREvkmr1q3R0lXLtWTlMi1avkQLly7WT4t+0U+//qL5i3/VyvVrlW24t9E07fv7NzDYP6grwLXIYAdYjA8lao32Xbp0qTWa4R1g4sC3XRZ7ZznQzyNGjLALPlgkw7tQL1QnAmgwqHGMfqiohA3+EsTtxCr0KAxsEDicHH2WToXQyEKCXxP/ZkkH7sHA85s1a2ZVAzj16tWrC37xJyRgwGFI45zCwK2HYYf6EzIaYzgcenCrlsfpzJNPVetjj1fzRkerwVF1VbtavOKrVFPV2DjFVYpVbGSUYjxRquSJVJR5X5aSRngilGcIO8G8a85BEjO4iY4BjmsIYx+TEJZzJoaiToSB7Yl0QignExwEjUgc6PoLBtzz+UT6IHKRNez0Ne9Gn2BbYKFK69at7big8Fuw6lQW+EuI5YFA/EL/JR8bVmtcUBiJIC42p6dAOFiKS7NzGVg8mzxlGMYYRATdcH+Mafh4WRoKEbn8YA58W7FypaZPm263E2pjOPmpJ7RWgzqGmGvWVn3zeXTDRmp2dFObk/yYZi3U1BD70Q0ameON1cS8S9OGR5tjjdWsSVNlG/GeCYZBfdVVf1dsgHX+QOBc9FP89BAI/l7sGUVpH87h/ZkQmBgIDKEtWJ/N+7pJtrThiJp707+k5EJi4PnUhd/payZ1JnekK851paLjLyOWOziCJfoJcZAADToY0NnoxcQ0E09cmnHpPBfDGM9iMmFSwVrPMyEaLLacA4H/AWacUWfODc8PU2x4pCLzOOwxs5X50ZR8U8LyEbKNlBIWodhKlVW9arxqVq+lWvG1VYsNAeNrqmaVqmpYp569DwtV0jKK9o7Ocs7aaogbPbWoQTXUm/oT3YX6w1JSJBHW5HPfYBIS9+Z5bD+EGA6Bc4zJBXWD3UuoB1ITxynU93DAX5K4KYjJEBKb1BPBRmghf9O5xKJj4Ln66qv1008//Y9PHDAwiguuwWBEzDbPwLDnFoPwCWeBg2Eb4PdA8Fyu59PQpI0x99lTIBrzYYr/EupXqNiAcn/xmpPyzARQq+ZR9j4Y5rZu/t9w2AOBZ6OTtm3b1nI9iBuDpPttf3DH+Zw2bZr69OljJzZ8/gStQNjBBM/64YcfrJSGxMCSWtoW9YaJihRORJ5RD8ZD4Ng4HPCXI+7CYOBh6GLvKcQzRHaOMQgQ0dmuBpcIG9e78xkAxQX341q3Rzc6JxyQY05ExKqPaMj3QBh+8odjJYKpA3NAXFxlVTYTTX5evo3IKgqoPwVdFa8DLjGCOxwK14+/3TsjpSD2Qly4A0l4QDsHAzyPwgYG9Bt511zIL8cJRoGLI0UEqw7lBX9p4nYDloK4zMCFIwVGtcFVnU+cdeP4yBkkJQXhpBAwhqlAEZF7wrmxlnMsGOAZ9r1M9WvE+7c5cj73P4N7Z0TZe+65x/7Nqju49/7qyzHOQbdHzcFCDseEe2NrCBZwrdFPSGQQMBMoYOLE/Ui8OGG1Tr8+nPGXJm4ngjlxzInNEDgWVbd8FM6Ku4rINkR1xDkGLYPXFeA+DwTuhWEKvy4g/h3CdmI+xL0/UdU8weq39ryCZ5RkYLpr0MzrGt05PCxcvyz8Yzjs/uCu5RN9magtCImJb3/gXljGcTMiAdG2EDY+/NISe13bU+gPQmRZaINk4IJtIGpiGIg0Y80/SzaZZGjrkkhgFQl/ebF8f4AAn3jiCbtSiTXFGN8YKBAXoZIkMyD7Knm+0OuKS2jEawN87KzxZvLgHge6D0d5jiXug5z3Z0DP5krLuav7N4HH14yKwPsV9b5YycnxRn1ITAl3LHwt7j0cMUyETFj4yV3gTmnA1RdjGRsDIB1geUd94jh1o98wlvE7xjSI+q+EI8S9HzA4KCx7JFoJIocjOALHys2AQbxjWSREym9FBSvEkAogWHR9rqXAZeAmf7xX2H85dwEK0VLRwG1N4VIILq7ABVbcBSFMfhiiMP5B2Ex4heuML3vMmDG23tgZmCw5v7RAW5ChFZsIy3lxMbq1ArTjTTfdZCceJhji1TlO2/L5V8ER4t4PEBtdYSBj3YVLjxo1ylqMIQwGCfo3O2Sy2yScA66BLh2I/RE9q7EIc+Qe+LdxuTHwnBus8AAknpy48cB7lSRRYoS5Js/0eK65fVR4pN1BFG7uJqfiDHw2kycIBc5PGCfExvVMWMTysyAEDwCTIt8xwgVOTsWFe3faCv0diYp4dOwWdn26eTaiP/1DkBILhlg4xLFA1as471jRcYS4iwAGBAX3CZwWbk4QB3obYEBD+KS5xSjHRODi17muMIFjNIPzISYSyolvnXOcLlr4fOAs6uHmfpxHgsNDQYS5R2zlWMPFw+wqtf3V80DgXJaiMkFxDRZ39Gs4J35jlm1CSBgmcSk6OwLXFReuThA13BkJ4KqrrrLSlOPUtCNbItEvnIPaA/f+q+MIcRcRDCIGLPom+htRTgTAEE3GAKQQxgqRI64zwBiA+8v9zd+stoKDM2jXrVtnjzudcH/nO+Jma1+Iu9ApxQYb8MPVXL0xSBUVXEMdMKxRN5ItECtASiv813BzjFi4v2gvznfXFRcQMC43RHvsHLS781jQH7jWWHRDu5PBhTalToXb8K+IMNNIh8YC/qKg2SgM5Pfee88uRMAthCjqmpTB5xZdYCHHwIPe6a6F06M3Iq7yNxPC8OHD7bWB4LeevXrq9ddeV5XYKrrs4ktUJTrGqtDFATM5AW3+C/O1bM0KLVi+VPXr1bMTESGxxQETDmI3WUscIComPBZguICdPwPvF3geYjZx31i/uQ/SDb+785AEWMmHDxt1CJH/CP6Iv1xseWmBgUZhoCFiIyoyqNG5CdaAyAHiKtFZ6NYkGyTpAdfAYUinxJpmp4tC3IiX+8N3339nyveKiYpRy+YtFGE4uBnpBb8WDZauAy7Zm52lLdu3WYkBuwEEUxTw3oDJC9EcWwPvhc2AJasY04pC2O4+nIdqQ+AJ7YH/HLcZRkvaz53D/WlrJCPcXewZ56IKj+CPOMK5S4hA9xVNSOE7g5yQVYxIuIEc3HkMRvKrw9GZEMhu4vKVMwm4jC2B4LpXevTQG4Zo4qvG66p2lynKELd5YsEZRcP/cO6wfCXuTNK3P/2gqMgoK32QY67ws/cHN2Q4l3ZArCepIHouXgA4KYTv2uRA4HcSL6InQ9RIPoT+Bko/fHJf/OOPPPKINeQRcMT93e/OVnEE/4sjxB1EYGjq37+/TcoIN8fI5gZ9oOWYYwTHEC7J1jRYof16tZ8wIKDur3TXW2+9rfgqVXVNu8vlMZfnhe9/UPuH/R9BR1u6ppg6JKUka+bc7+X1ZdtthPAJlybc0OI9+A7RwokpWNiZ2NDXA+0SnEd7YA+AiJFkEL2Z9JwB8wiKhiPEHURAwBSCRBjMWMUheFZj0eyFBzQhkfjA4U6sIEMHdmudn+vaVYMGDlSt+Bq64m/tFGGIOz/sABzrQMzS9LQTy9mUIN2bpa9nTVdGepqNq3c7VZYG3PthEENsxyJPIc6bT2wV7jzAubQB78uOHhA1hfXt7l78fgRFxxHiDiIcd2Zg0sxOH8dPiy+W5ABYft05FK5hEONfh9hZYsnCFhZfIL7XPaqO2l3UVh5Lpfsf7AfygXMFYjmfnENmlykzpml3ym4bCIJ1+1BdSNSf0E985/igCT1FbOc9WV3n2gTwvgAxHp2fwBMmN6QXOHcgjhB38XGEuEMAp6+zKAWLML5horzgZrikIAAK5xTunkpRUTqqZm3ViI9XfLUadoUXBMnAdwQQHe5PfkCx4MPcJhxR3lK2/zvBLDO/m60tOxOsq4m11qgEboJxhMh9+I7RCwIl6gwRG3Eayzb6NlFucGjeIzCbDZ/uPSioGzyDgoRChBn7gTGRHUHp4ghxhwAQimt2N/DhdliL4c64lhDdcQExEdgzzTn7iNVdy3/mEEY6F4mF5btqJUPwUYbgw8IVEelPrRQVHaXosEijp5trDOHCA0nZtGjZEm1J2majuVy2T4gXImayIbwUXzyEzWQEIfOJ/YAkE0gibhLgPVwdAwmaOuGPRgIhpJdnYU13u8KAI1y59HGEuEOAQI7omp/vHKfADRFjWVSCxX32d3O0cMFCpReI8FxjOauf7PcRu6V02LL9238MAvZ4CL30KCI/3CZ54DSPIW8+93pzlOfzWu6Pew5wfyYVCBqdGS5duM58ujoD6hM4lPDnE6jDAhMSPOAmJDIPjl0Y7l5HULo4QtwVABAaHJRca3BzjHJEtTkLPMQHEfKdcx3BASdeFyaewG7nt/0Ng8Br+O7ug4SApIC/nkmB7869R1guXBnuzO+cH3ifIyg7HCHuCgBHrHQVhMInBbEZcR4uD/Gz5hwRGiJn6yQKRjzEbD4RpzmXiQCu7LreER+uJmfIw8hFXjFEfj6JrqPwOxyYgBeMfZwLV3Z56ALh7nuEuEMB6f8BdR5NIGwO5EYAAAAASUVORK5CYII=;" vertex="1" parent="1">
                    <mxGeometry x="530" y="500" width="40" height="48.75" as="geometry"/>
                </mxCell>
                <mxCell id="29" value="Database&lt;br&gt;(storing your data)" style="whiteSpace=wrap;html=1;aspect=fixed;" vertex="1" parent="1">
                    <mxGeometry x="-130" y="120" width="220" height="220" as="geometry"/>
                </mxCell>
                <mxCell id="30" value="Firebase (MLP)" style="rounded=0;whiteSpace=wrap;html=1;" vertex="1" parent="1">
                    <mxGeometry x="-130" y="360" width="220" height="50" as="geometry"/>
                </mxCell>
                <mxCell id="31" value="Firebase (PPL)" style="rounded=0;whiteSpace=wrap;html=1;" vertex="1" parent="1">
                    <mxGeometry x="-130" y="420" width="220" height="50" as="geometry"/>
                </mxCell>
                <mxCell id="32" value="No Database" style="rounded=0;whiteSpace=wrap;html=1;" vertex="1" parent="1">
                    <mxGeometry x="-130" y="490" width="220" height="50" as="geometry"/>
                </mxCell>
                <mxCell id="33" value="" style="shape=table;html=1;whiteSpace=wrap;startSize=0;container=1;collapsible=0;childLayout=tableLayout;" vertex="1" parent="1">
                    <mxGeometry x="-60" y="260" width="80" height="60" as="geometry"/>
                </mxCell>
                <mxCell id="34" value="" style="shape=tableRow;horizontal=0;startSize=0;swimlaneHead=0;swimlaneBody=0;top=0;left=0;bottom=0;right=0;collapsible=0;dropTarget=0;fillColor=none;points=[[0,0.5],[1,0.5]];portConstraint=eastwest;" vertex="1" parent="33">
                    <mxGeometry width="80" height="20" as="geometry"/>
                </mxCell>
                <mxCell id="35" value="" style="shape=partialRectangle;html=1;whiteSpace=wrap;connectable=0;fillColor=none;top=0;left=0;bottom=0;right=0;overflow=hidden;" vertex="1" parent="34">
                    <mxGeometry width="26" height="20" as="geometry">
                        <mxRectangle width="26" height="20" as="alternateBounds"/>
                    </mxGeometry>
                </mxCell>
                <mxCell id="36" value="" style="shape=partialRectangle;html=1;whiteSpace=wrap;connectable=0;fillColor=none;top=0;left=0;bottom=0;right=0;overflow=hidden;" vertex="1" parent="34">
                    <mxGeometry x="26" width="28" height="20" as="geometry">
                        <mxRectangle width="28" height="20" as="alternateBounds"/>
                    </mxGeometry>
                </mxCell>
                <mxCell id="37" value="" style="shape=partialRectangle;html=1;whiteSpace=wrap;connectable=0;fillColor=none;top=0;left=0;bottom=0;right=0;overflow=hidden;" vertex="1" parent="34">
                    <mxGeometry x="54" width="26" height="20" as="geometry">
                        <mxRectangle width="26" height="20" as="alternateBounds"/>
                    </mxGeometry>
                </mxCell>
                <mxCell id="38" value="" style="shape=tableRow;horizontal=0;startSize=0;swimlaneHead=0;swimlaneBody=0;top=0;left=0;bottom=0;right=0;collapsible=0;dropTarget=0;fillColor=none;points=[[0,0.5],[1,0.5]];portConstraint=eastwest;" vertex="1" parent="33">
                    <mxGeometry y="20" width="80" height="20" as="geometry"/>
                </mxCell>
                <mxCell id="39" value="" style="shape=partialRectangle;html=1;whiteSpace=wrap;connectable=0;fillColor=none;top=0;left=0;bottom=0;right=0;overflow=hidden;" vertex="1" parent="38">
                    <mxGeometry width="26" height="20" as="geometry">
                        <mxRectangle width="26" height="20" as="alternateBounds"/>
                    </mxGeometry>
                </mxCell>
                <mxCell id="40" value="" style="shape=partialRectangle;html=1;whiteSpace=wrap;connectable=0;fillColor=none;top=0;left=0;bottom=0;right=0;overflow=hidden;" vertex="1" parent="38">
                    <mxGeometry x="26" width="28" height="20" as="geometry">
                        <mxRectangle width="28" height="20" as="alternateBounds"/>
                    </mxGeometry>
                </mxCell>
                <mxCell id="41" value="" style="shape=partialRectangle;html=1;whiteSpace=wrap;connectable=0;fillColor=none;top=0;left=0;bottom=0;right=0;overflow=hidden;" vertex="1" parent="38">
                    <mxGeometry x="54" width="26" height="20" as="geometry">
                        <mxRectangle width="26" height="20" as="alternateBounds"/>
                    </mxGeometry>
                </mxCell>
                <mxCell id="42" value="" style="shape=tableRow;horizontal=0;startSize=0;swimlaneHead=0;swimlaneBody=0;top=0;left=0;bottom=0;right=0;collapsible=0;dropTarget=0;fillColor=none;points=[[0,0.5],[1,0.5]];portConstraint=eastwest;" vertex="1" parent="33">
                    <mxGeometry y="40" width="80" height="20" as="geometry"/>
                </mxCell>
                <mxCell id="43" value="" style="shape=partialRectangle;html=1;whiteSpace=wrap;connectable=0;fillColor=none;top=0;left=0;bottom=0;right=0;overflow=hidden;" vertex="1" parent="42">
                    <mxGeometry width="26" height="20" as="geometry">
                        <mxRectangle width="26" height="20" as="alternateBounds"/>
                    </mxGeometry>
                </mxCell>
                <mxCell id="44" value="" style="shape=partialRectangle;html=1;whiteSpace=wrap;connectable=0;fillColor=none;top=0;left=0;bottom=0;right=0;overflow=hidden;" vertex="1" parent="42">
                    <mxGeometry x="26" width="28" height="20" as="geometry">
                        <mxRectangle width="28" height="20" as="alternateBounds"/>
                    </mxGeometry>
                </mxCell>
                <mxCell id="45" value="" style="shape=partialRectangle;html=1;whiteSpace=wrap;connectable=0;fillColor=none;top=0;left=0;bottom=0;right=0;overflow=hidden;pointerEvents=1;" vertex="1" parent="42">
                    <mxGeometry x="54" width="26" height="20" as="geometry">
                        <mxRectangle width="26" height="20" as="alternateBounds"/>
                    </mxGeometry>
                </mxCell>
                <mxCell id="46" value="" style="verticalLabelPosition=bottom;html=1;verticalAlign=top;align=center;strokeColor=none;fillColor=#00BEF2;shape=mxgraph.azure.azure_website;pointerEvents=1;" vertex="1" parent="1">
                    <mxGeometry x="675" y="265" width="50" height="50" as="geometry"/>
                </mxCell>
            </root>
        </mxGraphModel>
    </diagram>
</mxfile>